G04 #@! TF.GenerationSoftware,KiCad,Pcbnew,(5.1.5)-3*
G04 #@! TF.CreationDate,2020-02-24T19:45:47-05:00*
G04 #@! TF.ProjectId,MiniiPS,4d696e69-6950-4532-9e6b-696361645f70,rev?*
G04 #@! TF.SameCoordinates,PX7641700PY5a995c0*
G04 #@! TF.FileFunction,Soldermask,Top*
G04 #@! TF.FilePolarity,Negative*
%FSLAX46Y46*%
G04 Gerber Fmt 4.6, Leading zero omitted, Abs format (unit mm)*
G04 Created by KiCad (PCBNEW (5.1.5)-3) date 2020-02-24 19:45:47*
%MOMM*%
%LPD*%
G04 APERTURE LIST*
%ADD10C,0.100000*%
G04 APERTURE END LIST*
D10*
G36*
X50751000Y-17551000D02*
G01*
X48649000Y-17551000D01*
X48649000Y-15449000D01*
X50751000Y-15449000D01*
X50751000Y-17551000D01*
G37*
G36*
X2551000Y-17551000D02*
G01*
X449000Y-17551000D01*
X449000Y-15449000D01*
X2551000Y-15449000D01*
X2551000Y-17551000D01*
G37*
G36*
X10784468Y-13403565D02*
G01*
X10823138Y-13415296D01*
X10858777Y-13434346D01*
X10890017Y-13459983D01*
X10915654Y-13491223D01*
X10934704Y-13526862D01*
X10946435Y-13565532D01*
X10951000Y-13611888D01*
X10951000Y-14263112D01*
X10946435Y-14309468D01*
X10934704Y-14348138D01*
X10915654Y-14383777D01*
X10890017Y-14415017D01*
X10858777Y-14440654D01*
X10823138Y-14459704D01*
X10784468Y-14471435D01*
X10738112Y-14476000D01*
X9661888Y-14476000D01*
X9615532Y-14471435D01*
X9576862Y-14459704D01*
X9541223Y-14440654D01*
X9509983Y-14415017D01*
X9484346Y-14383777D01*
X9465296Y-14348138D01*
X9453565Y-14309468D01*
X9449000Y-14263112D01*
X9449000Y-13611888D01*
X9453565Y-13565532D01*
X9465296Y-13526862D01*
X9484346Y-13491223D01*
X9509983Y-13459983D01*
X9541223Y-13434346D01*
X9576862Y-13415296D01*
X9615532Y-13403565D01*
X9661888Y-13399000D01*
X10738112Y-13399000D01*
X10784468Y-13403565D01*
G37*
G36*
X8884468Y-13403565D02*
G01*
X8923138Y-13415296D01*
X8958777Y-13434346D01*
X8990017Y-13459983D01*
X9015654Y-13491223D01*
X9034704Y-13526862D01*
X9046435Y-13565532D01*
X9051000Y-13611888D01*
X9051000Y-14263112D01*
X9046435Y-14309468D01*
X9034704Y-14348138D01*
X9015654Y-14383777D01*
X8990017Y-14415017D01*
X8958777Y-14440654D01*
X8923138Y-14459704D01*
X8884468Y-14471435D01*
X8838112Y-14476000D01*
X7761888Y-14476000D01*
X7715532Y-14471435D01*
X7676862Y-14459704D01*
X7641223Y-14440654D01*
X7609983Y-14415017D01*
X7584346Y-14383777D01*
X7565296Y-14348138D01*
X7553565Y-14309468D01*
X7549000Y-14263112D01*
X7549000Y-13611888D01*
X7553565Y-13565532D01*
X7565296Y-13526862D01*
X7584346Y-13491223D01*
X7609983Y-13459983D01*
X7641223Y-13434346D01*
X7676862Y-13415296D01*
X7715532Y-13403565D01*
X7761888Y-13399000D01*
X8838112Y-13399000D01*
X8884468Y-13403565D01*
G37*
G36*
X37584468Y-13403565D02*
G01*
X37623138Y-13415296D01*
X37658777Y-13434346D01*
X37690017Y-13459983D01*
X37715654Y-13491223D01*
X37734704Y-13526862D01*
X37746435Y-13565532D01*
X37751000Y-13611888D01*
X37751000Y-14263112D01*
X37746435Y-14309468D01*
X37734704Y-14348138D01*
X37715654Y-14383777D01*
X37690017Y-14415017D01*
X37658777Y-14440654D01*
X37623138Y-14459704D01*
X37584468Y-14471435D01*
X37538112Y-14476000D01*
X36461888Y-14476000D01*
X36415532Y-14471435D01*
X36376862Y-14459704D01*
X36341223Y-14440654D01*
X36309983Y-14415017D01*
X36284346Y-14383777D01*
X36265296Y-14348138D01*
X36253565Y-14309468D01*
X36249000Y-14263112D01*
X36249000Y-13611888D01*
X36253565Y-13565532D01*
X36265296Y-13526862D01*
X36284346Y-13491223D01*
X36309983Y-13459983D01*
X36341223Y-13434346D01*
X36376862Y-13415296D01*
X36415532Y-13403565D01*
X36461888Y-13399000D01*
X37538112Y-13399000D01*
X37584468Y-13403565D01*
G37*
G36*
X35684468Y-13403565D02*
G01*
X35723138Y-13415296D01*
X35758777Y-13434346D01*
X35790017Y-13459983D01*
X35815654Y-13491223D01*
X35834704Y-13526862D01*
X35846435Y-13565532D01*
X35851000Y-13611888D01*
X35851000Y-14263112D01*
X35846435Y-14309468D01*
X35834704Y-14348138D01*
X35815654Y-14383777D01*
X35790017Y-14415017D01*
X35758777Y-14440654D01*
X35723138Y-14459704D01*
X35684468Y-14471435D01*
X35638112Y-14476000D01*
X34561888Y-14476000D01*
X34515532Y-14471435D01*
X34476862Y-14459704D01*
X34441223Y-14440654D01*
X34409983Y-14415017D01*
X34384346Y-14383777D01*
X34365296Y-14348138D01*
X34353565Y-14309468D01*
X34349000Y-14263112D01*
X34349000Y-13611888D01*
X34353565Y-13565532D01*
X34365296Y-13526862D01*
X34384346Y-13491223D01*
X34409983Y-13459983D01*
X34441223Y-13434346D01*
X34476862Y-13415296D01*
X34515532Y-13403565D01*
X34561888Y-13399000D01*
X35638112Y-13399000D01*
X35684468Y-13403565D01*
G37*
G36*
X22284468Y-13403565D02*
G01*
X22323138Y-13415296D01*
X22358777Y-13434346D01*
X22390017Y-13459983D01*
X22415654Y-13491223D01*
X22434704Y-13526862D01*
X22446435Y-13565532D01*
X22451000Y-13611888D01*
X22451000Y-14263112D01*
X22446435Y-14309468D01*
X22434704Y-14348138D01*
X22415654Y-14383777D01*
X22390017Y-14415017D01*
X22358777Y-14440654D01*
X22323138Y-14459704D01*
X22284468Y-14471435D01*
X22238112Y-14476000D01*
X21161888Y-14476000D01*
X21115532Y-14471435D01*
X21076862Y-14459704D01*
X21041223Y-14440654D01*
X21009983Y-14415017D01*
X20984346Y-14383777D01*
X20965296Y-14348138D01*
X20953565Y-14309468D01*
X20949000Y-14263112D01*
X20949000Y-13611888D01*
X20953565Y-13565532D01*
X20965296Y-13526862D01*
X20984346Y-13491223D01*
X21009983Y-13459983D01*
X21041223Y-13434346D01*
X21076862Y-13415296D01*
X21115532Y-13403565D01*
X21161888Y-13399000D01*
X22238112Y-13399000D01*
X22284468Y-13403565D01*
G37*
G36*
X24184468Y-13403565D02*
G01*
X24223138Y-13415296D01*
X24258777Y-13434346D01*
X24290017Y-13459983D01*
X24315654Y-13491223D01*
X24334704Y-13526862D01*
X24346435Y-13565532D01*
X24351000Y-13611888D01*
X24351000Y-14263112D01*
X24346435Y-14309468D01*
X24334704Y-14348138D01*
X24315654Y-14383777D01*
X24290017Y-14415017D01*
X24258777Y-14440654D01*
X24223138Y-14459704D01*
X24184468Y-14471435D01*
X24138112Y-14476000D01*
X23061888Y-14476000D01*
X23015532Y-14471435D01*
X22976862Y-14459704D01*
X22941223Y-14440654D01*
X22909983Y-14415017D01*
X22884346Y-14383777D01*
X22865296Y-14348138D01*
X22853565Y-14309468D01*
X22849000Y-14263112D01*
X22849000Y-13611888D01*
X22853565Y-13565532D01*
X22865296Y-13526862D01*
X22884346Y-13491223D01*
X22909983Y-13459983D01*
X22941223Y-13434346D01*
X22976862Y-13415296D01*
X23015532Y-13403565D01*
X23061888Y-13399000D01*
X24138112Y-13399000D01*
X24184468Y-13403565D01*
G37*
G36*
X50634468Y-12953565D02*
G01*
X50673138Y-12965296D01*
X50708777Y-12984346D01*
X50740017Y-13009983D01*
X50765654Y-13041223D01*
X50784704Y-13076862D01*
X50796435Y-13115532D01*
X50801000Y-13161888D01*
X50801000Y-14238112D01*
X50796435Y-14284468D01*
X50784704Y-14323138D01*
X50765654Y-14358777D01*
X50740017Y-14390017D01*
X50708777Y-14415654D01*
X50673138Y-14434704D01*
X50634468Y-14446435D01*
X50588112Y-14451000D01*
X49936888Y-14451000D01*
X49890532Y-14446435D01*
X49851862Y-14434704D01*
X49816223Y-14415654D01*
X49784983Y-14390017D01*
X49759346Y-14358777D01*
X49740296Y-14323138D01*
X49728565Y-14284468D01*
X49724000Y-14238112D01*
X49724000Y-13161888D01*
X49728565Y-13115532D01*
X49740296Y-13076862D01*
X49759346Y-13041223D01*
X49784983Y-13009983D01*
X49816223Y-12984346D01*
X49851862Y-12965296D01*
X49890532Y-12953565D01*
X49936888Y-12949000D01*
X50588112Y-12949000D01*
X50634468Y-12953565D01*
G37*
G36*
X52509468Y-12953565D02*
G01*
X52548138Y-12965296D01*
X52583777Y-12984346D01*
X52615017Y-13009983D01*
X52640654Y-13041223D01*
X52659704Y-13076862D01*
X52671435Y-13115532D01*
X52676000Y-13161888D01*
X52676000Y-14238112D01*
X52671435Y-14284468D01*
X52659704Y-14323138D01*
X52640654Y-14358777D01*
X52615017Y-14390017D01*
X52583777Y-14415654D01*
X52548138Y-14434704D01*
X52509468Y-14446435D01*
X52463112Y-14451000D01*
X51811888Y-14451000D01*
X51765532Y-14446435D01*
X51726862Y-14434704D01*
X51691223Y-14415654D01*
X51659983Y-14390017D01*
X51634346Y-14358777D01*
X51615296Y-14323138D01*
X51603565Y-14284468D01*
X51599000Y-14238112D01*
X51599000Y-13161888D01*
X51603565Y-13115532D01*
X51615296Y-13076862D01*
X51634346Y-13041223D01*
X51659983Y-13009983D01*
X51691223Y-12984346D01*
X51726862Y-12965296D01*
X51765532Y-12953565D01*
X51811888Y-12949000D01*
X52463112Y-12949000D01*
X52509468Y-12953565D01*
G37*
G36*
X47129591Y-13278085D02*
G01*
X47163569Y-13288393D01*
X47194890Y-13305134D01*
X47222339Y-13327661D01*
X47244866Y-13355110D01*
X47261607Y-13386431D01*
X47271915Y-13420409D01*
X47276000Y-13461890D01*
X47276000Y-14138110D01*
X47271915Y-14179591D01*
X47261607Y-14213569D01*
X47244866Y-14244890D01*
X47222339Y-14272339D01*
X47194890Y-14294866D01*
X47163569Y-14311607D01*
X47129591Y-14321915D01*
X47088110Y-14326000D01*
X46486890Y-14326000D01*
X46445409Y-14321915D01*
X46411431Y-14311607D01*
X46380110Y-14294866D01*
X46352661Y-14272339D01*
X46330134Y-14244890D01*
X46313393Y-14213569D01*
X46303085Y-14179591D01*
X46299000Y-14138110D01*
X46299000Y-13461890D01*
X46303085Y-13420409D01*
X46313393Y-13386431D01*
X46330134Y-13355110D01*
X46352661Y-13327661D01*
X46380110Y-13305134D01*
X46411431Y-13288393D01*
X46445409Y-13278085D01*
X46486890Y-13274000D01*
X47088110Y-13274000D01*
X47129591Y-13278085D01*
G37*
G36*
X45554591Y-13278085D02*
G01*
X45588569Y-13288393D01*
X45619890Y-13305134D01*
X45647339Y-13327661D01*
X45669866Y-13355110D01*
X45686607Y-13386431D01*
X45696915Y-13420409D01*
X45701000Y-13461890D01*
X45701000Y-14138110D01*
X45696915Y-14179591D01*
X45686607Y-14213569D01*
X45669866Y-14244890D01*
X45647339Y-14272339D01*
X45619890Y-14294866D01*
X45588569Y-14311607D01*
X45554591Y-14321915D01*
X45513110Y-14326000D01*
X44911890Y-14326000D01*
X44870409Y-14321915D01*
X44836431Y-14311607D01*
X44805110Y-14294866D01*
X44777661Y-14272339D01*
X44755134Y-14244890D01*
X44738393Y-14213569D01*
X44728085Y-14179591D01*
X44724000Y-14138110D01*
X44724000Y-13461890D01*
X44728085Y-13420409D01*
X44738393Y-13386431D01*
X44755134Y-13355110D01*
X44777661Y-13327661D01*
X44805110Y-13305134D01*
X44836431Y-13288393D01*
X44870409Y-13278085D01*
X44911890Y-13274000D01*
X45513110Y-13274000D01*
X45554591Y-13278085D01*
G37*
G36*
X20329591Y-13278085D02*
G01*
X20363569Y-13288393D01*
X20394890Y-13305134D01*
X20422339Y-13327661D01*
X20444866Y-13355110D01*
X20461607Y-13386431D01*
X20471915Y-13420409D01*
X20476000Y-13461890D01*
X20476000Y-14138110D01*
X20471915Y-14179591D01*
X20461607Y-14213569D01*
X20444866Y-14244890D01*
X20422339Y-14272339D01*
X20394890Y-14294866D01*
X20363569Y-14311607D01*
X20329591Y-14321915D01*
X20288110Y-14326000D01*
X19686890Y-14326000D01*
X19645409Y-14321915D01*
X19611431Y-14311607D01*
X19580110Y-14294866D01*
X19552661Y-14272339D01*
X19530134Y-14244890D01*
X19513393Y-14213569D01*
X19503085Y-14179591D01*
X19499000Y-14138110D01*
X19499000Y-13461890D01*
X19503085Y-13420409D01*
X19513393Y-13386431D01*
X19530134Y-13355110D01*
X19552661Y-13327661D01*
X19580110Y-13305134D01*
X19611431Y-13288393D01*
X19645409Y-13278085D01*
X19686890Y-13274000D01*
X20288110Y-13274000D01*
X20329591Y-13278085D01*
G37*
G36*
X32154591Y-13278085D02*
G01*
X32188569Y-13288393D01*
X32219890Y-13305134D01*
X32247339Y-13327661D01*
X32269866Y-13355110D01*
X32286607Y-13386431D01*
X32296915Y-13420409D01*
X32301000Y-13461890D01*
X32301000Y-14138110D01*
X32296915Y-14179591D01*
X32286607Y-14213569D01*
X32269866Y-14244890D01*
X32247339Y-14272339D01*
X32219890Y-14294866D01*
X32188569Y-14311607D01*
X32154591Y-14321915D01*
X32113110Y-14326000D01*
X31511890Y-14326000D01*
X31470409Y-14321915D01*
X31436431Y-14311607D01*
X31405110Y-14294866D01*
X31377661Y-14272339D01*
X31355134Y-14244890D01*
X31338393Y-14213569D01*
X31328085Y-14179591D01*
X31324000Y-14138110D01*
X31324000Y-13461890D01*
X31328085Y-13420409D01*
X31338393Y-13386431D01*
X31355134Y-13355110D01*
X31377661Y-13327661D01*
X31405110Y-13305134D01*
X31436431Y-13288393D01*
X31470409Y-13278085D01*
X31511890Y-13274000D01*
X32113110Y-13274000D01*
X32154591Y-13278085D01*
G37*
G36*
X33729591Y-13278085D02*
G01*
X33763569Y-13288393D01*
X33794890Y-13305134D01*
X33822339Y-13327661D01*
X33844866Y-13355110D01*
X33861607Y-13386431D01*
X33871915Y-13420409D01*
X33876000Y-13461890D01*
X33876000Y-14138110D01*
X33871915Y-14179591D01*
X33861607Y-14213569D01*
X33844866Y-14244890D01*
X33822339Y-14272339D01*
X33794890Y-14294866D01*
X33763569Y-14311607D01*
X33729591Y-14321915D01*
X33688110Y-14326000D01*
X33086890Y-14326000D01*
X33045409Y-14321915D01*
X33011431Y-14311607D01*
X32980110Y-14294866D01*
X32952661Y-14272339D01*
X32930134Y-14244890D01*
X32913393Y-14213569D01*
X32903085Y-14179591D01*
X32899000Y-14138110D01*
X32899000Y-13461890D01*
X32903085Y-13420409D01*
X32913393Y-13386431D01*
X32930134Y-13355110D01*
X32952661Y-13327661D01*
X32980110Y-13305134D01*
X33011431Y-13288393D01*
X33045409Y-13278085D01*
X33086890Y-13274000D01*
X33688110Y-13274000D01*
X33729591Y-13278085D01*
G37*
G36*
X18754591Y-13278085D02*
G01*
X18788569Y-13288393D01*
X18819890Y-13305134D01*
X18847339Y-13327661D01*
X18869866Y-13355110D01*
X18886607Y-13386431D01*
X18896915Y-13420409D01*
X18901000Y-13461890D01*
X18901000Y-14138110D01*
X18896915Y-14179591D01*
X18886607Y-14213569D01*
X18869866Y-14244890D01*
X18847339Y-14272339D01*
X18819890Y-14294866D01*
X18788569Y-14311607D01*
X18754591Y-14321915D01*
X18713110Y-14326000D01*
X18111890Y-14326000D01*
X18070409Y-14321915D01*
X18036431Y-14311607D01*
X18005110Y-14294866D01*
X17977661Y-14272339D01*
X17955134Y-14244890D01*
X17938393Y-14213569D01*
X17928085Y-14179591D01*
X17924000Y-14138110D01*
X17924000Y-13461890D01*
X17928085Y-13420409D01*
X17938393Y-13386431D01*
X17955134Y-13355110D01*
X17977661Y-13327661D01*
X18005110Y-13305134D01*
X18036431Y-13288393D01*
X18070409Y-13278085D01*
X18111890Y-13274000D01*
X18713110Y-13274000D01*
X18754591Y-13278085D01*
G37*
G36*
X44281000Y-14326000D02*
G01*
X43119000Y-14326000D01*
X43119000Y-11674000D01*
X44281000Y-11674000D01*
X44281000Y-14326000D01*
G37*
G36*
X42081000Y-14326000D02*
G01*
X40919000Y-14326000D01*
X40919000Y-11674000D01*
X42081000Y-11674000D01*
X42081000Y-14326000D01*
G37*
G36*
X30881000Y-14326000D02*
G01*
X29719000Y-14326000D01*
X29719000Y-11674000D01*
X30881000Y-11674000D01*
X30881000Y-14326000D01*
G37*
G36*
X15281000Y-14326000D02*
G01*
X14119000Y-14326000D01*
X14119000Y-11674000D01*
X15281000Y-11674000D01*
X15281000Y-14326000D01*
G37*
G36*
X17481000Y-14326000D02*
G01*
X16319000Y-14326000D01*
X16319000Y-11674000D01*
X17481000Y-11674000D01*
X17481000Y-14326000D01*
G37*
G36*
X28681000Y-14326000D02*
G01*
X27519000Y-14326000D01*
X27519000Y-11674000D01*
X28681000Y-11674000D01*
X28681000Y-14326000D01*
G37*
G36*
X39079591Y-13303085D02*
G01*
X39113569Y-13313393D01*
X39144890Y-13330134D01*
X39172339Y-13352661D01*
X39194866Y-13380110D01*
X39211607Y-13411431D01*
X39221915Y-13445409D01*
X39226000Y-13486890D01*
X39226000Y-14088110D01*
X39221915Y-14129591D01*
X39211607Y-14163569D01*
X39194866Y-14194890D01*
X39172339Y-14222339D01*
X39144890Y-14244866D01*
X39113569Y-14261607D01*
X39079591Y-14271915D01*
X39038110Y-14276000D01*
X38361890Y-14276000D01*
X38320409Y-14271915D01*
X38286431Y-14261607D01*
X38255110Y-14244866D01*
X38227661Y-14222339D01*
X38205134Y-14194890D01*
X38188393Y-14163569D01*
X38178085Y-14129591D01*
X38174000Y-14088110D01*
X38174000Y-13486890D01*
X38178085Y-13445409D01*
X38188393Y-13411431D01*
X38205134Y-13380110D01*
X38227661Y-13352661D01*
X38255110Y-13330134D01*
X38286431Y-13313393D01*
X38320409Y-13303085D01*
X38361890Y-13299000D01*
X39038110Y-13299000D01*
X39079591Y-13303085D01*
G37*
G36*
X25679591Y-13303085D02*
G01*
X25713569Y-13313393D01*
X25744890Y-13330134D01*
X25772339Y-13352661D01*
X25794866Y-13380110D01*
X25811607Y-13411431D01*
X25821915Y-13445409D01*
X25826000Y-13486890D01*
X25826000Y-14088110D01*
X25821915Y-14129591D01*
X25811607Y-14163569D01*
X25794866Y-14194890D01*
X25772339Y-14222339D01*
X25744890Y-14244866D01*
X25713569Y-14261607D01*
X25679591Y-14271915D01*
X25638110Y-14276000D01*
X24961890Y-14276000D01*
X24920409Y-14271915D01*
X24886431Y-14261607D01*
X24855110Y-14244866D01*
X24827661Y-14222339D01*
X24805134Y-14194890D01*
X24788393Y-14163569D01*
X24778085Y-14129591D01*
X24774000Y-14088110D01*
X24774000Y-13486890D01*
X24778085Y-13445409D01*
X24788393Y-13411431D01*
X24805134Y-13380110D01*
X24827661Y-13352661D01*
X24855110Y-13330134D01*
X24886431Y-13313393D01*
X24920409Y-13303085D01*
X24961890Y-13299000D01*
X25638110Y-13299000D01*
X25679591Y-13303085D01*
G37*
G36*
X12279591Y-13303085D02*
G01*
X12313569Y-13313393D01*
X12344890Y-13330134D01*
X12372339Y-13352661D01*
X12394866Y-13380110D01*
X12411607Y-13411431D01*
X12421915Y-13445409D01*
X12426000Y-13486890D01*
X12426000Y-14088110D01*
X12421915Y-14129591D01*
X12411607Y-14163569D01*
X12394866Y-14194890D01*
X12372339Y-14222339D01*
X12344890Y-14244866D01*
X12313569Y-14261607D01*
X12279591Y-14271915D01*
X12238110Y-14276000D01*
X11561890Y-14276000D01*
X11520409Y-14271915D01*
X11486431Y-14261607D01*
X11455110Y-14244866D01*
X11427661Y-14222339D01*
X11405134Y-14194890D01*
X11388393Y-14163569D01*
X11378085Y-14129591D01*
X11374000Y-14088110D01*
X11374000Y-13486890D01*
X11378085Y-13445409D01*
X11388393Y-13411431D01*
X11405134Y-13380110D01*
X11427661Y-13352661D01*
X11455110Y-13330134D01*
X11486431Y-13313393D01*
X11520409Y-13303085D01*
X11561890Y-13299000D01*
X12238110Y-13299000D01*
X12279591Y-13303085D01*
G37*
G36*
X2138213Y-12806249D02*
G01*
X2232652Y-12834897D01*
X2319687Y-12881418D01*
X2395975Y-12944025D01*
X2458582Y-13020313D01*
X2505103Y-13107348D01*
X2533751Y-13201787D01*
X2543424Y-13300000D01*
X2533751Y-13398213D01*
X2505103Y-13492652D01*
X2458582Y-13579687D01*
X2395975Y-13655975D01*
X2319687Y-13718582D01*
X2232652Y-13765103D01*
X2138213Y-13793751D01*
X2064612Y-13801000D01*
X1215388Y-13801000D01*
X1141787Y-13793751D01*
X1047348Y-13765103D01*
X960313Y-13718582D01*
X884025Y-13655975D01*
X821418Y-13579687D01*
X774897Y-13492652D01*
X746249Y-13398213D01*
X736576Y-13300000D01*
X746249Y-13201787D01*
X774897Y-13107348D01*
X821418Y-13020313D01*
X884025Y-12944025D01*
X960313Y-12881418D01*
X1047348Y-12834897D01*
X1141787Y-12806249D01*
X1215388Y-12799000D01*
X2064612Y-12799000D01*
X2138213Y-12806249D01*
G37*
G36*
X5868213Y-12806249D02*
G01*
X5962652Y-12834897D01*
X6049687Y-12881418D01*
X6125975Y-12944025D01*
X6188582Y-13020313D01*
X6235103Y-13107348D01*
X6263751Y-13201787D01*
X6273424Y-13300000D01*
X6263751Y-13398213D01*
X6235103Y-13492652D01*
X6188582Y-13579687D01*
X6125975Y-13655975D01*
X6049687Y-13718582D01*
X5962652Y-13765103D01*
X5868213Y-13793751D01*
X5794612Y-13801000D01*
X4245388Y-13801000D01*
X4171787Y-13793751D01*
X4077348Y-13765103D01*
X3990313Y-13718582D01*
X3914025Y-13655975D01*
X3851418Y-13579687D01*
X3804897Y-13492652D01*
X3776249Y-13398213D01*
X3766576Y-13300000D01*
X3776249Y-13201787D01*
X3804897Y-13107348D01*
X3851418Y-13020313D01*
X3914025Y-12944025D01*
X3990313Y-12881418D01*
X4077348Y-12834897D01*
X4171787Y-12806249D01*
X4245388Y-12799000D01*
X5794612Y-12799000D01*
X5868213Y-12806249D01*
G37*
G36*
X20329591Y-11778085D02*
G01*
X20363569Y-11788393D01*
X20394890Y-11805134D01*
X20422339Y-11827661D01*
X20444866Y-11855110D01*
X20461607Y-11886431D01*
X20471915Y-11920409D01*
X20476000Y-11961890D01*
X20476000Y-12638110D01*
X20471915Y-12679591D01*
X20461607Y-12713569D01*
X20444866Y-12744890D01*
X20422339Y-12772339D01*
X20394890Y-12794866D01*
X20363569Y-12811607D01*
X20329591Y-12821915D01*
X20288110Y-12826000D01*
X19686890Y-12826000D01*
X19645409Y-12821915D01*
X19611431Y-12811607D01*
X19580110Y-12794866D01*
X19552661Y-12772339D01*
X19530134Y-12744890D01*
X19513393Y-12713569D01*
X19503085Y-12679591D01*
X19499000Y-12638110D01*
X19499000Y-11961890D01*
X19503085Y-11920409D01*
X19513393Y-11886431D01*
X19530134Y-11855110D01*
X19552661Y-11827661D01*
X19580110Y-11805134D01*
X19611431Y-11788393D01*
X19645409Y-11778085D01*
X19686890Y-11774000D01*
X20288110Y-11774000D01*
X20329591Y-11778085D01*
G37*
G36*
X18754591Y-11778085D02*
G01*
X18788569Y-11788393D01*
X18819890Y-11805134D01*
X18847339Y-11827661D01*
X18869866Y-11855110D01*
X18886607Y-11886431D01*
X18896915Y-11920409D01*
X18901000Y-11961890D01*
X18901000Y-12638110D01*
X18896915Y-12679591D01*
X18886607Y-12713569D01*
X18869866Y-12744890D01*
X18847339Y-12772339D01*
X18819890Y-12794866D01*
X18788569Y-12811607D01*
X18754591Y-12821915D01*
X18713110Y-12826000D01*
X18111890Y-12826000D01*
X18070409Y-12821915D01*
X18036431Y-12811607D01*
X18005110Y-12794866D01*
X17977661Y-12772339D01*
X17955134Y-12744890D01*
X17938393Y-12713569D01*
X17928085Y-12679591D01*
X17924000Y-12638110D01*
X17924000Y-11961890D01*
X17928085Y-11920409D01*
X17938393Y-11886431D01*
X17955134Y-11855110D01*
X17977661Y-11827661D01*
X18005110Y-11805134D01*
X18036431Y-11788393D01*
X18070409Y-11778085D01*
X18111890Y-11774000D01*
X18713110Y-11774000D01*
X18754591Y-11778085D01*
G37*
G36*
X45554591Y-11778085D02*
G01*
X45588569Y-11788393D01*
X45619890Y-11805134D01*
X45647339Y-11827661D01*
X45669866Y-11855110D01*
X45686607Y-11886431D01*
X45696915Y-11920409D01*
X45701000Y-11961890D01*
X45701000Y-12638110D01*
X45696915Y-12679591D01*
X45686607Y-12713569D01*
X45669866Y-12744890D01*
X45647339Y-12772339D01*
X45619890Y-12794866D01*
X45588569Y-12811607D01*
X45554591Y-12821915D01*
X45513110Y-12826000D01*
X44911890Y-12826000D01*
X44870409Y-12821915D01*
X44836431Y-12811607D01*
X44805110Y-12794866D01*
X44777661Y-12772339D01*
X44755134Y-12744890D01*
X44738393Y-12713569D01*
X44728085Y-12679591D01*
X44724000Y-12638110D01*
X44724000Y-11961890D01*
X44728085Y-11920409D01*
X44738393Y-11886431D01*
X44755134Y-11855110D01*
X44777661Y-11827661D01*
X44805110Y-11805134D01*
X44836431Y-11788393D01*
X44870409Y-11778085D01*
X44911890Y-11774000D01*
X45513110Y-11774000D01*
X45554591Y-11778085D01*
G37*
G36*
X47129591Y-11778085D02*
G01*
X47163569Y-11788393D01*
X47194890Y-11805134D01*
X47222339Y-11827661D01*
X47244866Y-11855110D01*
X47261607Y-11886431D01*
X47271915Y-11920409D01*
X47276000Y-11961890D01*
X47276000Y-12638110D01*
X47271915Y-12679591D01*
X47261607Y-12713569D01*
X47244866Y-12744890D01*
X47222339Y-12772339D01*
X47194890Y-12794866D01*
X47163569Y-12811607D01*
X47129591Y-12821915D01*
X47088110Y-12826000D01*
X46486890Y-12826000D01*
X46445409Y-12821915D01*
X46411431Y-12811607D01*
X46380110Y-12794866D01*
X46352661Y-12772339D01*
X46330134Y-12744890D01*
X46313393Y-12713569D01*
X46303085Y-12679591D01*
X46299000Y-12638110D01*
X46299000Y-11961890D01*
X46303085Y-11920409D01*
X46313393Y-11886431D01*
X46330134Y-11855110D01*
X46352661Y-11827661D01*
X46380110Y-11805134D01*
X46411431Y-11788393D01*
X46445409Y-11778085D01*
X46486890Y-11774000D01*
X47088110Y-11774000D01*
X47129591Y-11778085D01*
G37*
G36*
X32154591Y-11778085D02*
G01*
X32188569Y-11788393D01*
X32219890Y-11805134D01*
X32247339Y-11827661D01*
X32269866Y-11855110D01*
X32286607Y-11886431D01*
X32296915Y-11920409D01*
X32301000Y-11961890D01*
X32301000Y-12638110D01*
X32296915Y-12679591D01*
X32286607Y-12713569D01*
X32269866Y-12744890D01*
X32247339Y-12772339D01*
X32219890Y-12794866D01*
X32188569Y-12811607D01*
X32154591Y-12821915D01*
X32113110Y-12826000D01*
X31511890Y-12826000D01*
X31470409Y-12821915D01*
X31436431Y-12811607D01*
X31405110Y-12794866D01*
X31377661Y-12772339D01*
X31355134Y-12744890D01*
X31338393Y-12713569D01*
X31328085Y-12679591D01*
X31324000Y-12638110D01*
X31324000Y-11961890D01*
X31328085Y-11920409D01*
X31338393Y-11886431D01*
X31355134Y-11855110D01*
X31377661Y-11827661D01*
X31405110Y-11805134D01*
X31436431Y-11788393D01*
X31470409Y-11778085D01*
X31511890Y-11774000D01*
X32113110Y-11774000D01*
X32154591Y-11778085D01*
G37*
G36*
X33729591Y-11778085D02*
G01*
X33763569Y-11788393D01*
X33794890Y-11805134D01*
X33822339Y-11827661D01*
X33844866Y-11855110D01*
X33861607Y-11886431D01*
X33871915Y-11920409D01*
X33876000Y-11961890D01*
X33876000Y-12638110D01*
X33871915Y-12679591D01*
X33861607Y-12713569D01*
X33844866Y-12744890D01*
X33822339Y-12772339D01*
X33794890Y-12794866D01*
X33763569Y-12811607D01*
X33729591Y-12821915D01*
X33688110Y-12826000D01*
X33086890Y-12826000D01*
X33045409Y-12821915D01*
X33011431Y-12811607D01*
X32980110Y-12794866D01*
X32952661Y-12772339D01*
X32930134Y-12744890D01*
X32913393Y-12713569D01*
X32903085Y-12679591D01*
X32899000Y-12638110D01*
X32899000Y-11961890D01*
X32903085Y-11920409D01*
X32913393Y-11886431D01*
X32930134Y-11855110D01*
X32952661Y-11827661D01*
X32980110Y-11805134D01*
X33011431Y-11788393D01*
X33045409Y-11778085D01*
X33086890Y-11774000D01*
X33688110Y-11774000D01*
X33729591Y-11778085D01*
G37*
G36*
X12279591Y-11728085D02*
G01*
X12313569Y-11738393D01*
X12344890Y-11755134D01*
X12372339Y-11777661D01*
X12394866Y-11805110D01*
X12411607Y-11836431D01*
X12421915Y-11870409D01*
X12426000Y-11911890D01*
X12426000Y-12513110D01*
X12421915Y-12554591D01*
X12411607Y-12588569D01*
X12394866Y-12619890D01*
X12372339Y-12647339D01*
X12344890Y-12669866D01*
X12313569Y-12686607D01*
X12279591Y-12696915D01*
X12238110Y-12701000D01*
X11561890Y-12701000D01*
X11520409Y-12696915D01*
X11486431Y-12686607D01*
X11455110Y-12669866D01*
X11427661Y-12647339D01*
X11405134Y-12619890D01*
X11388393Y-12588569D01*
X11378085Y-12554591D01*
X11374000Y-12513110D01*
X11374000Y-11911890D01*
X11378085Y-11870409D01*
X11388393Y-11836431D01*
X11405134Y-11805110D01*
X11427661Y-11777661D01*
X11455110Y-11755134D01*
X11486431Y-11738393D01*
X11520409Y-11728085D01*
X11561890Y-11724000D01*
X12238110Y-11724000D01*
X12279591Y-11728085D01*
G37*
G36*
X25679591Y-11728085D02*
G01*
X25713569Y-11738393D01*
X25744890Y-11755134D01*
X25772339Y-11777661D01*
X25794866Y-11805110D01*
X25811607Y-11836431D01*
X25821915Y-11870409D01*
X25826000Y-11911890D01*
X25826000Y-12513110D01*
X25821915Y-12554591D01*
X25811607Y-12588569D01*
X25794866Y-12619890D01*
X25772339Y-12647339D01*
X25744890Y-12669866D01*
X25713569Y-12686607D01*
X25679591Y-12696915D01*
X25638110Y-12701000D01*
X24961890Y-12701000D01*
X24920409Y-12696915D01*
X24886431Y-12686607D01*
X24855110Y-12669866D01*
X24827661Y-12647339D01*
X24805134Y-12619890D01*
X24788393Y-12588569D01*
X24778085Y-12554591D01*
X24774000Y-12513110D01*
X24774000Y-11911890D01*
X24778085Y-11870409D01*
X24788393Y-11836431D01*
X24805134Y-11805110D01*
X24827661Y-11777661D01*
X24855110Y-11755134D01*
X24886431Y-11738393D01*
X24920409Y-11728085D01*
X24961890Y-11724000D01*
X25638110Y-11724000D01*
X25679591Y-11728085D01*
G37*
G36*
X39079591Y-11728085D02*
G01*
X39113569Y-11738393D01*
X39144890Y-11755134D01*
X39172339Y-11777661D01*
X39194866Y-11805110D01*
X39211607Y-11836431D01*
X39221915Y-11870409D01*
X39226000Y-11911890D01*
X39226000Y-12513110D01*
X39221915Y-12554591D01*
X39211607Y-12588569D01*
X39194866Y-12619890D01*
X39172339Y-12647339D01*
X39144890Y-12669866D01*
X39113569Y-12686607D01*
X39079591Y-12696915D01*
X39038110Y-12701000D01*
X38361890Y-12701000D01*
X38320409Y-12696915D01*
X38286431Y-12686607D01*
X38255110Y-12669866D01*
X38227661Y-12647339D01*
X38205134Y-12619890D01*
X38188393Y-12588569D01*
X38178085Y-12554591D01*
X38174000Y-12513110D01*
X38174000Y-11911890D01*
X38178085Y-11870409D01*
X38188393Y-11836431D01*
X38205134Y-11805110D01*
X38227661Y-11777661D01*
X38255110Y-11755134D01*
X38286431Y-11738393D01*
X38320409Y-11728085D01*
X38361890Y-11724000D01*
X39038110Y-11724000D01*
X39079591Y-11728085D01*
G37*
G36*
X35684468Y-11528565D02*
G01*
X35723138Y-11540296D01*
X35758777Y-11559346D01*
X35790017Y-11584983D01*
X35815654Y-11616223D01*
X35834704Y-11651862D01*
X35846435Y-11690532D01*
X35851000Y-11736888D01*
X35851000Y-12388112D01*
X35846435Y-12434468D01*
X35834704Y-12473138D01*
X35815654Y-12508777D01*
X35790017Y-12540017D01*
X35758777Y-12565654D01*
X35723138Y-12584704D01*
X35684468Y-12596435D01*
X35638112Y-12601000D01*
X34561888Y-12601000D01*
X34515532Y-12596435D01*
X34476862Y-12584704D01*
X34441223Y-12565654D01*
X34409983Y-12540017D01*
X34384346Y-12508777D01*
X34365296Y-12473138D01*
X34353565Y-12434468D01*
X34349000Y-12388112D01*
X34349000Y-11736888D01*
X34353565Y-11690532D01*
X34365296Y-11651862D01*
X34384346Y-11616223D01*
X34409983Y-11584983D01*
X34441223Y-11559346D01*
X34476862Y-11540296D01*
X34515532Y-11528565D01*
X34561888Y-11524000D01*
X35638112Y-11524000D01*
X35684468Y-11528565D01*
G37*
G36*
X22284468Y-11528565D02*
G01*
X22323138Y-11540296D01*
X22358777Y-11559346D01*
X22390017Y-11584983D01*
X22415654Y-11616223D01*
X22434704Y-11651862D01*
X22446435Y-11690532D01*
X22451000Y-11736888D01*
X22451000Y-12388112D01*
X22446435Y-12434468D01*
X22434704Y-12473138D01*
X22415654Y-12508777D01*
X22390017Y-12540017D01*
X22358777Y-12565654D01*
X22323138Y-12584704D01*
X22284468Y-12596435D01*
X22238112Y-12601000D01*
X21161888Y-12601000D01*
X21115532Y-12596435D01*
X21076862Y-12584704D01*
X21041223Y-12565654D01*
X21009983Y-12540017D01*
X20984346Y-12508777D01*
X20965296Y-12473138D01*
X20953565Y-12434468D01*
X20949000Y-12388112D01*
X20949000Y-11736888D01*
X20953565Y-11690532D01*
X20965296Y-11651862D01*
X20984346Y-11616223D01*
X21009983Y-11584983D01*
X21041223Y-11559346D01*
X21076862Y-11540296D01*
X21115532Y-11528565D01*
X21161888Y-11524000D01*
X22238112Y-11524000D01*
X22284468Y-11528565D01*
G37*
G36*
X24184468Y-11528565D02*
G01*
X24223138Y-11540296D01*
X24258777Y-11559346D01*
X24290017Y-11584983D01*
X24315654Y-11616223D01*
X24334704Y-11651862D01*
X24346435Y-11690532D01*
X24351000Y-11736888D01*
X24351000Y-12388112D01*
X24346435Y-12434468D01*
X24334704Y-12473138D01*
X24315654Y-12508777D01*
X24290017Y-12540017D01*
X24258777Y-12565654D01*
X24223138Y-12584704D01*
X24184468Y-12596435D01*
X24138112Y-12601000D01*
X23061888Y-12601000D01*
X23015532Y-12596435D01*
X22976862Y-12584704D01*
X22941223Y-12565654D01*
X22909983Y-12540017D01*
X22884346Y-12508777D01*
X22865296Y-12473138D01*
X22853565Y-12434468D01*
X22849000Y-12388112D01*
X22849000Y-11736888D01*
X22853565Y-11690532D01*
X22865296Y-11651862D01*
X22884346Y-11616223D01*
X22909983Y-11584983D01*
X22941223Y-11559346D01*
X22976862Y-11540296D01*
X23015532Y-11528565D01*
X23061888Y-11524000D01*
X24138112Y-11524000D01*
X24184468Y-11528565D01*
G37*
G36*
X37584468Y-11528565D02*
G01*
X37623138Y-11540296D01*
X37658777Y-11559346D01*
X37690017Y-11584983D01*
X37715654Y-11616223D01*
X37734704Y-11651862D01*
X37746435Y-11690532D01*
X37751000Y-11736888D01*
X37751000Y-12388112D01*
X37746435Y-12434468D01*
X37734704Y-12473138D01*
X37715654Y-12508777D01*
X37690017Y-12540017D01*
X37658777Y-12565654D01*
X37623138Y-12584704D01*
X37584468Y-12596435D01*
X37538112Y-12601000D01*
X36461888Y-12601000D01*
X36415532Y-12596435D01*
X36376862Y-12584704D01*
X36341223Y-12565654D01*
X36309983Y-12540017D01*
X36284346Y-12508777D01*
X36265296Y-12473138D01*
X36253565Y-12434468D01*
X36249000Y-12388112D01*
X36249000Y-11736888D01*
X36253565Y-11690532D01*
X36265296Y-11651862D01*
X36284346Y-11616223D01*
X36309983Y-11584983D01*
X36341223Y-11559346D01*
X36376862Y-11540296D01*
X36415532Y-11528565D01*
X36461888Y-11524000D01*
X37538112Y-11524000D01*
X37584468Y-11528565D01*
G37*
G36*
X8884468Y-11528565D02*
G01*
X8923138Y-11540296D01*
X8958777Y-11559346D01*
X8990017Y-11584983D01*
X9015654Y-11616223D01*
X9034704Y-11651862D01*
X9046435Y-11690532D01*
X9051000Y-11736888D01*
X9051000Y-12388112D01*
X9046435Y-12434468D01*
X9034704Y-12473138D01*
X9015654Y-12508777D01*
X8990017Y-12540017D01*
X8958777Y-12565654D01*
X8923138Y-12584704D01*
X8884468Y-12596435D01*
X8838112Y-12601000D01*
X7761888Y-12601000D01*
X7715532Y-12596435D01*
X7676862Y-12584704D01*
X7641223Y-12565654D01*
X7609983Y-12540017D01*
X7584346Y-12508777D01*
X7565296Y-12473138D01*
X7553565Y-12434468D01*
X7549000Y-12388112D01*
X7549000Y-11736888D01*
X7553565Y-11690532D01*
X7565296Y-11651862D01*
X7584346Y-11616223D01*
X7609983Y-11584983D01*
X7641223Y-11559346D01*
X7676862Y-11540296D01*
X7715532Y-11528565D01*
X7761888Y-11524000D01*
X8838112Y-11524000D01*
X8884468Y-11528565D01*
G37*
G36*
X10784468Y-11528565D02*
G01*
X10823138Y-11540296D01*
X10858777Y-11559346D01*
X10890017Y-11584983D01*
X10915654Y-11616223D01*
X10934704Y-11651862D01*
X10946435Y-11690532D01*
X10951000Y-11736888D01*
X10951000Y-12388112D01*
X10946435Y-12434468D01*
X10934704Y-12473138D01*
X10915654Y-12508777D01*
X10890017Y-12540017D01*
X10858777Y-12565654D01*
X10823138Y-12584704D01*
X10784468Y-12596435D01*
X10738112Y-12601000D01*
X9661888Y-12601000D01*
X9615532Y-12596435D01*
X9576862Y-12584704D01*
X9541223Y-12565654D01*
X9509983Y-12540017D01*
X9484346Y-12508777D01*
X9465296Y-12473138D01*
X9453565Y-12434468D01*
X9449000Y-12388112D01*
X9449000Y-11736888D01*
X9453565Y-11690532D01*
X9465296Y-11651862D01*
X9484346Y-11616223D01*
X9509983Y-11584983D01*
X9541223Y-11559346D01*
X9576862Y-11540296D01*
X9615532Y-11528565D01*
X9661888Y-11524000D01*
X10738112Y-11524000D01*
X10784468Y-11528565D01*
G37*
G36*
X50754591Y-11378085D02*
G01*
X50788569Y-11388393D01*
X50819890Y-11405134D01*
X50847339Y-11427661D01*
X50869866Y-11455110D01*
X50886607Y-11486431D01*
X50896915Y-11520409D01*
X50901000Y-11561890D01*
X50901000Y-12238110D01*
X50896915Y-12279591D01*
X50886607Y-12313569D01*
X50869866Y-12344890D01*
X50847339Y-12372339D01*
X50819890Y-12394866D01*
X50788569Y-12411607D01*
X50754591Y-12421915D01*
X50713110Y-12426000D01*
X50111890Y-12426000D01*
X50070409Y-12421915D01*
X50036431Y-12411607D01*
X50005110Y-12394866D01*
X49977661Y-12372339D01*
X49955134Y-12344890D01*
X49938393Y-12313569D01*
X49928085Y-12279591D01*
X49924000Y-12238110D01*
X49924000Y-11561890D01*
X49928085Y-11520409D01*
X49938393Y-11486431D01*
X49955134Y-11455110D01*
X49977661Y-11427661D01*
X50005110Y-11405134D01*
X50036431Y-11388393D01*
X50070409Y-11378085D01*
X50111890Y-11374000D01*
X50713110Y-11374000D01*
X50754591Y-11378085D01*
G37*
G36*
X52329591Y-11378085D02*
G01*
X52363569Y-11388393D01*
X52394890Y-11405134D01*
X52422339Y-11427661D01*
X52444866Y-11455110D01*
X52461607Y-11486431D01*
X52471915Y-11520409D01*
X52476000Y-11561890D01*
X52476000Y-12238110D01*
X52471915Y-12279591D01*
X52461607Y-12313569D01*
X52444866Y-12344890D01*
X52422339Y-12372339D01*
X52394890Y-12394866D01*
X52363569Y-12411607D01*
X52329591Y-12421915D01*
X52288110Y-12426000D01*
X51686890Y-12426000D01*
X51645409Y-12421915D01*
X51611431Y-12411607D01*
X51580110Y-12394866D01*
X51552661Y-12372339D01*
X51530134Y-12344890D01*
X51513393Y-12313569D01*
X51503085Y-12279591D01*
X51499000Y-12238110D01*
X51499000Y-11561890D01*
X51503085Y-11520409D01*
X51513393Y-11486431D01*
X51530134Y-11455110D01*
X51552661Y-11427661D01*
X51580110Y-11405134D01*
X51611431Y-11388393D01*
X51645409Y-11378085D01*
X51686890Y-11374000D01*
X52288110Y-11374000D01*
X52329591Y-11378085D01*
G37*
G36*
X4761133Y-5633642D02*
G01*
X4830472Y-5662363D01*
X4892452Y-5703777D01*
X4892873Y-5704058D01*
X4945942Y-5757127D01*
X4945944Y-5757130D01*
X4987637Y-5819528D01*
X5016358Y-5888867D01*
X5031000Y-5962475D01*
X5031000Y-6037525D01*
X5016358Y-6111133D01*
X4987637Y-6180472D01*
X4946223Y-6242452D01*
X4945942Y-6242873D01*
X4892873Y-6295942D01*
X4855270Y-6321067D01*
X4836328Y-6336612D01*
X4820783Y-6355554D01*
X4809232Y-6377165D01*
X4802119Y-6400614D01*
X4799717Y-6425000D01*
X4802119Y-6449386D01*
X4809232Y-6472835D01*
X4820783Y-6494446D01*
X4836328Y-6513388D01*
X4855269Y-6528932D01*
X4892873Y-6554058D01*
X4945942Y-6607127D01*
X4945944Y-6607130D01*
X4987637Y-6669528D01*
X5016358Y-6738867D01*
X5031000Y-6812475D01*
X5031000Y-6887525D01*
X5016358Y-6961133D01*
X4987637Y-7030472D01*
X4982532Y-7038112D01*
X4945942Y-7092873D01*
X4892873Y-7145942D01*
X4855270Y-7171067D01*
X4836328Y-7186612D01*
X4820783Y-7205554D01*
X4809232Y-7227165D01*
X4802119Y-7250614D01*
X4799717Y-7275000D01*
X4802119Y-7299386D01*
X4809232Y-7322835D01*
X4820783Y-7344446D01*
X4836328Y-7363388D01*
X4855269Y-7378932D01*
X4892873Y-7404058D01*
X4945942Y-7457127D01*
X4945944Y-7457130D01*
X4987637Y-7519528D01*
X5016358Y-7588867D01*
X5031000Y-7662475D01*
X5031000Y-7737525D01*
X5016358Y-7811133D01*
X4987637Y-7880472D01*
X4946223Y-7942452D01*
X4945942Y-7942873D01*
X4892873Y-7995942D01*
X4859486Y-8018250D01*
X4855270Y-8021067D01*
X4836328Y-8036612D01*
X4820783Y-8055554D01*
X4809232Y-8077165D01*
X4802119Y-8100614D01*
X4799717Y-8125000D01*
X4802119Y-8149386D01*
X4809232Y-8172835D01*
X4820783Y-8194446D01*
X4836328Y-8213388D01*
X4855269Y-8228932D01*
X4892873Y-8254058D01*
X4945942Y-8307127D01*
X4945944Y-8307130D01*
X4987637Y-8369528D01*
X5016358Y-8438867D01*
X5031000Y-8512475D01*
X5031000Y-8587525D01*
X5016358Y-8661133D01*
X4987637Y-8730472D01*
X4956106Y-8777661D01*
X4945942Y-8792873D01*
X4892873Y-8845942D01*
X4856255Y-8870409D01*
X4855270Y-8871067D01*
X4836328Y-8886612D01*
X4820783Y-8905554D01*
X4809232Y-8927165D01*
X4802119Y-8950614D01*
X4799717Y-8975000D01*
X4802119Y-8999386D01*
X4809232Y-9022835D01*
X4820783Y-9044446D01*
X4836328Y-9063388D01*
X4855269Y-9078932D01*
X4892873Y-9104058D01*
X4945942Y-9157127D01*
X4945944Y-9157130D01*
X4987637Y-9219528D01*
X5016358Y-9288867D01*
X5031000Y-9362475D01*
X5031000Y-9437525D01*
X5016358Y-9511133D01*
X4987637Y-9580472D01*
X4946223Y-9642452D01*
X4945942Y-9642873D01*
X4892873Y-9695942D01*
X4855270Y-9721067D01*
X4836328Y-9736612D01*
X4820783Y-9755554D01*
X4809232Y-9777165D01*
X4802119Y-9800614D01*
X4799717Y-9825000D01*
X4802119Y-9849386D01*
X4809232Y-9872835D01*
X4820783Y-9894446D01*
X4836328Y-9913388D01*
X4855269Y-9928932D01*
X4892873Y-9954058D01*
X4945942Y-10007127D01*
X4945944Y-10007130D01*
X4987637Y-10069528D01*
X5016358Y-10138867D01*
X5031000Y-10212475D01*
X5031000Y-10287525D01*
X5016358Y-10361133D01*
X4987637Y-10430472D01*
X4949940Y-10486890D01*
X4945942Y-10492873D01*
X4892873Y-10545942D01*
X4855270Y-10571067D01*
X4836328Y-10586612D01*
X4820783Y-10605554D01*
X4809232Y-10627165D01*
X4802119Y-10650614D01*
X4799717Y-10675000D01*
X4802119Y-10699386D01*
X4809232Y-10722835D01*
X4820783Y-10744446D01*
X4836328Y-10763388D01*
X4855269Y-10778932D01*
X4892873Y-10804058D01*
X4945942Y-10857127D01*
X4945944Y-10857130D01*
X4987637Y-10919528D01*
X5016358Y-10988867D01*
X5031000Y-11062475D01*
X5031000Y-11137525D01*
X5016358Y-11211133D01*
X4987637Y-11280472D01*
X4946223Y-11342452D01*
X4945942Y-11342873D01*
X4892873Y-11395942D01*
X4855270Y-11421067D01*
X4836328Y-11436612D01*
X4820783Y-11455554D01*
X4809232Y-11477165D01*
X4802119Y-11500614D01*
X4799717Y-11525000D01*
X4802119Y-11549386D01*
X4809232Y-11572835D01*
X4820783Y-11594446D01*
X4836328Y-11613388D01*
X4855269Y-11628932D01*
X4892873Y-11654058D01*
X4945942Y-11707127D01*
X4945944Y-11707130D01*
X4987637Y-11769528D01*
X5016358Y-11838867D01*
X5031000Y-11912475D01*
X5031000Y-11987525D01*
X5016358Y-12061133D01*
X4987637Y-12130472D01*
X4953374Y-12181750D01*
X4945942Y-12192873D01*
X4892873Y-12245942D01*
X4892870Y-12245944D01*
X4830472Y-12287637D01*
X4767866Y-12313569D01*
X4761133Y-12316358D01*
X4687525Y-12331000D01*
X4612475Y-12331000D01*
X4538867Y-12316358D01*
X4532134Y-12313569D01*
X4469528Y-12287637D01*
X4407130Y-12245944D01*
X4407127Y-12245942D01*
X4354058Y-12192873D01*
X4346626Y-12181750D01*
X4312363Y-12130472D01*
X4283642Y-12061133D01*
X4269000Y-11987525D01*
X4269000Y-11912475D01*
X4283642Y-11838867D01*
X4312363Y-11769528D01*
X4354056Y-11707130D01*
X4354058Y-11707127D01*
X4407127Y-11654058D01*
X4444731Y-11628932D01*
X4463672Y-11613388D01*
X4479217Y-11594446D01*
X4490768Y-11572835D01*
X4497881Y-11549386D01*
X4500283Y-11525000D01*
X4497881Y-11500614D01*
X4490768Y-11477165D01*
X4479217Y-11455554D01*
X4463672Y-11436612D01*
X4444730Y-11421067D01*
X4407127Y-11395942D01*
X4354058Y-11342873D01*
X4353777Y-11342452D01*
X4312363Y-11280472D01*
X4283642Y-11211133D01*
X4269000Y-11137525D01*
X4269000Y-11062475D01*
X4283642Y-10988867D01*
X4312363Y-10919528D01*
X4354056Y-10857130D01*
X4354058Y-10857127D01*
X4407127Y-10804058D01*
X4444731Y-10778932D01*
X4463672Y-10763388D01*
X4479217Y-10744446D01*
X4490768Y-10722835D01*
X4497881Y-10699386D01*
X4500283Y-10675000D01*
X4497881Y-10650614D01*
X4490768Y-10627165D01*
X4479217Y-10605554D01*
X4463672Y-10586612D01*
X4444730Y-10571067D01*
X4407127Y-10545942D01*
X4354058Y-10492873D01*
X4350060Y-10486890D01*
X4312363Y-10430472D01*
X4283642Y-10361133D01*
X4269000Y-10287525D01*
X4269000Y-10212475D01*
X4283642Y-10138867D01*
X4312363Y-10069528D01*
X4354056Y-10007130D01*
X4354058Y-10007127D01*
X4407127Y-9954058D01*
X4444731Y-9928932D01*
X4463672Y-9913388D01*
X4479217Y-9894446D01*
X4490768Y-9872835D01*
X4497881Y-9849386D01*
X4500283Y-9825000D01*
X4497881Y-9800614D01*
X4490768Y-9777165D01*
X4479217Y-9755554D01*
X4463672Y-9736612D01*
X4444730Y-9721067D01*
X4407127Y-9695942D01*
X4354058Y-9642873D01*
X4353777Y-9642452D01*
X4312363Y-9580472D01*
X4283642Y-9511133D01*
X4269000Y-9437525D01*
X4269000Y-9362475D01*
X4283642Y-9288867D01*
X4312363Y-9219528D01*
X4354056Y-9157130D01*
X4354058Y-9157127D01*
X4407127Y-9104058D01*
X4444731Y-9078932D01*
X4463672Y-9063388D01*
X4479217Y-9044446D01*
X4490768Y-9022835D01*
X4497881Y-8999386D01*
X4500283Y-8975000D01*
X4497881Y-8950614D01*
X4490768Y-8927165D01*
X4479217Y-8905554D01*
X4463672Y-8886612D01*
X4444730Y-8871067D01*
X4443745Y-8870409D01*
X4407127Y-8845942D01*
X4354058Y-8792873D01*
X4343894Y-8777661D01*
X4312363Y-8730472D01*
X4283642Y-8661133D01*
X4269000Y-8587525D01*
X4269000Y-8512475D01*
X4283642Y-8438867D01*
X4312363Y-8369528D01*
X4354056Y-8307130D01*
X4354058Y-8307127D01*
X4407127Y-8254058D01*
X4444731Y-8228932D01*
X4463672Y-8213388D01*
X4479217Y-8194446D01*
X4490768Y-8172835D01*
X4497881Y-8149386D01*
X4500283Y-8125000D01*
X4497881Y-8100614D01*
X4490768Y-8077165D01*
X4479217Y-8055554D01*
X4463672Y-8036612D01*
X4444730Y-8021067D01*
X4440514Y-8018250D01*
X4407127Y-7995942D01*
X4354058Y-7942873D01*
X4353777Y-7942452D01*
X4312363Y-7880472D01*
X4283642Y-7811133D01*
X4269000Y-7737525D01*
X4269000Y-7662475D01*
X4283642Y-7588867D01*
X4312363Y-7519528D01*
X4354056Y-7457130D01*
X4354058Y-7457127D01*
X4407127Y-7404058D01*
X4444731Y-7378932D01*
X4463672Y-7363388D01*
X4479217Y-7344446D01*
X4490768Y-7322835D01*
X4497881Y-7299386D01*
X4500283Y-7275000D01*
X4497881Y-7250614D01*
X4490768Y-7227165D01*
X4479217Y-7205554D01*
X4463672Y-7186612D01*
X4444730Y-7171067D01*
X4407127Y-7145942D01*
X4354058Y-7092873D01*
X4317468Y-7038112D01*
X4312363Y-7030472D01*
X4283642Y-6961133D01*
X4269000Y-6887525D01*
X4269000Y-6812475D01*
X4283642Y-6738867D01*
X4312363Y-6669528D01*
X4354056Y-6607130D01*
X4354058Y-6607127D01*
X4407127Y-6554058D01*
X4444731Y-6528932D01*
X4463672Y-6513388D01*
X4479217Y-6494446D01*
X4490768Y-6472835D01*
X4497881Y-6449386D01*
X4500283Y-6425000D01*
X4497881Y-6400614D01*
X4490768Y-6377165D01*
X4479217Y-6355554D01*
X4463672Y-6336612D01*
X4444730Y-6321067D01*
X4407127Y-6295942D01*
X4354058Y-6242873D01*
X4353777Y-6242452D01*
X4312363Y-6180472D01*
X4283642Y-6111133D01*
X4269000Y-6037525D01*
X4269000Y-5962475D01*
X4283642Y-5888867D01*
X4312363Y-5819528D01*
X4354056Y-5757130D01*
X4354058Y-5757127D01*
X4407127Y-5704058D01*
X4407548Y-5703777D01*
X4469528Y-5662363D01*
X4538867Y-5633642D01*
X4612475Y-5619000D01*
X4687525Y-5619000D01*
X4761133Y-5633642D01*
G37*
G36*
X6111133Y-5633642D02*
G01*
X6180472Y-5662363D01*
X6242452Y-5703777D01*
X6242873Y-5704058D01*
X6295942Y-5757127D01*
X6295944Y-5757130D01*
X6337637Y-5819528D01*
X6366358Y-5888867D01*
X6381000Y-5962475D01*
X6381000Y-6037525D01*
X6366358Y-6111133D01*
X6337637Y-6180472D01*
X6296223Y-6242452D01*
X6295942Y-6242873D01*
X6242873Y-6295942D01*
X6205270Y-6321067D01*
X6186328Y-6336612D01*
X6170783Y-6355554D01*
X6159232Y-6377165D01*
X6152119Y-6400614D01*
X6149717Y-6425000D01*
X6152119Y-6449386D01*
X6159232Y-6472835D01*
X6170783Y-6494446D01*
X6186328Y-6513388D01*
X6205269Y-6528932D01*
X6242873Y-6554058D01*
X6295942Y-6607127D01*
X6295944Y-6607130D01*
X6337637Y-6669528D01*
X6366358Y-6738867D01*
X6381000Y-6812475D01*
X6381000Y-6887525D01*
X6366358Y-6961133D01*
X6337637Y-7030472D01*
X6332532Y-7038112D01*
X6295942Y-7092873D01*
X6242873Y-7145942D01*
X6205270Y-7171067D01*
X6186328Y-7186612D01*
X6170783Y-7205554D01*
X6159232Y-7227165D01*
X6152119Y-7250614D01*
X6149717Y-7275000D01*
X6152119Y-7299386D01*
X6159232Y-7322835D01*
X6170783Y-7344446D01*
X6186328Y-7363388D01*
X6205269Y-7378932D01*
X6242873Y-7404058D01*
X6295942Y-7457127D01*
X6295944Y-7457130D01*
X6337637Y-7519528D01*
X6366358Y-7588867D01*
X6381000Y-7662475D01*
X6381000Y-7737525D01*
X6366358Y-7811133D01*
X6337637Y-7880472D01*
X6296223Y-7942452D01*
X6295942Y-7942873D01*
X6242873Y-7995942D01*
X6209486Y-8018250D01*
X6205270Y-8021067D01*
X6186328Y-8036612D01*
X6170783Y-8055554D01*
X6159232Y-8077165D01*
X6152119Y-8100614D01*
X6149717Y-8125000D01*
X6152119Y-8149386D01*
X6159232Y-8172835D01*
X6170783Y-8194446D01*
X6186328Y-8213388D01*
X6205269Y-8228932D01*
X6242873Y-8254058D01*
X6295942Y-8307127D01*
X6295944Y-8307130D01*
X6337637Y-8369528D01*
X6366358Y-8438867D01*
X6381000Y-8512475D01*
X6381000Y-8587525D01*
X6366358Y-8661133D01*
X6337637Y-8730472D01*
X6306106Y-8777661D01*
X6295942Y-8792873D01*
X6242873Y-8845942D01*
X6206255Y-8870409D01*
X6205270Y-8871067D01*
X6186328Y-8886612D01*
X6170783Y-8905554D01*
X6159232Y-8927165D01*
X6152119Y-8950614D01*
X6149717Y-8975000D01*
X6152119Y-8999386D01*
X6159232Y-9022835D01*
X6170783Y-9044446D01*
X6186328Y-9063388D01*
X6205269Y-9078932D01*
X6242873Y-9104058D01*
X6295942Y-9157127D01*
X6295944Y-9157130D01*
X6337637Y-9219528D01*
X6366358Y-9288867D01*
X6381000Y-9362475D01*
X6381000Y-9437525D01*
X6366358Y-9511133D01*
X6337637Y-9580472D01*
X6296223Y-9642452D01*
X6295942Y-9642873D01*
X6242873Y-9695942D01*
X6205270Y-9721067D01*
X6186328Y-9736612D01*
X6170783Y-9755554D01*
X6159232Y-9777165D01*
X6152119Y-9800614D01*
X6149717Y-9825000D01*
X6152119Y-9849386D01*
X6159232Y-9872835D01*
X6170783Y-9894446D01*
X6186328Y-9913388D01*
X6205269Y-9928932D01*
X6242873Y-9954058D01*
X6295942Y-10007127D01*
X6295944Y-10007130D01*
X6337637Y-10069528D01*
X6366358Y-10138867D01*
X6381000Y-10212475D01*
X6381000Y-10287525D01*
X6366358Y-10361133D01*
X6337637Y-10430472D01*
X6299940Y-10486890D01*
X6295942Y-10492873D01*
X6242873Y-10545942D01*
X6205270Y-10571067D01*
X6186328Y-10586612D01*
X6170783Y-10605554D01*
X6159232Y-10627165D01*
X6152119Y-10650614D01*
X6149717Y-10675000D01*
X6152119Y-10699386D01*
X6159232Y-10722835D01*
X6170783Y-10744446D01*
X6186328Y-10763388D01*
X6205269Y-10778932D01*
X6242873Y-10804058D01*
X6295942Y-10857127D01*
X6295944Y-10857130D01*
X6337637Y-10919528D01*
X6366358Y-10988867D01*
X6381000Y-11062475D01*
X6381000Y-11137525D01*
X6366358Y-11211133D01*
X6337637Y-11280472D01*
X6296223Y-11342452D01*
X6295942Y-11342873D01*
X6242873Y-11395942D01*
X6205270Y-11421067D01*
X6186328Y-11436612D01*
X6170783Y-11455554D01*
X6159232Y-11477165D01*
X6152119Y-11500614D01*
X6149717Y-11525000D01*
X6152119Y-11549386D01*
X6159232Y-11572835D01*
X6170783Y-11594446D01*
X6186328Y-11613388D01*
X6205269Y-11628932D01*
X6242873Y-11654058D01*
X6295942Y-11707127D01*
X6295944Y-11707130D01*
X6337637Y-11769528D01*
X6366358Y-11838867D01*
X6381000Y-11912475D01*
X6381000Y-11987525D01*
X6366358Y-12061133D01*
X6337637Y-12130472D01*
X6303374Y-12181750D01*
X6295942Y-12192873D01*
X6242873Y-12245942D01*
X6242870Y-12245944D01*
X6180472Y-12287637D01*
X6111133Y-12316358D01*
X6037525Y-12331000D01*
X5962475Y-12331000D01*
X5888867Y-12316358D01*
X5819528Y-12287637D01*
X5757130Y-12245944D01*
X5757127Y-12245942D01*
X5704058Y-12192873D01*
X5696626Y-12181750D01*
X5662363Y-12130472D01*
X5633642Y-12061133D01*
X5619000Y-11987525D01*
X5619000Y-11912475D01*
X5633642Y-11838867D01*
X5662363Y-11769528D01*
X5704056Y-11707130D01*
X5704058Y-11707127D01*
X5757127Y-11654058D01*
X5794731Y-11628932D01*
X5813672Y-11613388D01*
X5829217Y-11594446D01*
X5840768Y-11572835D01*
X5847881Y-11549386D01*
X5850283Y-11525000D01*
X5847881Y-11500614D01*
X5840768Y-11477165D01*
X5829217Y-11455554D01*
X5813672Y-11436612D01*
X5794730Y-11421067D01*
X5757127Y-11395942D01*
X5704058Y-11342873D01*
X5703777Y-11342452D01*
X5662363Y-11280472D01*
X5633642Y-11211133D01*
X5619000Y-11137525D01*
X5619000Y-11062475D01*
X5633642Y-10988867D01*
X5662363Y-10919528D01*
X5704056Y-10857130D01*
X5704058Y-10857127D01*
X5757127Y-10804058D01*
X5794731Y-10778932D01*
X5813672Y-10763388D01*
X5829217Y-10744446D01*
X5840768Y-10722835D01*
X5847881Y-10699386D01*
X5850283Y-10675000D01*
X5847881Y-10650614D01*
X5840768Y-10627165D01*
X5829217Y-10605554D01*
X5813672Y-10586612D01*
X5794730Y-10571067D01*
X5757127Y-10545942D01*
X5704058Y-10492873D01*
X5700060Y-10486890D01*
X5662363Y-10430472D01*
X5633642Y-10361133D01*
X5619000Y-10287525D01*
X5619000Y-10212475D01*
X5633642Y-10138867D01*
X5662363Y-10069528D01*
X5704056Y-10007130D01*
X5704058Y-10007127D01*
X5757127Y-9954058D01*
X5794731Y-9928932D01*
X5813672Y-9913388D01*
X5829217Y-9894446D01*
X5840768Y-9872835D01*
X5847881Y-9849386D01*
X5850283Y-9825000D01*
X5847881Y-9800614D01*
X5840768Y-9777165D01*
X5829217Y-9755554D01*
X5813672Y-9736612D01*
X5794730Y-9721067D01*
X5757127Y-9695942D01*
X5704058Y-9642873D01*
X5703777Y-9642452D01*
X5662363Y-9580472D01*
X5633642Y-9511133D01*
X5619000Y-9437525D01*
X5619000Y-9362475D01*
X5633642Y-9288867D01*
X5662363Y-9219528D01*
X5704056Y-9157130D01*
X5704058Y-9157127D01*
X5757127Y-9104058D01*
X5794731Y-9078932D01*
X5813672Y-9063388D01*
X5829217Y-9044446D01*
X5840768Y-9022835D01*
X5847881Y-8999386D01*
X5850283Y-8975000D01*
X5847881Y-8950614D01*
X5840768Y-8927165D01*
X5829217Y-8905554D01*
X5813672Y-8886612D01*
X5794730Y-8871067D01*
X5793745Y-8870409D01*
X5757127Y-8845942D01*
X5704058Y-8792873D01*
X5693894Y-8777661D01*
X5662363Y-8730472D01*
X5633642Y-8661133D01*
X5619000Y-8587525D01*
X5619000Y-8512475D01*
X5633642Y-8438867D01*
X5662363Y-8369528D01*
X5704056Y-8307130D01*
X5704058Y-8307127D01*
X5757127Y-8254058D01*
X5794731Y-8228932D01*
X5813672Y-8213388D01*
X5829217Y-8194446D01*
X5840768Y-8172835D01*
X5847881Y-8149386D01*
X5850283Y-8125000D01*
X5847881Y-8100614D01*
X5840768Y-8077165D01*
X5829217Y-8055554D01*
X5813672Y-8036612D01*
X5794730Y-8021067D01*
X5790514Y-8018250D01*
X5757127Y-7995942D01*
X5704058Y-7942873D01*
X5703777Y-7942452D01*
X5662363Y-7880472D01*
X5633642Y-7811133D01*
X5619000Y-7737525D01*
X5619000Y-7662475D01*
X5633642Y-7588867D01*
X5662363Y-7519528D01*
X5704056Y-7457130D01*
X5704058Y-7457127D01*
X5757127Y-7404058D01*
X5794731Y-7378932D01*
X5813672Y-7363388D01*
X5829217Y-7344446D01*
X5840768Y-7322835D01*
X5847881Y-7299386D01*
X5850283Y-7275000D01*
X5847881Y-7250614D01*
X5840768Y-7227165D01*
X5829217Y-7205554D01*
X5813672Y-7186612D01*
X5794730Y-7171067D01*
X5757127Y-7145942D01*
X5704058Y-7092873D01*
X5667468Y-7038112D01*
X5662363Y-7030472D01*
X5633642Y-6961133D01*
X5619000Y-6887525D01*
X5619000Y-6812475D01*
X5633642Y-6738867D01*
X5662363Y-6669528D01*
X5704056Y-6607130D01*
X5704058Y-6607127D01*
X5757127Y-6554058D01*
X5794731Y-6528932D01*
X5813672Y-6513388D01*
X5829217Y-6494446D01*
X5840768Y-6472835D01*
X5847881Y-6449386D01*
X5850283Y-6425000D01*
X5847881Y-6400614D01*
X5840768Y-6377165D01*
X5829217Y-6355554D01*
X5813672Y-6336612D01*
X5794730Y-6321067D01*
X5757127Y-6295942D01*
X5704058Y-6242873D01*
X5703777Y-6242452D01*
X5662363Y-6180472D01*
X5633642Y-6111133D01*
X5619000Y-6037525D01*
X5619000Y-5962475D01*
X5633642Y-5888867D01*
X5662363Y-5819528D01*
X5704056Y-5757130D01*
X5704058Y-5757127D01*
X5757127Y-5704058D01*
X5757548Y-5703777D01*
X5819528Y-5662363D01*
X5888867Y-5633642D01*
X5962475Y-5619000D01*
X6037525Y-5619000D01*
X6111133Y-5633642D01*
G37*
G36*
X19379591Y-10303085D02*
G01*
X19413569Y-10313393D01*
X19444890Y-10330134D01*
X19472339Y-10352661D01*
X19494866Y-10380110D01*
X19511607Y-10411431D01*
X19521915Y-10445409D01*
X19526000Y-10486890D01*
X19526000Y-11088110D01*
X19521915Y-11129591D01*
X19511607Y-11163569D01*
X19494866Y-11194890D01*
X19472339Y-11222339D01*
X19444890Y-11244866D01*
X19413569Y-11261607D01*
X19379591Y-11271915D01*
X19338110Y-11276000D01*
X18661890Y-11276000D01*
X18620409Y-11271915D01*
X18586431Y-11261607D01*
X18555110Y-11244866D01*
X18527661Y-11222339D01*
X18505134Y-11194890D01*
X18488393Y-11163569D01*
X18478085Y-11129591D01*
X18474000Y-11088110D01*
X18474000Y-10486890D01*
X18478085Y-10445409D01*
X18488393Y-10411431D01*
X18505134Y-10380110D01*
X18527661Y-10352661D01*
X18555110Y-10330134D01*
X18586431Y-10313393D01*
X18620409Y-10303085D01*
X18661890Y-10299000D01*
X19338110Y-10299000D01*
X19379591Y-10303085D01*
G37*
G36*
X46179591Y-10303085D02*
G01*
X46213569Y-10313393D01*
X46244890Y-10330134D01*
X46272339Y-10352661D01*
X46294866Y-10380110D01*
X46311607Y-10411431D01*
X46321915Y-10445409D01*
X46326000Y-10486890D01*
X46326000Y-11088110D01*
X46321915Y-11129591D01*
X46311607Y-11163569D01*
X46294866Y-11194890D01*
X46272339Y-11222339D01*
X46244890Y-11244866D01*
X46213569Y-11261607D01*
X46179591Y-11271915D01*
X46138110Y-11276000D01*
X45461890Y-11276000D01*
X45420409Y-11271915D01*
X45386431Y-11261607D01*
X45355110Y-11244866D01*
X45327661Y-11222339D01*
X45305134Y-11194890D01*
X45288393Y-11163569D01*
X45278085Y-11129591D01*
X45274000Y-11088110D01*
X45274000Y-10486890D01*
X45278085Y-10445409D01*
X45288393Y-10411431D01*
X45305134Y-10380110D01*
X45327661Y-10352661D01*
X45355110Y-10330134D01*
X45386431Y-10313393D01*
X45420409Y-10303085D01*
X45461890Y-10299000D01*
X46138110Y-10299000D01*
X46179591Y-10303085D01*
G37*
G36*
X54479591Y-10303085D02*
G01*
X54513569Y-10313393D01*
X54544890Y-10330134D01*
X54572339Y-10352661D01*
X54594866Y-10380110D01*
X54611607Y-10411431D01*
X54621915Y-10445409D01*
X54626000Y-10486890D01*
X54626000Y-11088110D01*
X54621915Y-11129591D01*
X54611607Y-11163569D01*
X54594866Y-11194890D01*
X54572339Y-11222339D01*
X54544890Y-11244866D01*
X54513569Y-11261607D01*
X54479591Y-11271915D01*
X54438110Y-11276000D01*
X53761890Y-11276000D01*
X53720409Y-11271915D01*
X53686431Y-11261607D01*
X53655110Y-11244866D01*
X53627661Y-11222339D01*
X53605134Y-11194890D01*
X53588393Y-11163569D01*
X53578085Y-11129591D01*
X53574000Y-11088110D01*
X53574000Y-10486890D01*
X53578085Y-10445409D01*
X53588393Y-10411431D01*
X53605134Y-10380110D01*
X53627661Y-10352661D01*
X53655110Y-10330134D01*
X53686431Y-10313393D01*
X53720409Y-10303085D01*
X53761890Y-10299000D01*
X54438110Y-10299000D01*
X54479591Y-10303085D01*
G37*
G36*
X32779591Y-10303085D02*
G01*
X32813569Y-10313393D01*
X32844890Y-10330134D01*
X32872339Y-10352661D01*
X32894866Y-10380110D01*
X32911607Y-10411431D01*
X32921915Y-10445409D01*
X32926000Y-10486890D01*
X32926000Y-11088110D01*
X32921915Y-11129591D01*
X32911607Y-11163569D01*
X32894866Y-11194890D01*
X32872339Y-11222339D01*
X32844890Y-11244866D01*
X32813569Y-11261607D01*
X32779591Y-11271915D01*
X32738110Y-11276000D01*
X32061890Y-11276000D01*
X32020409Y-11271915D01*
X31986431Y-11261607D01*
X31955110Y-11244866D01*
X31927661Y-11222339D01*
X31905134Y-11194890D01*
X31888393Y-11163569D01*
X31878085Y-11129591D01*
X31874000Y-11088110D01*
X31874000Y-10486890D01*
X31878085Y-10445409D01*
X31888393Y-10411431D01*
X31905134Y-10380110D01*
X31927661Y-10352661D01*
X31955110Y-10330134D01*
X31986431Y-10313393D01*
X32020409Y-10303085D01*
X32061890Y-10299000D01*
X32738110Y-10299000D01*
X32779591Y-10303085D01*
G37*
G36*
X52426000Y-10881000D02*
G01*
X51674000Y-10881000D01*
X51674000Y-9719000D01*
X52426000Y-9719000D01*
X52426000Y-10881000D01*
G37*
G36*
X50526000Y-10881000D02*
G01*
X49774000Y-10881000D01*
X49774000Y-9719000D01*
X50526000Y-9719000D01*
X50526000Y-10881000D01*
G37*
G36*
X31001000Y-9701000D02*
G01*
X25199000Y-9701000D01*
X25199000Y-7999000D01*
X31001000Y-7999000D01*
X31001000Y-9701000D01*
G37*
G36*
X32779591Y-8728085D02*
G01*
X32813569Y-8738393D01*
X32844890Y-8755134D01*
X32872339Y-8777661D01*
X32894866Y-8805110D01*
X32911607Y-8836431D01*
X32921915Y-8870409D01*
X32926000Y-8911890D01*
X32926000Y-9513110D01*
X32921915Y-9554591D01*
X32911607Y-9588569D01*
X32894866Y-9619890D01*
X32872339Y-9647339D01*
X32844890Y-9669866D01*
X32813569Y-9686607D01*
X32779591Y-9696915D01*
X32738110Y-9701000D01*
X32061890Y-9701000D01*
X32020409Y-9696915D01*
X31986431Y-9686607D01*
X31955110Y-9669866D01*
X31927661Y-9647339D01*
X31905134Y-9619890D01*
X31888393Y-9588569D01*
X31878085Y-9554591D01*
X31874000Y-9513110D01*
X31874000Y-8911890D01*
X31878085Y-8870409D01*
X31888393Y-8836431D01*
X31905134Y-8805110D01*
X31927661Y-8777661D01*
X31955110Y-8755134D01*
X31986431Y-8738393D01*
X32020409Y-8728085D01*
X32061890Y-8724000D01*
X32738110Y-8724000D01*
X32779591Y-8728085D01*
G37*
G36*
X17601000Y-9701000D02*
G01*
X11799000Y-9701000D01*
X11799000Y-7999000D01*
X17601000Y-7999000D01*
X17601000Y-9701000D01*
G37*
G36*
X54479591Y-8728085D02*
G01*
X54513569Y-8738393D01*
X54544890Y-8755134D01*
X54572339Y-8777661D01*
X54594866Y-8805110D01*
X54611607Y-8836431D01*
X54621915Y-8870409D01*
X54626000Y-8911890D01*
X54626000Y-9513110D01*
X54621915Y-9554591D01*
X54611607Y-9588569D01*
X54594866Y-9619890D01*
X54572339Y-9647339D01*
X54544890Y-9669866D01*
X54513569Y-9686607D01*
X54479591Y-9696915D01*
X54438110Y-9701000D01*
X53761890Y-9701000D01*
X53720409Y-9696915D01*
X53686431Y-9686607D01*
X53655110Y-9669866D01*
X53627661Y-9647339D01*
X53605134Y-9619890D01*
X53588393Y-9588569D01*
X53578085Y-9554591D01*
X53574000Y-9513110D01*
X53574000Y-8911890D01*
X53578085Y-8870409D01*
X53588393Y-8836431D01*
X53605134Y-8805110D01*
X53627661Y-8777661D01*
X53655110Y-8755134D01*
X53686431Y-8738393D01*
X53720409Y-8728085D01*
X53761890Y-8724000D01*
X54438110Y-8724000D01*
X54479591Y-8728085D01*
G37*
G36*
X44401000Y-9701000D02*
G01*
X38599000Y-9701000D01*
X38599000Y-7999000D01*
X44401000Y-7999000D01*
X44401000Y-9701000D01*
G37*
G36*
X19379591Y-8728085D02*
G01*
X19413569Y-8738393D01*
X19444890Y-8755134D01*
X19472339Y-8777661D01*
X19494866Y-8805110D01*
X19511607Y-8836431D01*
X19521915Y-8870409D01*
X19526000Y-8911890D01*
X19526000Y-9513110D01*
X19521915Y-9554591D01*
X19511607Y-9588569D01*
X19494866Y-9619890D01*
X19472339Y-9647339D01*
X19444890Y-9669866D01*
X19413569Y-9686607D01*
X19379591Y-9696915D01*
X19338110Y-9701000D01*
X18661890Y-9701000D01*
X18620409Y-9696915D01*
X18586431Y-9686607D01*
X18555110Y-9669866D01*
X18527661Y-9647339D01*
X18505134Y-9619890D01*
X18488393Y-9588569D01*
X18478085Y-9554591D01*
X18474000Y-9513110D01*
X18474000Y-8911890D01*
X18478085Y-8870409D01*
X18488393Y-8836431D01*
X18505134Y-8805110D01*
X18527661Y-8777661D01*
X18555110Y-8755134D01*
X18586431Y-8738393D01*
X18620409Y-8728085D01*
X18661890Y-8724000D01*
X19338110Y-8724000D01*
X19379591Y-8728085D01*
G37*
G36*
X46179591Y-8728085D02*
G01*
X46213569Y-8738393D01*
X46244890Y-8755134D01*
X46272339Y-8777661D01*
X46294866Y-8805110D01*
X46311607Y-8836431D01*
X46321915Y-8870409D01*
X46326000Y-8911890D01*
X46326000Y-9513110D01*
X46321915Y-9554591D01*
X46311607Y-9588569D01*
X46294866Y-9619890D01*
X46272339Y-9647339D01*
X46244890Y-9669866D01*
X46213569Y-9686607D01*
X46179591Y-9696915D01*
X46138110Y-9701000D01*
X45461890Y-9701000D01*
X45420409Y-9696915D01*
X45386431Y-9686607D01*
X45355110Y-9669866D01*
X45327661Y-9647339D01*
X45305134Y-9619890D01*
X45288393Y-9588569D01*
X45278085Y-9554591D01*
X45274000Y-9513110D01*
X45274000Y-8911890D01*
X45278085Y-8870409D01*
X45288393Y-8836431D01*
X45305134Y-8805110D01*
X45327661Y-8777661D01*
X45355110Y-8755134D01*
X45386431Y-8738393D01*
X45420409Y-8728085D01*
X45461890Y-8724000D01*
X46138110Y-8724000D01*
X46179591Y-8728085D01*
G37*
G36*
X48879591Y-8303085D02*
G01*
X48913569Y-8313393D01*
X48944890Y-8330134D01*
X48972339Y-8352661D01*
X48994866Y-8380110D01*
X49011607Y-8411431D01*
X49021915Y-8445409D01*
X49026000Y-8486890D01*
X49026000Y-9088110D01*
X49021915Y-9129591D01*
X49011607Y-9163569D01*
X48994866Y-9194890D01*
X48972339Y-9222339D01*
X48944890Y-9244866D01*
X48913569Y-9261607D01*
X48879591Y-9271915D01*
X48838110Y-9276000D01*
X48161890Y-9276000D01*
X48120409Y-9271915D01*
X48086431Y-9261607D01*
X48055110Y-9244866D01*
X48027661Y-9222339D01*
X48005134Y-9194890D01*
X47988393Y-9163569D01*
X47978085Y-9129591D01*
X47974000Y-9088110D01*
X47974000Y-8486890D01*
X47978085Y-8445409D01*
X47988393Y-8411431D01*
X48005134Y-8380110D01*
X48027661Y-8352661D01*
X48055110Y-8330134D01*
X48086431Y-8313393D01*
X48120409Y-8303085D01*
X48161890Y-8299000D01*
X48838110Y-8299000D01*
X48879591Y-8303085D01*
G37*
G36*
X35784468Y-7753565D02*
G01*
X35823138Y-7765296D01*
X35858777Y-7784346D01*
X35890017Y-7809983D01*
X35915654Y-7841223D01*
X35934704Y-7876862D01*
X35946435Y-7915532D01*
X35951000Y-7961888D01*
X35951000Y-9038112D01*
X35946435Y-9084468D01*
X35934704Y-9123138D01*
X35915654Y-9158777D01*
X35890017Y-9190017D01*
X35858777Y-9215654D01*
X35823138Y-9234704D01*
X35784468Y-9246435D01*
X35738112Y-9251000D01*
X35086888Y-9251000D01*
X35040532Y-9246435D01*
X35001862Y-9234704D01*
X34966223Y-9215654D01*
X34934983Y-9190017D01*
X34909346Y-9158777D01*
X34890296Y-9123138D01*
X34878565Y-9084468D01*
X34874000Y-9038112D01*
X34874000Y-7961888D01*
X34878565Y-7915532D01*
X34890296Y-7876862D01*
X34909346Y-7841223D01*
X34934983Y-7809983D01*
X34966223Y-7784346D01*
X35001862Y-7765296D01*
X35040532Y-7753565D01*
X35086888Y-7749000D01*
X35738112Y-7749000D01*
X35784468Y-7753565D01*
G37*
G36*
X8984468Y-7753565D02*
G01*
X9023138Y-7765296D01*
X9058777Y-7784346D01*
X9090017Y-7809983D01*
X9115654Y-7841223D01*
X9134704Y-7876862D01*
X9146435Y-7915532D01*
X9151000Y-7961888D01*
X9151000Y-9038112D01*
X9146435Y-9084468D01*
X9134704Y-9123138D01*
X9115654Y-9158777D01*
X9090017Y-9190017D01*
X9058777Y-9215654D01*
X9023138Y-9234704D01*
X8984468Y-9246435D01*
X8938112Y-9251000D01*
X8286888Y-9251000D01*
X8240532Y-9246435D01*
X8201862Y-9234704D01*
X8166223Y-9215654D01*
X8134983Y-9190017D01*
X8109346Y-9158777D01*
X8090296Y-9123138D01*
X8078565Y-9084468D01*
X8074000Y-9038112D01*
X8074000Y-7961888D01*
X8078565Y-7915532D01*
X8090296Y-7876862D01*
X8109346Y-7841223D01*
X8134983Y-7809983D01*
X8166223Y-7784346D01*
X8201862Y-7765296D01*
X8240532Y-7753565D01*
X8286888Y-7749000D01*
X8938112Y-7749000D01*
X8984468Y-7753565D01*
G37*
G36*
X37659468Y-7753565D02*
G01*
X37698138Y-7765296D01*
X37733777Y-7784346D01*
X37765017Y-7809983D01*
X37790654Y-7841223D01*
X37809704Y-7876862D01*
X37821435Y-7915532D01*
X37826000Y-7961888D01*
X37826000Y-9038112D01*
X37821435Y-9084468D01*
X37809704Y-9123138D01*
X37790654Y-9158777D01*
X37765017Y-9190017D01*
X37733777Y-9215654D01*
X37698138Y-9234704D01*
X37659468Y-9246435D01*
X37613112Y-9251000D01*
X36961888Y-9251000D01*
X36915532Y-9246435D01*
X36876862Y-9234704D01*
X36841223Y-9215654D01*
X36809983Y-9190017D01*
X36784346Y-9158777D01*
X36765296Y-9123138D01*
X36753565Y-9084468D01*
X36749000Y-9038112D01*
X36749000Y-7961888D01*
X36753565Y-7915532D01*
X36765296Y-7876862D01*
X36784346Y-7841223D01*
X36809983Y-7809983D01*
X36841223Y-7784346D01*
X36876862Y-7765296D01*
X36915532Y-7753565D01*
X36961888Y-7749000D01*
X37613112Y-7749000D01*
X37659468Y-7753565D01*
G37*
G36*
X10859468Y-7753565D02*
G01*
X10898138Y-7765296D01*
X10933777Y-7784346D01*
X10965017Y-7809983D01*
X10990654Y-7841223D01*
X11009704Y-7876862D01*
X11021435Y-7915532D01*
X11026000Y-7961888D01*
X11026000Y-9038112D01*
X11021435Y-9084468D01*
X11009704Y-9123138D01*
X10990654Y-9158777D01*
X10965017Y-9190017D01*
X10933777Y-9215654D01*
X10898138Y-9234704D01*
X10859468Y-9246435D01*
X10813112Y-9251000D01*
X10161888Y-9251000D01*
X10115532Y-9246435D01*
X10076862Y-9234704D01*
X10041223Y-9215654D01*
X10009983Y-9190017D01*
X9984346Y-9158777D01*
X9965296Y-9123138D01*
X9953565Y-9084468D01*
X9949000Y-9038112D01*
X9949000Y-7961888D01*
X9953565Y-7915532D01*
X9965296Y-7876862D01*
X9984346Y-7841223D01*
X10009983Y-7809983D01*
X10041223Y-7784346D01*
X10076862Y-7765296D01*
X10115532Y-7753565D01*
X10161888Y-7749000D01*
X10813112Y-7749000D01*
X10859468Y-7753565D01*
G37*
G36*
X22384468Y-7753565D02*
G01*
X22423138Y-7765296D01*
X22458777Y-7784346D01*
X22490017Y-7809983D01*
X22515654Y-7841223D01*
X22534704Y-7876862D01*
X22546435Y-7915532D01*
X22551000Y-7961888D01*
X22551000Y-9038112D01*
X22546435Y-9084468D01*
X22534704Y-9123138D01*
X22515654Y-9158777D01*
X22490017Y-9190017D01*
X22458777Y-9215654D01*
X22423138Y-9234704D01*
X22384468Y-9246435D01*
X22338112Y-9251000D01*
X21686888Y-9251000D01*
X21640532Y-9246435D01*
X21601862Y-9234704D01*
X21566223Y-9215654D01*
X21534983Y-9190017D01*
X21509346Y-9158777D01*
X21490296Y-9123138D01*
X21478565Y-9084468D01*
X21474000Y-9038112D01*
X21474000Y-7961888D01*
X21478565Y-7915532D01*
X21490296Y-7876862D01*
X21509346Y-7841223D01*
X21534983Y-7809983D01*
X21566223Y-7784346D01*
X21601862Y-7765296D01*
X21640532Y-7753565D01*
X21686888Y-7749000D01*
X22338112Y-7749000D01*
X22384468Y-7753565D01*
G37*
G36*
X24259468Y-7753565D02*
G01*
X24298138Y-7765296D01*
X24333777Y-7784346D01*
X24365017Y-7809983D01*
X24390654Y-7841223D01*
X24409704Y-7876862D01*
X24421435Y-7915532D01*
X24426000Y-7961888D01*
X24426000Y-9038112D01*
X24421435Y-9084468D01*
X24409704Y-9123138D01*
X24390654Y-9158777D01*
X24365017Y-9190017D01*
X24333777Y-9215654D01*
X24298138Y-9234704D01*
X24259468Y-9246435D01*
X24213112Y-9251000D01*
X23561888Y-9251000D01*
X23515532Y-9246435D01*
X23476862Y-9234704D01*
X23441223Y-9215654D01*
X23409983Y-9190017D01*
X23384346Y-9158777D01*
X23365296Y-9123138D01*
X23353565Y-9084468D01*
X23349000Y-9038112D01*
X23349000Y-7961888D01*
X23353565Y-7915532D01*
X23365296Y-7876862D01*
X23384346Y-7841223D01*
X23409983Y-7809983D01*
X23441223Y-7784346D01*
X23476862Y-7765296D01*
X23515532Y-7753565D01*
X23561888Y-7749000D01*
X24213112Y-7749000D01*
X24259468Y-7753565D01*
G37*
G36*
X52426000Y-8681000D02*
G01*
X49774000Y-8681000D01*
X49774000Y-7519000D01*
X52426000Y-7519000D01*
X52426000Y-8681000D01*
G37*
G36*
X48879591Y-6728085D02*
G01*
X48913569Y-6738393D01*
X48944890Y-6755134D01*
X48972339Y-6777661D01*
X48994866Y-6805110D01*
X49011607Y-6836431D01*
X49021915Y-6870409D01*
X49026000Y-6911890D01*
X49026000Y-7513110D01*
X49021915Y-7554591D01*
X49011607Y-7588569D01*
X48994866Y-7619890D01*
X48972339Y-7647339D01*
X48944890Y-7669866D01*
X48913569Y-7686607D01*
X48879591Y-7696915D01*
X48838110Y-7701000D01*
X48161890Y-7701000D01*
X48120409Y-7696915D01*
X48086431Y-7686607D01*
X48055110Y-7669866D01*
X48027661Y-7647339D01*
X48005134Y-7619890D01*
X47988393Y-7588569D01*
X47978085Y-7554591D01*
X47974000Y-7513110D01*
X47974000Y-6911890D01*
X47978085Y-6870409D01*
X47988393Y-6836431D01*
X48005134Y-6805110D01*
X48027661Y-6777661D01*
X48055110Y-6755134D01*
X48086431Y-6738393D01*
X48120409Y-6728085D01*
X48161890Y-6724000D01*
X48838110Y-6724000D01*
X48879591Y-6728085D01*
G37*
G36*
X35784468Y-5753565D02*
G01*
X35823138Y-5765296D01*
X35858777Y-5784346D01*
X35890017Y-5809983D01*
X35915654Y-5841223D01*
X35934704Y-5876862D01*
X35946435Y-5915532D01*
X35951000Y-5961888D01*
X35951000Y-7038112D01*
X35946435Y-7084468D01*
X35934704Y-7123138D01*
X35915654Y-7158777D01*
X35890017Y-7190017D01*
X35858777Y-7215654D01*
X35823138Y-7234704D01*
X35784468Y-7246435D01*
X35738112Y-7251000D01*
X35086888Y-7251000D01*
X35040532Y-7246435D01*
X35001862Y-7234704D01*
X34966223Y-7215654D01*
X34934983Y-7190017D01*
X34909346Y-7158777D01*
X34890296Y-7123138D01*
X34878565Y-7084468D01*
X34874000Y-7038112D01*
X34874000Y-5961888D01*
X34878565Y-5915532D01*
X34890296Y-5876862D01*
X34909346Y-5841223D01*
X34934983Y-5809983D01*
X34966223Y-5784346D01*
X35001862Y-5765296D01*
X35040532Y-5753565D01*
X35086888Y-5749000D01*
X35738112Y-5749000D01*
X35784468Y-5753565D01*
G37*
G36*
X37659468Y-5753565D02*
G01*
X37698138Y-5765296D01*
X37733777Y-5784346D01*
X37765017Y-5809983D01*
X37790654Y-5841223D01*
X37809704Y-5876862D01*
X37821435Y-5915532D01*
X37826000Y-5961888D01*
X37826000Y-7038112D01*
X37821435Y-7084468D01*
X37809704Y-7123138D01*
X37790654Y-7158777D01*
X37765017Y-7190017D01*
X37733777Y-7215654D01*
X37698138Y-7234704D01*
X37659468Y-7246435D01*
X37613112Y-7251000D01*
X36961888Y-7251000D01*
X36915532Y-7246435D01*
X36876862Y-7234704D01*
X36841223Y-7215654D01*
X36809983Y-7190017D01*
X36784346Y-7158777D01*
X36765296Y-7123138D01*
X36753565Y-7084468D01*
X36749000Y-7038112D01*
X36749000Y-5961888D01*
X36753565Y-5915532D01*
X36765296Y-5876862D01*
X36784346Y-5841223D01*
X36809983Y-5809983D01*
X36841223Y-5784346D01*
X36876862Y-5765296D01*
X36915532Y-5753565D01*
X36961888Y-5749000D01*
X37613112Y-5749000D01*
X37659468Y-5753565D01*
G37*
G36*
X24259468Y-5753565D02*
G01*
X24298138Y-5765296D01*
X24333777Y-5784346D01*
X24365017Y-5809983D01*
X24390654Y-5841223D01*
X24409704Y-5876862D01*
X24421435Y-5915532D01*
X24426000Y-5961888D01*
X24426000Y-7038112D01*
X24421435Y-7084468D01*
X24409704Y-7123138D01*
X24390654Y-7158777D01*
X24365017Y-7190017D01*
X24333777Y-7215654D01*
X24298138Y-7234704D01*
X24259468Y-7246435D01*
X24213112Y-7251000D01*
X23561888Y-7251000D01*
X23515532Y-7246435D01*
X23476862Y-7234704D01*
X23441223Y-7215654D01*
X23409983Y-7190017D01*
X23384346Y-7158777D01*
X23365296Y-7123138D01*
X23353565Y-7084468D01*
X23349000Y-7038112D01*
X23349000Y-5961888D01*
X23353565Y-5915532D01*
X23365296Y-5876862D01*
X23384346Y-5841223D01*
X23409983Y-5809983D01*
X23441223Y-5784346D01*
X23476862Y-5765296D01*
X23515532Y-5753565D01*
X23561888Y-5749000D01*
X24213112Y-5749000D01*
X24259468Y-5753565D01*
G37*
G36*
X8984468Y-5753565D02*
G01*
X9023138Y-5765296D01*
X9058777Y-5784346D01*
X9090017Y-5809983D01*
X9115654Y-5841223D01*
X9134704Y-5876862D01*
X9146435Y-5915532D01*
X9151000Y-5961888D01*
X9151000Y-7038112D01*
X9146435Y-7084468D01*
X9134704Y-7123138D01*
X9115654Y-7158777D01*
X9090017Y-7190017D01*
X9058777Y-7215654D01*
X9023138Y-7234704D01*
X8984468Y-7246435D01*
X8938112Y-7251000D01*
X8286888Y-7251000D01*
X8240532Y-7246435D01*
X8201862Y-7234704D01*
X8166223Y-7215654D01*
X8134983Y-7190017D01*
X8109346Y-7158777D01*
X8090296Y-7123138D01*
X8078565Y-7084468D01*
X8074000Y-7038112D01*
X8074000Y-5961888D01*
X8078565Y-5915532D01*
X8090296Y-5876862D01*
X8109346Y-5841223D01*
X8134983Y-5809983D01*
X8166223Y-5784346D01*
X8201862Y-5765296D01*
X8240532Y-5753565D01*
X8286888Y-5749000D01*
X8938112Y-5749000D01*
X8984468Y-5753565D01*
G37*
G36*
X10859468Y-5753565D02*
G01*
X10898138Y-5765296D01*
X10933777Y-5784346D01*
X10965017Y-5809983D01*
X10990654Y-5841223D01*
X11009704Y-5876862D01*
X11021435Y-5915532D01*
X11026000Y-5961888D01*
X11026000Y-7038112D01*
X11021435Y-7084468D01*
X11009704Y-7123138D01*
X10990654Y-7158777D01*
X10965017Y-7190017D01*
X10933777Y-7215654D01*
X10898138Y-7234704D01*
X10859468Y-7246435D01*
X10813112Y-7251000D01*
X10161888Y-7251000D01*
X10115532Y-7246435D01*
X10076862Y-7234704D01*
X10041223Y-7215654D01*
X10009983Y-7190017D01*
X9984346Y-7158777D01*
X9965296Y-7123138D01*
X9953565Y-7084468D01*
X9949000Y-7038112D01*
X9949000Y-5961888D01*
X9953565Y-5915532D01*
X9965296Y-5876862D01*
X9984346Y-5841223D01*
X10009983Y-5809983D01*
X10041223Y-5784346D01*
X10076862Y-5765296D01*
X10115532Y-5753565D01*
X10161888Y-5749000D01*
X10813112Y-5749000D01*
X10859468Y-5753565D01*
G37*
G36*
X22384468Y-5753565D02*
G01*
X22423138Y-5765296D01*
X22458777Y-5784346D01*
X22490017Y-5809983D01*
X22515654Y-5841223D01*
X22534704Y-5876862D01*
X22546435Y-5915532D01*
X22551000Y-5961888D01*
X22551000Y-7038112D01*
X22546435Y-7084468D01*
X22534704Y-7123138D01*
X22515654Y-7158777D01*
X22490017Y-7190017D01*
X22458777Y-7215654D01*
X22423138Y-7234704D01*
X22384468Y-7246435D01*
X22338112Y-7251000D01*
X21686888Y-7251000D01*
X21640532Y-7246435D01*
X21601862Y-7234704D01*
X21566223Y-7215654D01*
X21534983Y-7190017D01*
X21509346Y-7158777D01*
X21490296Y-7123138D01*
X21478565Y-7084468D01*
X21474000Y-7038112D01*
X21474000Y-5961888D01*
X21478565Y-5915532D01*
X21490296Y-5876862D01*
X21509346Y-5841223D01*
X21534983Y-5809983D01*
X21566223Y-5784346D01*
X21601862Y-5765296D01*
X21640532Y-5753565D01*
X21686888Y-5749000D01*
X22338112Y-5749000D01*
X22384468Y-5753565D01*
G37*
G36*
X52229591Y-5878085D02*
G01*
X52263569Y-5888393D01*
X52294890Y-5905134D01*
X52322339Y-5927661D01*
X52344866Y-5955110D01*
X52361607Y-5986431D01*
X52371915Y-6020409D01*
X52376000Y-6061890D01*
X52376000Y-6738110D01*
X52371915Y-6779591D01*
X52361607Y-6813569D01*
X52344866Y-6844890D01*
X52322339Y-6872339D01*
X52294890Y-6894866D01*
X52263569Y-6911607D01*
X52229591Y-6921915D01*
X52188110Y-6926000D01*
X51586890Y-6926000D01*
X51545409Y-6921915D01*
X51511431Y-6911607D01*
X51480110Y-6894866D01*
X51452661Y-6872339D01*
X51430134Y-6844890D01*
X51413393Y-6813569D01*
X51403085Y-6779591D01*
X51399000Y-6738110D01*
X51399000Y-6061890D01*
X51403085Y-6020409D01*
X51413393Y-5986431D01*
X51430134Y-5955110D01*
X51452661Y-5927661D01*
X51480110Y-5905134D01*
X51511431Y-5888393D01*
X51545409Y-5878085D01*
X51586890Y-5874000D01*
X52188110Y-5874000D01*
X52229591Y-5878085D01*
G37*
G36*
X50654591Y-5878085D02*
G01*
X50688569Y-5888393D01*
X50719890Y-5905134D01*
X50747339Y-5927661D01*
X50769866Y-5955110D01*
X50786607Y-5986431D01*
X50796915Y-6020409D01*
X50801000Y-6061890D01*
X50801000Y-6738110D01*
X50796915Y-6779591D01*
X50786607Y-6813569D01*
X50769866Y-6844890D01*
X50747339Y-6872339D01*
X50719890Y-6894866D01*
X50688569Y-6911607D01*
X50654591Y-6921915D01*
X50613110Y-6926000D01*
X50011890Y-6926000D01*
X49970409Y-6921915D01*
X49936431Y-6911607D01*
X49905110Y-6894866D01*
X49877661Y-6872339D01*
X49855134Y-6844890D01*
X49838393Y-6813569D01*
X49828085Y-6779591D01*
X49824000Y-6738110D01*
X49824000Y-6061890D01*
X49828085Y-6020409D01*
X49838393Y-5986431D01*
X49855134Y-5955110D01*
X49877661Y-5927661D01*
X49905110Y-5905134D01*
X49936431Y-5888393D01*
X49970409Y-5878085D01*
X50011890Y-5874000D01*
X50613110Y-5874000D01*
X50654591Y-5878085D01*
G37*
G36*
X50534468Y-3753565D02*
G01*
X50573138Y-3765296D01*
X50608777Y-3784346D01*
X50640017Y-3809983D01*
X50665654Y-3841223D01*
X50684704Y-3876862D01*
X50696435Y-3915532D01*
X50701000Y-3961888D01*
X50701000Y-5038112D01*
X50696435Y-5084468D01*
X50684704Y-5123138D01*
X50665654Y-5158777D01*
X50640017Y-5190017D01*
X50608777Y-5215654D01*
X50573138Y-5234704D01*
X50534468Y-5246435D01*
X50488112Y-5251000D01*
X49836888Y-5251000D01*
X49790532Y-5246435D01*
X49751862Y-5234704D01*
X49716223Y-5215654D01*
X49684983Y-5190017D01*
X49659346Y-5158777D01*
X49640296Y-5123138D01*
X49628565Y-5084468D01*
X49624000Y-5038112D01*
X49624000Y-3961888D01*
X49628565Y-3915532D01*
X49640296Y-3876862D01*
X49659346Y-3841223D01*
X49684983Y-3809983D01*
X49716223Y-3784346D01*
X49751862Y-3765296D01*
X49790532Y-3753565D01*
X49836888Y-3749000D01*
X50488112Y-3749000D01*
X50534468Y-3753565D01*
G37*
G36*
X52409468Y-3753565D02*
G01*
X52448138Y-3765296D01*
X52483777Y-3784346D01*
X52515017Y-3809983D01*
X52540654Y-3841223D01*
X52559704Y-3876862D01*
X52571435Y-3915532D01*
X52576000Y-3961888D01*
X52576000Y-5038112D01*
X52571435Y-5084468D01*
X52559704Y-5123138D01*
X52540654Y-5158777D01*
X52515017Y-5190017D01*
X52483777Y-5215654D01*
X52448138Y-5234704D01*
X52409468Y-5246435D01*
X52363112Y-5251000D01*
X51711888Y-5251000D01*
X51665532Y-5246435D01*
X51626862Y-5234704D01*
X51591223Y-5215654D01*
X51559983Y-5190017D01*
X51534346Y-5158777D01*
X51515296Y-5123138D01*
X51503565Y-5084468D01*
X51499000Y-5038112D01*
X51499000Y-3961888D01*
X51503565Y-3915532D01*
X51515296Y-3876862D01*
X51534346Y-3841223D01*
X51559983Y-3809983D01*
X51591223Y-3784346D01*
X51626862Y-3765296D01*
X51665532Y-3753565D01*
X51711888Y-3749000D01*
X52363112Y-3749000D01*
X52409468Y-3753565D01*
G37*
G36*
X37659468Y-3753565D02*
G01*
X37698138Y-3765296D01*
X37733777Y-3784346D01*
X37765017Y-3809983D01*
X37790654Y-3841223D01*
X37809704Y-3876862D01*
X37821435Y-3915532D01*
X37826000Y-3961888D01*
X37826000Y-5038112D01*
X37821435Y-5084468D01*
X37809704Y-5123138D01*
X37790654Y-5158777D01*
X37765017Y-5190017D01*
X37733777Y-5215654D01*
X37698138Y-5234704D01*
X37659468Y-5246435D01*
X37613112Y-5251000D01*
X36961888Y-5251000D01*
X36915532Y-5246435D01*
X36876862Y-5234704D01*
X36841223Y-5215654D01*
X36809983Y-5190017D01*
X36784346Y-5158777D01*
X36765296Y-5123138D01*
X36753565Y-5084468D01*
X36749000Y-5038112D01*
X36749000Y-3961888D01*
X36753565Y-3915532D01*
X36765296Y-3876862D01*
X36784346Y-3841223D01*
X36809983Y-3809983D01*
X36841223Y-3784346D01*
X36876862Y-3765296D01*
X36915532Y-3753565D01*
X36961888Y-3749000D01*
X37613112Y-3749000D01*
X37659468Y-3753565D01*
G37*
G36*
X35784468Y-3753565D02*
G01*
X35823138Y-3765296D01*
X35858777Y-3784346D01*
X35890017Y-3809983D01*
X35915654Y-3841223D01*
X35934704Y-3876862D01*
X35946435Y-3915532D01*
X35951000Y-3961888D01*
X35951000Y-5038112D01*
X35946435Y-5084468D01*
X35934704Y-5123138D01*
X35915654Y-5158777D01*
X35890017Y-5190017D01*
X35858777Y-5215654D01*
X35823138Y-5234704D01*
X35784468Y-5246435D01*
X35738112Y-5251000D01*
X35086888Y-5251000D01*
X35040532Y-5246435D01*
X35001862Y-5234704D01*
X34966223Y-5215654D01*
X34934983Y-5190017D01*
X34909346Y-5158777D01*
X34890296Y-5123138D01*
X34878565Y-5084468D01*
X34874000Y-5038112D01*
X34874000Y-3961888D01*
X34878565Y-3915532D01*
X34890296Y-3876862D01*
X34909346Y-3841223D01*
X34934983Y-3809983D01*
X34966223Y-3784346D01*
X35001862Y-3765296D01*
X35040532Y-3753565D01*
X35086888Y-3749000D01*
X35738112Y-3749000D01*
X35784468Y-3753565D01*
G37*
G36*
X8984468Y-3753565D02*
G01*
X9023138Y-3765296D01*
X9058777Y-3784346D01*
X9090017Y-3809983D01*
X9115654Y-3841223D01*
X9134704Y-3876862D01*
X9146435Y-3915532D01*
X9151000Y-3961888D01*
X9151000Y-5038112D01*
X9146435Y-5084468D01*
X9134704Y-5123138D01*
X9115654Y-5158777D01*
X9090017Y-5190017D01*
X9058777Y-5215654D01*
X9023138Y-5234704D01*
X8984468Y-5246435D01*
X8938112Y-5251000D01*
X8286888Y-5251000D01*
X8240532Y-5246435D01*
X8201862Y-5234704D01*
X8166223Y-5215654D01*
X8134983Y-5190017D01*
X8109346Y-5158777D01*
X8090296Y-5123138D01*
X8078565Y-5084468D01*
X8074000Y-5038112D01*
X8074000Y-3961888D01*
X8078565Y-3915532D01*
X8090296Y-3876862D01*
X8109346Y-3841223D01*
X8134983Y-3809983D01*
X8166223Y-3784346D01*
X8201862Y-3765296D01*
X8240532Y-3753565D01*
X8286888Y-3749000D01*
X8938112Y-3749000D01*
X8984468Y-3753565D01*
G37*
G36*
X22384468Y-3753565D02*
G01*
X22423138Y-3765296D01*
X22458777Y-3784346D01*
X22490017Y-3809983D01*
X22515654Y-3841223D01*
X22534704Y-3876862D01*
X22546435Y-3915532D01*
X22551000Y-3961888D01*
X22551000Y-5038112D01*
X22546435Y-5084468D01*
X22534704Y-5123138D01*
X22515654Y-5158777D01*
X22490017Y-5190017D01*
X22458777Y-5215654D01*
X22423138Y-5234704D01*
X22384468Y-5246435D01*
X22338112Y-5251000D01*
X21686888Y-5251000D01*
X21640532Y-5246435D01*
X21601862Y-5234704D01*
X21566223Y-5215654D01*
X21534983Y-5190017D01*
X21509346Y-5158777D01*
X21490296Y-5123138D01*
X21478565Y-5084468D01*
X21474000Y-5038112D01*
X21474000Y-3961888D01*
X21478565Y-3915532D01*
X21490296Y-3876862D01*
X21509346Y-3841223D01*
X21534983Y-3809983D01*
X21566223Y-3784346D01*
X21601862Y-3765296D01*
X21640532Y-3753565D01*
X21686888Y-3749000D01*
X22338112Y-3749000D01*
X22384468Y-3753565D01*
G37*
G36*
X24259468Y-3753565D02*
G01*
X24298138Y-3765296D01*
X24333777Y-3784346D01*
X24365017Y-3809983D01*
X24390654Y-3841223D01*
X24409704Y-3876862D01*
X24421435Y-3915532D01*
X24426000Y-3961888D01*
X24426000Y-5038112D01*
X24421435Y-5084468D01*
X24409704Y-5123138D01*
X24390654Y-5158777D01*
X24365017Y-5190017D01*
X24333777Y-5215654D01*
X24298138Y-5234704D01*
X24259468Y-5246435D01*
X24213112Y-5251000D01*
X23561888Y-5251000D01*
X23515532Y-5246435D01*
X23476862Y-5234704D01*
X23441223Y-5215654D01*
X23409983Y-5190017D01*
X23384346Y-5158777D01*
X23365296Y-5123138D01*
X23353565Y-5084468D01*
X23349000Y-5038112D01*
X23349000Y-3961888D01*
X23353565Y-3915532D01*
X23365296Y-3876862D01*
X23384346Y-3841223D01*
X23409983Y-3809983D01*
X23441223Y-3784346D01*
X23476862Y-3765296D01*
X23515532Y-3753565D01*
X23561888Y-3749000D01*
X24213112Y-3749000D01*
X24259468Y-3753565D01*
G37*
G36*
X10859468Y-3753565D02*
G01*
X10898138Y-3765296D01*
X10933777Y-3784346D01*
X10965017Y-3809983D01*
X10990654Y-3841223D01*
X11009704Y-3876862D01*
X11021435Y-3915532D01*
X11026000Y-3961888D01*
X11026000Y-5038112D01*
X11021435Y-5084468D01*
X11009704Y-5123138D01*
X10990654Y-5158777D01*
X10965017Y-5190017D01*
X10933777Y-5215654D01*
X10898138Y-5234704D01*
X10859468Y-5246435D01*
X10813112Y-5251000D01*
X10161888Y-5251000D01*
X10115532Y-5246435D01*
X10076862Y-5234704D01*
X10041223Y-5215654D01*
X10009983Y-5190017D01*
X9984346Y-5158777D01*
X9965296Y-5123138D01*
X9953565Y-5084468D01*
X9949000Y-5038112D01*
X9949000Y-3961888D01*
X9953565Y-3915532D01*
X9965296Y-3876862D01*
X9984346Y-3841223D01*
X10009983Y-3809983D01*
X10041223Y-3784346D01*
X10076862Y-3765296D01*
X10115532Y-3753565D01*
X10161888Y-3749000D01*
X10813112Y-3749000D01*
X10859468Y-3753565D01*
G37*
G36*
X5868213Y-4156249D02*
G01*
X5962652Y-4184897D01*
X6049687Y-4231418D01*
X6125975Y-4294025D01*
X6188582Y-4370313D01*
X6235103Y-4457348D01*
X6263751Y-4551787D01*
X6273424Y-4650000D01*
X6263751Y-4748213D01*
X6235103Y-4842652D01*
X6188582Y-4929687D01*
X6125975Y-5005975D01*
X6049687Y-5068582D01*
X5962652Y-5115103D01*
X5868213Y-5143751D01*
X5794612Y-5151000D01*
X4245388Y-5151000D01*
X4171787Y-5143751D01*
X4077348Y-5115103D01*
X3990313Y-5068582D01*
X3914025Y-5005975D01*
X3851418Y-4929687D01*
X3804897Y-4842652D01*
X3776249Y-4748213D01*
X3766576Y-4650000D01*
X3776249Y-4551787D01*
X3804897Y-4457348D01*
X3851418Y-4370313D01*
X3914025Y-4294025D01*
X3990313Y-4231418D01*
X4077348Y-4184897D01*
X4171787Y-4156249D01*
X4245388Y-4149000D01*
X5794612Y-4149000D01*
X5868213Y-4156249D01*
G37*
G36*
X2138213Y-4156249D02*
G01*
X2232652Y-4184897D01*
X2319687Y-4231418D01*
X2395975Y-4294025D01*
X2458582Y-4370313D01*
X2505103Y-4457348D01*
X2533751Y-4551787D01*
X2543424Y-4650000D01*
X2533751Y-4748213D01*
X2505103Y-4842652D01*
X2458582Y-4929687D01*
X2395975Y-5005975D01*
X2319687Y-5068582D01*
X2232652Y-5115103D01*
X2138213Y-5143751D01*
X2064612Y-5151000D01*
X1215388Y-5151000D01*
X1141787Y-5143751D01*
X1047348Y-5115103D01*
X960313Y-5068582D01*
X884025Y-5005975D01*
X821418Y-4929687D01*
X774897Y-4842652D01*
X746249Y-4748213D01*
X736576Y-4650000D01*
X746249Y-4551787D01*
X774897Y-4457348D01*
X821418Y-4370313D01*
X884025Y-4294025D01*
X960313Y-4231418D01*
X1047348Y-4184897D01*
X1141787Y-4156249D01*
X1215388Y-4149000D01*
X2064612Y-4149000D01*
X2138213Y-4156249D01*
G37*
G36*
X31001000Y-5001000D02*
G01*
X25199000Y-5001000D01*
X25199000Y-3299000D01*
X31001000Y-3299000D01*
X31001000Y-5001000D01*
G37*
G36*
X44401000Y-5001000D02*
G01*
X38599000Y-5001000D01*
X38599000Y-3299000D01*
X44401000Y-3299000D01*
X44401000Y-5001000D01*
G37*
G36*
X17601000Y-5001000D02*
G01*
X11799000Y-5001000D01*
X11799000Y-3299000D01*
X17601000Y-3299000D01*
X17601000Y-5001000D01*
G37*
G36*
X53751000Y-2551000D02*
G01*
X51649000Y-2551000D01*
X51649000Y-449000D01*
X53751000Y-449000D01*
X53751000Y-2551000D01*
G37*
G36*
X42551000Y-2551000D02*
G01*
X40449000Y-2551000D01*
X40449000Y-449000D01*
X42551000Y-449000D01*
X42551000Y-2551000D01*
G37*
G36*
X29151000Y-2551000D02*
G01*
X27049000Y-2551000D01*
X27049000Y-449000D01*
X29151000Y-449000D01*
X29151000Y-2551000D01*
G37*
G36*
X15751000Y-2551000D02*
G01*
X13649000Y-2551000D01*
X13649000Y-449000D01*
X15751000Y-449000D01*
X15751000Y-2551000D01*
G37*
G36*
X2551000Y-2551000D02*
G01*
X449000Y-2551000D01*
X449000Y-449000D01*
X2551000Y-449000D01*
X2551000Y-2551000D01*
G37*
M02*
