G04 #@! TF.GenerationSoftware,KiCad,Pcbnew,(5.1.5)-3*
G04 #@! TF.CreationDate,2020-02-24T19:45:47-05:00*
G04 #@! TF.ProjectId,MiniiPS,4d696e69-6950-4532-9e6b-696361645f70,rev?*
G04 #@! TF.SameCoordinates,PX7641700PY5a995c0*
G04 #@! TF.FileFunction,Legend,Top*
G04 #@! TF.FilePolarity,Positive*
%FSLAX46Y46*%
G04 Gerber Fmt 4.6, Leading zero omitted, Abs format (unit mm)*
G04 Created by KiCad (PCBNEW (5.1.5)-3) date 2020-02-24 19:45:47*
%MOMM*%
%LPD*%
G04 APERTURE LIST*
%ADD10C,0.150000*%
%ADD11C,0.120000*%
G04 APERTURE END LIST*
D10*
X44738095Y-15952380D02*
X44261904Y-15952380D01*
X44214285Y-16428571D01*
X44261904Y-16380952D01*
X44357142Y-16333333D01*
X44595238Y-16333333D01*
X44690476Y-16380952D01*
X44738095Y-16428571D01*
X44785714Y-16523809D01*
X44785714Y-16761904D01*
X44738095Y-16857142D01*
X44690476Y-16904761D01*
X44595238Y-16952380D01*
X44357142Y-16952380D01*
X44261904Y-16904761D01*
X44214285Y-16857142D01*
X45071428Y-15952380D02*
X45404761Y-16952380D01*
X45738095Y-15952380D01*
X46833333Y-16952380D02*
X46833333Y-15952380D01*
X47309523Y-16285714D02*
X47309523Y-16952380D01*
X47309523Y-16380952D02*
X47357142Y-16333333D01*
X47452380Y-16285714D01*
X47595238Y-16285714D01*
X47690476Y-16333333D01*
X47738095Y-16428571D01*
X47738095Y-16952380D01*
X3738095Y-15952380D02*
X3261904Y-15952380D01*
X3214285Y-16428571D01*
X3261904Y-16380952D01*
X3357142Y-16333333D01*
X3595238Y-16333333D01*
X3690476Y-16380952D01*
X3738095Y-16428571D01*
X3785714Y-16523809D01*
X3785714Y-16761904D01*
X3738095Y-16857142D01*
X3690476Y-16904761D01*
X3595238Y-16952380D01*
X3357142Y-16952380D01*
X3261904Y-16904761D01*
X3214285Y-16857142D01*
X4071428Y-15952380D02*
X4404761Y-16952380D01*
X4738095Y-15952380D01*
X5833333Y-16952380D02*
X5833333Y-15952380D01*
X6309523Y-16285714D02*
X6309523Y-16952380D01*
X6309523Y-16380952D02*
X6357142Y-16333333D01*
X6452380Y-16285714D01*
X6595238Y-16285714D01*
X6690476Y-16333333D01*
X6738095Y-16428571D01*
X6738095Y-16952380D01*
X50107261Y-377380D02*
X49631071Y-377380D01*
X49583452Y-853571D01*
X49631071Y-805952D01*
X49726309Y-758333D01*
X49964404Y-758333D01*
X50059642Y-805952D01*
X50107261Y-853571D01*
X50154880Y-948809D01*
X50154880Y-1186904D01*
X50107261Y-1282142D01*
X50059642Y-1329761D01*
X49964404Y-1377380D01*
X49726309Y-1377380D01*
X49631071Y-1329761D01*
X49583452Y-1282142D01*
X50440595Y-377380D02*
X50773928Y-1377380D01*
X51107261Y-377380D01*
X49107261Y-2027380D02*
X49297738Y-2027380D01*
X49392976Y-2075000D01*
X49488214Y-2170238D01*
X49535833Y-2360714D01*
X49535833Y-2694047D01*
X49488214Y-2884523D01*
X49392976Y-2979761D01*
X49297738Y-3027380D01*
X49107261Y-3027380D01*
X49012023Y-2979761D01*
X48916785Y-2884523D01*
X48869166Y-2694047D01*
X48869166Y-2360714D01*
X48916785Y-2170238D01*
X49012023Y-2075000D01*
X49107261Y-2027380D01*
X50392976Y-2360714D02*
X50392976Y-3027380D01*
X49964404Y-2360714D02*
X49964404Y-2884523D01*
X50012023Y-2979761D01*
X50107261Y-3027380D01*
X50250119Y-3027380D01*
X50345357Y-2979761D01*
X50392976Y-2932142D01*
X50726309Y-2360714D02*
X51107261Y-2360714D01*
X50869166Y-2027380D02*
X50869166Y-2884523D01*
X50916785Y-2979761D01*
X51012023Y-3027380D01*
X51107261Y-3027380D01*
D11*
X16700000Y-11390000D02*
X14250000Y-11390000D01*
X14900000Y-14610000D02*
X16700000Y-14610000D01*
X30100000Y-11390000D02*
X27650000Y-11390000D01*
X28300000Y-14610000D02*
X30100000Y-14610000D01*
X41700000Y-14610000D02*
X43500000Y-14610000D01*
X43500000Y-11390000D02*
X41050000Y-11390000D01*
X13500000Y-2700000D02*
X13500000Y-300000D01*
X15900000Y-2700000D02*
X13500000Y-2700000D01*
X15900000Y-300000D02*
X15900000Y-2700000D01*
X13500000Y-300000D02*
X15900000Y-300000D01*
X300000Y-17700000D02*
X300000Y-15300000D01*
X2700000Y-17700000D02*
X300000Y-17700000D01*
X2700000Y-15300000D02*
X2700000Y-17700000D01*
X300000Y-15300000D02*
X2700000Y-15300000D01*
X3600000Y-4380000D02*
X2700000Y-4380000D01*
X3600000Y-13570000D02*
X2700000Y-13570000D01*
X0Y-4380000D02*
X-2730000Y-4380000D01*
X0Y-13570000D02*
X-2730000Y-13570000D01*
X6680000Y-4500000D02*
X6680000Y-13450000D01*
X-2730000Y-4380000D02*
X-2730000Y-13570000D01*
X47990000Y-7837221D02*
X47990000Y-8162779D01*
X49010000Y-7837221D02*
X49010000Y-8162779D01*
X53590000Y-10162779D02*
X53590000Y-9837221D01*
X54610000Y-10162779D02*
X54610000Y-9837221D01*
X51500000Y-2700000D02*
X51500000Y-300000D01*
X53900000Y-2700000D02*
X51500000Y-2700000D01*
X53900000Y-300000D02*
X53900000Y-2700000D01*
X51500000Y-300000D02*
X53900000Y-300000D01*
X300000Y-2700000D02*
X300000Y-300000D01*
X2700000Y-2700000D02*
X300000Y-2700000D01*
X2700000Y-300000D02*
X2700000Y-2700000D01*
X300000Y-300000D02*
X2700000Y-300000D01*
X48500000Y-17700000D02*
X48500000Y-15300000D01*
X50900000Y-17700000D02*
X48500000Y-17700000D01*
X50900000Y-15300000D02*
X50900000Y-17700000D01*
X48500000Y-15300000D02*
X50900000Y-15300000D01*
X26900000Y-2700000D02*
X26900000Y-300000D01*
X29300000Y-2700000D02*
X26900000Y-2700000D01*
X29300000Y-300000D02*
X29300000Y-2700000D01*
X26900000Y-300000D02*
X29300000Y-300000D01*
X40300000Y-2700000D02*
X40300000Y-300000D01*
X42700000Y-2700000D02*
X40300000Y-2700000D01*
X42700000Y-300000D02*
X42700000Y-2700000D01*
X40300000Y-300000D02*
X42700000Y-300000D01*
X32437221Y-14310000D02*
X32762779Y-14310000D01*
X32437221Y-13290000D02*
X32762779Y-13290000D01*
X23208578Y-5210000D02*
X22691422Y-5210000D01*
X23208578Y-3790000D02*
X22691422Y-3790000D01*
X36608578Y-5210000D02*
X36091422Y-5210000D01*
X36608578Y-3790000D02*
X36091422Y-3790000D01*
X39210000Y-12837221D02*
X39210000Y-13162779D01*
X38190000Y-12837221D02*
X38190000Y-13162779D01*
X36608578Y-9210000D02*
X36091422Y-9210000D01*
X36608578Y-7790000D02*
X36091422Y-7790000D01*
X46162779Y-11790000D02*
X45837221Y-11790000D01*
X46162779Y-12810000D02*
X45837221Y-12810000D01*
X36290000Y-13258578D02*
X36290000Y-12741422D01*
X37710000Y-13258578D02*
X37710000Y-12741422D01*
X38400000Y-9600000D02*
X38400000Y-3400000D01*
X44600000Y-3400000D02*
X44600000Y-9600000D01*
X34390000Y-13258578D02*
X34390000Y-12741422D01*
X35810000Y-13258578D02*
X35810000Y-12741422D01*
X36608578Y-7210000D02*
X36091422Y-7210000D01*
X36608578Y-5790000D02*
X36091422Y-5790000D01*
X46310000Y-9837221D02*
X46310000Y-10162779D01*
X45290000Y-9837221D02*
X45290000Y-10162779D01*
X25000000Y-9600000D02*
X25000000Y-3400000D01*
X31200000Y-3400000D02*
X31200000Y-9600000D01*
X45837221Y-13290000D02*
X46162779Y-13290000D01*
X45837221Y-14310000D02*
X46162779Y-14310000D01*
X49490000Y-8300000D02*
X49490000Y-10100000D01*
X52710000Y-10100000D02*
X52710000Y-7650000D01*
X32762779Y-11790000D02*
X32437221Y-11790000D01*
X32762779Y-12810000D02*
X32437221Y-12810000D01*
X51358578Y-5210000D02*
X50841422Y-5210000D01*
X51358578Y-3790000D02*
X50841422Y-3790000D01*
X50937221Y-5890000D02*
X51262779Y-5890000D01*
X50937221Y-6910000D02*
X51262779Y-6910000D01*
X51037221Y-11390000D02*
X51362779Y-11390000D01*
X51037221Y-12410000D02*
X51362779Y-12410000D01*
X51458578Y-14410000D02*
X50941422Y-14410000D01*
X51458578Y-12990000D02*
X50941422Y-12990000D01*
X23208578Y-5790000D02*
X22691422Y-5790000D01*
X23208578Y-7210000D02*
X22691422Y-7210000D01*
X23208578Y-7790000D02*
X22691422Y-7790000D01*
X23208578Y-9210000D02*
X22691422Y-9210000D01*
X31890000Y-9837221D02*
X31890000Y-10162779D01*
X32910000Y-9837221D02*
X32910000Y-10162779D01*
X24790000Y-12837221D02*
X24790000Y-13162779D01*
X25810000Y-12837221D02*
X25810000Y-13162779D01*
X24310000Y-13258578D02*
X24310000Y-12741422D01*
X22890000Y-13258578D02*
X22890000Y-12741422D01*
X22410000Y-13258578D02*
X22410000Y-12741422D01*
X20990000Y-13258578D02*
X20990000Y-12741422D01*
X11390000Y-12837221D02*
X11390000Y-13162779D01*
X12410000Y-12837221D02*
X12410000Y-13162779D01*
X17800000Y-3400000D02*
X17800000Y-9600000D01*
X11600000Y-9600000D02*
X11600000Y-3400000D01*
X19037221Y-14310000D02*
X19362779Y-14310000D01*
X19037221Y-13290000D02*
X19362779Y-13290000D01*
X19362779Y-12810000D02*
X19037221Y-12810000D01*
X19362779Y-11790000D02*
X19037221Y-11790000D01*
X9808578Y-3790000D02*
X9291422Y-3790000D01*
X9808578Y-5210000D02*
X9291422Y-5210000D01*
X9808578Y-5790000D02*
X9291422Y-5790000D01*
X9808578Y-7210000D02*
X9291422Y-7210000D01*
X9808578Y-7790000D02*
X9291422Y-7790000D01*
X9808578Y-9210000D02*
X9291422Y-9210000D01*
X18490000Y-9837221D02*
X18490000Y-10162779D01*
X19510000Y-9837221D02*
X19510000Y-10162779D01*
X10910000Y-13258578D02*
X10910000Y-12741422D01*
X9490000Y-13258578D02*
X9490000Y-12741422D01*
X9010000Y-13258578D02*
X9010000Y-12741422D01*
X7590000Y-13258578D02*
X7590000Y-12741422D01*
D10*
X12154880Y-1952380D02*
X11583452Y-1952380D01*
X11869166Y-1952380D02*
X11869166Y-952380D01*
X11773928Y-1095238D01*
X11678690Y-1190476D01*
X11583452Y-1238095D01*
X12440595Y-952380D02*
X12773928Y-1952380D01*
X13107261Y-952380D01*
X3838095Y-1000000D02*
X3742857Y-952380D01*
X3600000Y-952380D01*
X3457142Y-1000000D01*
X3361904Y-1095238D01*
X3314285Y-1190476D01*
X3266666Y-1380952D01*
X3266666Y-1523809D01*
X3314285Y-1714285D01*
X3361904Y-1809523D01*
X3457142Y-1904761D01*
X3600000Y-1952380D01*
X3695238Y-1952380D01*
X3838095Y-1904761D01*
X3885714Y-1857142D01*
X3885714Y-1523809D01*
X3695238Y-1523809D01*
X4314285Y-1952380D02*
X4314285Y-952380D01*
X4885714Y-1952380D01*
X4885714Y-952380D01*
X5361904Y-1952380D02*
X5361904Y-952380D01*
X5600000Y-952380D01*
X5742857Y-1000000D01*
X5838095Y-1095238D01*
X5885714Y-1190476D01*
X5933333Y-1380952D01*
X5933333Y-1523809D01*
X5885714Y-1714285D01*
X5838095Y-1809523D01*
X5742857Y-1904761D01*
X5600000Y-1952380D01*
X5361904Y-1952380D01*
X23273928Y-1952380D02*
X22702500Y-1952380D01*
X22988214Y-1952380D02*
X22988214Y-952380D01*
X22892976Y-1095238D01*
X22797738Y-1190476D01*
X22702500Y-1238095D01*
X23702500Y-1857142D02*
X23750119Y-1904761D01*
X23702500Y-1952380D01*
X23654880Y-1904761D01*
X23702500Y-1857142D01*
X23702500Y-1952380D01*
X24702500Y-1952380D02*
X24131071Y-1952380D01*
X24416785Y-1952380D02*
X24416785Y-952380D01*
X24321547Y-1095238D01*
X24226309Y-1190476D01*
X24131071Y-1238095D01*
X25607261Y-952380D02*
X25131071Y-952380D01*
X25083452Y-1428571D01*
X25131071Y-1380952D01*
X25226309Y-1333333D01*
X25464404Y-1333333D01*
X25559642Y-1380952D01*
X25607261Y-1428571D01*
X25654880Y-1523809D01*
X25654880Y-1761904D01*
X25607261Y-1857142D01*
X25559642Y-1904761D01*
X25464404Y-1952380D01*
X25226309Y-1952380D01*
X25131071Y-1904761D01*
X25083452Y-1857142D01*
X25940595Y-952380D02*
X26273928Y-1952380D01*
X26607261Y-952380D01*
X36907261Y-952380D02*
X37526309Y-952380D01*
X37192976Y-1333333D01*
X37335833Y-1333333D01*
X37431071Y-1380952D01*
X37478690Y-1428571D01*
X37526309Y-1523809D01*
X37526309Y-1761904D01*
X37478690Y-1857142D01*
X37431071Y-1904761D01*
X37335833Y-1952380D01*
X37050119Y-1952380D01*
X36954880Y-1904761D01*
X36907261Y-1857142D01*
X37954880Y-1857142D02*
X38002500Y-1904761D01*
X37954880Y-1952380D01*
X37907261Y-1904761D01*
X37954880Y-1857142D01*
X37954880Y-1952380D01*
X38335833Y-952380D02*
X38954880Y-952380D01*
X38621547Y-1333333D01*
X38764404Y-1333333D01*
X38859642Y-1380952D01*
X38907261Y-1428571D01*
X38954880Y-1523809D01*
X38954880Y-1761904D01*
X38907261Y-1857142D01*
X38859642Y-1904761D01*
X38764404Y-1952380D01*
X38478690Y-1952380D01*
X38383452Y-1904761D01*
X38335833Y-1857142D01*
X39240595Y-952380D02*
X39573928Y-1952380D01*
X39907261Y-952380D01*
M02*
