G04 #@! TF.GenerationSoftware,KiCad,Pcbnew,(5.1.5)-3*
G04 #@! TF.CreationDate,2020-02-24T19:45:47-05:00*
G04 #@! TF.ProjectId,MiniiPS,4d696e69-6950-4532-9e6b-696361645f70,rev?*
G04 #@! TF.SameCoordinates,PX7641700PY5a995c0*
G04 #@! TF.FileFunction,Soldermask,Bot*
G04 #@! TF.FilePolarity,Negative*
%FSLAX46Y46*%
G04 Gerber Fmt 4.6, Leading zero omitted, Abs format (unit mm)*
G04 Created by KiCad (PCBNEW (5.1.5)-3) date 2020-02-24 19:45:47*
%MOMM*%
%LPD*%
G04 APERTURE LIST*
%ADD10C,0.100000*%
G04 APERTURE END LIST*
D10*
G36*
X50751000Y-17551000D02*
G01*
X48649000Y-17551000D01*
X48649000Y-15449000D01*
X50751000Y-15449000D01*
X50751000Y-17551000D01*
G37*
G36*
X5868213Y-12806249D02*
G01*
X5962652Y-12834897D01*
X6049687Y-12881418D01*
X6125975Y-12944025D01*
X6188582Y-13020313D01*
X6235103Y-13107348D01*
X6263751Y-13201787D01*
X6273424Y-13300000D01*
X6263751Y-13398213D01*
X6235103Y-13492652D01*
X6188582Y-13579687D01*
X6125975Y-13655975D01*
X6049687Y-13718582D01*
X5962652Y-13765103D01*
X5868213Y-13793751D01*
X5794612Y-13801000D01*
X4245388Y-13801000D01*
X4171787Y-13793751D01*
X4077348Y-13765103D01*
X3990313Y-13718582D01*
X3914025Y-13655975D01*
X3851418Y-13579687D01*
X3804897Y-13492652D01*
X3776249Y-13398213D01*
X3766576Y-13300000D01*
X3776249Y-13201787D01*
X3804897Y-13107348D01*
X3851418Y-13020313D01*
X3914025Y-12944025D01*
X3990313Y-12881418D01*
X4077348Y-12834897D01*
X4171787Y-12806249D01*
X4245388Y-12799000D01*
X5794612Y-12799000D01*
X5868213Y-12806249D01*
G37*
G36*
X2138213Y-12806249D02*
G01*
X2232652Y-12834897D01*
X2319687Y-12881418D01*
X2395975Y-12944025D01*
X2458582Y-13020313D01*
X2505103Y-13107348D01*
X2533751Y-13201787D01*
X2543424Y-13300000D01*
X2533751Y-13398213D01*
X2505103Y-13492652D01*
X2458582Y-13579687D01*
X2395975Y-13655975D01*
X2319687Y-13718582D01*
X2232652Y-13765103D01*
X2138213Y-13793751D01*
X2064612Y-13801000D01*
X1215388Y-13801000D01*
X1141787Y-13793751D01*
X1047348Y-13765103D01*
X960313Y-13718582D01*
X884025Y-13655975D01*
X821418Y-13579687D01*
X774897Y-13492652D01*
X746249Y-13398213D01*
X736576Y-13300000D01*
X746249Y-13201787D01*
X774897Y-13107348D01*
X821418Y-13020313D01*
X884025Y-12944025D01*
X960313Y-12881418D01*
X1047348Y-12834897D01*
X1141787Y-12806249D01*
X1215388Y-12799000D01*
X2064612Y-12799000D01*
X2138213Y-12806249D01*
G37*
G36*
X6111133Y-5633642D02*
G01*
X6180472Y-5662363D01*
X6242452Y-5703777D01*
X6242873Y-5704058D01*
X6295942Y-5757127D01*
X6295944Y-5757130D01*
X6337637Y-5819528D01*
X6366358Y-5888867D01*
X6381000Y-5962475D01*
X6381000Y-6037525D01*
X6366358Y-6111133D01*
X6337637Y-6180472D01*
X6296223Y-6242452D01*
X6295942Y-6242873D01*
X6242873Y-6295942D01*
X6205270Y-6321067D01*
X6186328Y-6336612D01*
X6170783Y-6355554D01*
X6159232Y-6377165D01*
X6152119Y-6400614D01*
X6149717Y-6425000D01*
X6152119Y-6449386D01*
X6159232Y-6472835D01*
X6170783Y-6494446D01*
X6186328Y-6513388D01*
X6205269Y-6528932D01*
X6242873Y-6554058D01*
X6295942Y-6607127D01*
X6295944Y-6607130D01*
X6337637Y-6669528D01*
X6366358Y-6738867D01*
X6381000Y-6812475D01*
X6381000Y-6887525D01*
X6366358Y-6961133D01*
X6337637Y-7030472D01*
X6296223Y-7092452D01*
X6295942Y-7092873D01*
X6242873Y-7145942D01*
X6205270Y-7171067D01*
X6186328Y-7186612D01*
X6170783Y-7205554D01*
X6159232Y-7227165D01*
X6152119Y-7250614D01*
X6149717Y-7275000D01*
X6152119Y-7299386D01*
X6159232Y-7322835D01*
X6170783Y-7344446D01*
X6186328Y-7363388D01*
X6205269Y-7378932D01*
X6242873Y-7404058D01*
X6295942Y-7457127D01*
X6295944Y-7457130D01*
X6337637Y-7519528D01*
X6366358Y-7588867D01*
X6381000Y-7662475D01*
X6381000Y-7737525D01*
X6366358Y-7811133D01*
X6337637Y-7880472D01*
X6296223Y-7942452D01*
X6295942Y-7942873D01*
X6242873Y-7995942D01*
X6205270Y-8021067D01*
X6186328Y-8036612D01*
X6170783Y-8055554D01*
X6159232Y-8077165D01*
X6152119Y-8100614D01*
X6149717Y-8125000D01*
X6152119Y-8149386D01*
X6159232Y-8172835D01*
X6170783Y-8194446D01*
X6186328Y-8213388D01*
X6205269Y-8228932D01*
X6242873Y-8254058D01*
X6295942Y-8307127D01*
X6295944Y-8307130D01*
X6337637Y-8369528D01*
X6366358Y-8438867D01*
X6381000Y-8512475D01*
X6381000Y-8587525D01*
X6366358Y-8661133D01*
X6337637Y-8730472D01*
X6296223Y-8792452D01*
X6295942Y-8792873D01*
X6242873Y-8845942D01*
X6205270Y-8871067D01*
X6186328Y-8886612D01*
X6170783Y-8905554D01*
X6159232Y-8927165D01*
X6152119Y-8950614D01*
X6149717Y-8975000D01*
X6152119Y-8999386D01*
X6159232Y-9022835D01*
X6170783Y-9044446D01*
X6186328Y-9063388D01*
X6205269Y-9078932D01*
X6242873Y-9104058D01*
X6295942Y-9157127D01*
X6295944Y-9157130D01*
X6337637Y-9219528D01*
X6366358Y-9288867D01*
X6381000Y-9362475D01*
X6381000Y-9437525D01*
X6366358Y-9511133D01*
X6337637Y-9580472D01*
X6296223Y-9642452D01*
X6295942Y-9642873D01*
X6242873Y-9695942D01*
X6205270Y-9721067D01*
X6186328Y-9736612D01*
X6170783Y-9755554D01*
X6159232Y-9777165D01*
X6152119Y-9800614D01*
X6149717Y-9825000D01*
X6152119Y-9849386D01*
X6159232Y-9872835D01*
X6170783Y-9894446D01*
X6186328Y-9913388D01*
X6205269Y-9928932D01*
X6242873Y-9954058D01*
X6295942Y-10007127D01*
X6295944Y-10007130D01*
X6337637Y-10069528D01*
X6366358Y-10138867D01*
X6381000Y-10212475D01*
X6381000Y-10287525D01*
X6366358Y-10361133D01*
X6337637Y-10430472D01*
X6296223Y-10492452D01*
X6295942Y-10492873D01*
X6242873Y-10545942D01*
X6205270Y-10571067D01*
X6186328Y-10586612D01*
X6170783Y-10605554D01*
X6159232Y-10627165D01*
X6152119Y-10650614D01*
X6149717Y-10675000D01*
X6152119Y-10699386D01*
X6159232Y-10722835D01*
X6170783Y-10744446D01*
X6186328Y-10763388D01*
X6205269Y-10778932D01*
X6242873Y-10804058D01*
X6295942Y-10857127D01*
X6295944Y-10857130D01*
X6337637Y-10919528D01*
X6366358Y-10988867D01*
X6381000Y-11062475D01*
X6381000Y-11137525D01*
X6366358Y-11211133D01*
X6337637Y-11280472D01*
X6296223Y-11342452D01*
X6295942Y-11342873D01*
X6242873Y-11395942D01*
X6205270Y-11421067D01*
X6186328Y-11436612D01*
X6170783Y-11455554D01*
X6159232Y-11477165D01*
X6152119Y-11500614D01*
X6149717Y-11525000D01*
X6152119Y-11549386D01*
X6159232Y-11572835D01*
X6170783Y-11594446D01*
X6186328Y-11613388D01*
X6205269Y-11628932D01*
X6242873Y-11654058D01*
X6295942Y-11707127D01*
X6295944Y-11707130D01*
X6337637Y-11769528D01*
X6366358Y-11838867D01*
X6381000Y-11912475D01*
X6381000Y-11987525D01*
X6366358Y-12061133D01*
X6337637Y-12130472D01*
X6296223Y-12192452D01*
X6295942Y-12192873D01*
X6242873Y-12245942D01*
X6242870Y-12245944D01*
X6180472Y-12287637D01*
X6111133Y-12316358D01*
X6037525Y-12331000D01*
X5962475Y-12331000D01*
X5888867Y-12316358D01*
X5819528Y-12287637D01*
X5757130Y-12245944D01*
X5757127Y-12245942D01*
X5704058Y-12192873D01*
X5703777Y-12192452D01*
X5662363Y-12130472D01*
X5633642Y-12061133D01*
X5619000Y-11987525D01*
X5619000Y-11912475D01*
X5633642Y-11838867D01*
X5662363Y-11769528D01*
X5704056Y-11707130D01*
X5704058Y-11707127D01*
X5757127Y-11654058D01*
X5794731Y-11628932D01*
X5813672Y-11613388D01*
X5829217Y-11594446D01*
X5840768Y-11572835D01*
X5847881Y-11549386D01*
X5850283Y-11525000D01*
X5847881Y-11500614D01*
X5840768Y-11477165D01*
X5829217Y-11455554D01*
X5813672Y-11436612D01*
X5794730Y-11421067D01*
X5757127Y-11395942D01*
X5704058Y-11342873D01*
X5703777Y-11342452D01*
X5662363Y-11280472D01*
X5633642Y-11211133D01*
X5619000Y-11137525D01*
X5619000Y-11062475D01*
X5633642Y-10988867D01*
X5662363Y-10919528D01*
X5704056Y-10857130D01*
X5704058Y-10857127D01*
X5757127Y-10804058D01*
X5794731Y-10778932D01*
X5813672Y-10763388D01*
X5829217Y-10744446D01*
X5840768Y-10722835D01*
X5847881Y-10699386D01*
X5850283Y-10675000D01*
X5847881Y-10650614D01*
X5840768Y-10627165D01*
X5829217Y-10605554D01*
X5813672Y-10586612D01*
X5794730Y-10571067D01*
X5757127Y-10545942D01*
X5704058Y-10492873D01*
X5703777Y-10492452D01*
X5662363Y-10430472D01*
X5633642Y-10361133D01*
X5619000Y-10287525D01*
X5619000Y-10212475D01*
X5633642Y-10138867D01*
X5662363Y-10069528D01*
X5704056Y-10007130D01*
X5704058Y-10007127D01*
X5757127Y-9954058D01*
X5794731Y-9928932D01*
X5813672Y-9913388D01*
X5829217Y-9894446D01*
X5840768Y-9872835D01*
X5847881Y-9849386D01*
X5850283Y-9825000D01*
X5847881Y-9800614D01*
X5840768Y-9777165D01*
X5829217Y-9755554D01*
X5813672Y-9736612D01*
X5794730Y-9721067D01*
X5757127Y-9695942D01*
X5704058Y-9642873D01*
X5703777Y-9642452D01*
X5662363Y-9580472D01*
X5633642Y-9511133D01*
X5619000Y-9437525D01*
X5619000Y-9362475D01*
X5633642Y-9288867D01*
X5662363Y-9219528D01*
X5704056Y-9157130D01*
X5704058Y-9157127D01*
X5757127Y-9104058D01*
X5794731Y-9078932D01*
X5813672Y-9063388D01*
X5829217Y-9044446D01*
X5840768Y-9022835D01*
X5847881Y-8999386D01*
X5850283Y-8975000D01*
X5847881Y-8950614D01*
X5840768Y-8927165D01*
X5829217Y-8905554D01*
X5813672Y-8886612D01*
X5794730Y-8871067D01*
X5757127Y-8845942D01*
X5704058Y-8792873D01*
X5703777Y-8792452D01*
X5662363Y-8730472D01*
X5633642Y-8661133D01*
X5619000Y-8587525D01*
X5619000Y-8512475D01*
X5633642Y-8438867D01*
X5662363Y-8369528D01*
X5704056Y-8307130D01*
X5704058Y-8307127D01*
X5757127Y-8254058D01*
X5794731Y-8228932D01*
X5813672Y-8213388D01*
X5829217Y-8194446D01*
X5840768Y-8172835D01*
X5847881Y-8149386D01*
X5850283Y-8125000D01*
X5847881Y-8100614D01*
X5840768Y-8077165D01*
X5829217Y-8055554D01*
X5813672Y-8036612D01*
X5794730Y-8021067D01*
X5757127Y-7995942D01*
X5704058Y-7942873D01*
X5703777Y-7942452D01*
X5662363Y-7880472D01*
X5633642Y-7811133D01*
X5619000Y-7737525D01*
X5619000Y-7662475D01*
X5633642Y-7588867D01*
X5662363Y-7519528D01*
X5704056Y-7457130D01*
X5704058Y-7457127D01*
X5757127Y-7404058D01*
X5794731Y-7378932D01*
X5813672Y-7363388D01*
X5829217Y-7344446D01*
X5840768Y-7322835D01*
X5847881Y-7299386D01*
X5850283Y-7275000D01*
X5847881Y-7250614D01*
X5840768Y-7227165D01*
X5829217Y-7205554D01*
X5813672Y-7186612D01*
X5794730Y-7171067D01*
X5757127Y-7145942D01*
X5704058Y-7092873D01*
X5703777Y-7092452D01*
X5662363Y-7030472D01*
X5633642Y-6961133D01*
X5619000Y-6887525D01*
X5619000Y-6812475D01*
X5633642Y-6738867D01*
X5662363Y-6669528D01*
X5704056Y-6607130D01*
X5704058Y-6607127D01*
X5757127Y-6554058D01*
X5794731Y-6528932D01*
X5813672Y-6513388D01*
X5829217Y-6494446D01*
X5840768Y-6472835D01*
X5847881Y-6449386D01*
X5850283Y-6425000D01*
X5847881Y-6400614D01*
X5840768Y-6377165D01*
X5829217Y-6355554D01*
X5813672Y-6336612D01*
X5794730Y-6321067D01*
X5757127Y-6295942D01*
X5704058Y-6242873D01*
X5703777Y-6242452D01*
X5662363Y-6180472D01*
X5633642Y-6111133D01*
X5619000Y-6037525D01*
X5619000Y-5962475D01*
X5633642Y-5888867D01*
X5662363Y-5819528D01*
X5704056Y-5757130D01*
X5704058Y-5757127D01*
X5757127Y-5704058D01*
X5757548Y-5703777D01*
X5819528Y-5662363D01*
X5888867Y-5633642D01*
X5962475Y-5619000D01*
X6037525Y-5619000D01*
X6111133Y-5633642D01*
G37*
G36*
X4761133Y-5633642D02*
G01*
X4830472Y-5662363D01*
X4892452Y-5703777D01*
X4892873Y-5704058D01*
X4945942Y-5757127D01*
X4945944Y-5757130D01*
X4987637Y-5819528D01*
X5016358Y-5888867D01*
X5031000Y-5962475D01*
X5031000Y-6037525D01*
X5016358Y-6111133D01*
X4987637Y-6180472D01*
X4946223Y-6242452D01*
X4945942Y-6242873D01*
X4892873Y-6295942D01*
X4855270Y-6321067D01*
X4836328Y-6336612D01*
X4820783Y-6355554D01*
X4809232Y-6377165D01*
X4802119Y-6400614D01*
X4799717Y-6425000D01*
X4802119Y-6449386D01*
X4809232Y-6472835D01*
X4820783Y-6494446D01*
X4836328Y-6513388D01*
X4855269Y-6528932D01*
X4892873Y-6554058D01*
X4945942Y-6607127D01*
X4945944Y-6607130D01*
X4987637Y-6669528D01*
X5016358Y-6738867D01*
X5031000Y-6812475D01*
X5031000Y-6887525D01*
X5016358Y-6961133D01*
X4987637Y-7030472D01*
X4946223Y-7092452D01*
X4945942Y-7092873D01*
X4892873Y-7145942D01*
X4855270Y-7171067D01*
X4836328Y-7186612D01*
X4820783Y-7205554D01*
X4809232Y-7227165D01*
X4802119Y-7250614D01*
X4799717Y-7275000D01*
X4802119Y-7299386D01*
X4809232Y-7322835D01*
X4820783Y-7344446D01*
X4836328Y-7363388D01*
X4855269Y-7378932D01*
X4892873Y-7404058D01*
X4945942Y-7457127D01*
X4945944Y-7457130D01*
X4987637Y-7519528D01*
X5016358Y-7588867D01*
X5031000Y-7662475D01*
X5031000Y-7737525D01*
X5016358Y-7811133D01*
X4987637Y-7880472D01*
X4946223Y-7942452D01*
X4945942Y-7942873D01*
X4892873Y-7995942D01*
X4855270Y-8021067D01*
X4836328Y-8036612D01*
X4820783Y-8055554D01*
X4809232Y-8077165D01*
X4802119Y-8100614D01*
X4799717Y-8125000D01*
X4802119Y-8149386D01*
X4809232Y-8172835D01*
X4820783Y-8194446D01*
X4836328Y-8213388D01*
X4855269Y-8228932D01*
X4892873Y-8254058D01*
X4945942Y-8307127D01*
X4945944Y-8307130D01*
X4987637Y-8369528D01*
X5016358Y-8438867D01*
X5031000Y-8512475D01*
X5031000Y-8587525D01*
X5016358Y-8661133D01*
X4987637Y-8730472D01*
X4946223Y-8792452D01*
X4945942Y-8792873D01*
X4892873Y-8845942D01*
X4855270Y-8871067D01*
X4836328Y-8886612D01*
X4820783Y-8905554D01*
X4809232Y-8927165D01*
X4802119Y-8950614D01*
X4799717Y-8975000D01*
X4802119Y-8999386D01*
X4809232Y-9022835D01*
X4820783Y-9044446D01*
X4836328Y-9063388D01*
X4855269Y-9078932D01*
X4892873Y-9104058D01*
X4945942Y-9157127D01*
X4945944Y-9157130D01*
X4987637Y-9219528D01*
X5016358Y-9288867D01*
X5031000Y-9362475D01*
X5031000Y-9437525D01*
X5016358Y-9511133D01*
X4987637Y-9580472D01*
X4946223Y-9642452D01*
X4945942Y-9642873D01*
X4892873Y-9695942D01*
X4855270Y-9721067D01*
X4836328Y-9736612D01*
X4820783Y-9755554D01*
X4809232Y-9777165D01*
X4802119Y-9800614D01*
X4799717Y-9825000D01*
X4802119Y-9849386D01*
X4809232Y-9872835D01*
X4820783Y-9894446D01*
X4836328Y-9913388D01*
X4855269Y-9928932D01*
X4892873Y-9954058D01*
X4945942Y-10007127D01*
X4945944Y-10007130D01*
X4987637Y-10069528D01*
X5016358Y-10138867D01*
X5031000Y-10212475D01*
X5031000Y-10287525D01*
X5016358Y-10361133D01*
X4987637Y-10430472D01*
X4946223Y-10492452D01*
X4945942Y-10492873D01*
X4892873Y-10545942D01*
X4855270Y-10571067D01*
X4836328Y-10586612D01*
X4820783Y-10605554D01*
X4809232Y-10627165D01*
X4802119Y-10650614D01*
X4799717Y-10675000D01*
X4802119Y-10699386D01*
X4809232Y-10722835D01*
X4820783Y-10744446D01*
X4836328Y-10763388D01*
X4855269Y-10778932D01*
X4892873Y-10804058D01*
X4945942Y-10857127D01*
X4945944Y-10857130D01*
X4987637Y-10919528D01*
X5016358Y-10988867D01*
X5031000Y-11062475D01*
X5031000Y-11137525D01*
X5016358Y-11211133D01*
X4987637Y-11280472D01*
X4946223Y-11342452D01*
X4945942Y-11342873D01*
X4892873Y-11395942D01*
X4855270Y-11421067D01*
X4836328Y-11436612D01*
X4820783Y-11455554D01*
X4809232Y-11477165D01*
X4802119Y-11500614D01*
X4799717Y-11525000D01*
X4802119Y-11549386D01*
X4809232Y-11572835D01*
X4820783Y-11594446D01*
X4836328Y-11613388D01*
X4855269Y-11628932D01*
X4892873Y-11654058D01*
X4945942Y-11707127D01*
X4945944Y-11707130D01*
X4987637Y-11769528D01*
X5016358Y-11838867D01*
X5031000Y-11912475D01*
X5031000Y-11987525D01*
X5016358Y-12061133D01*
X4987637Y-12130472D01*
X4946223Y-12192452D01*
X4945942Y-12192873D01*
X4892873Y-12245942D01*
X4892870Y-12245944D01*
X4830472Y-12287637D01*
X4761133Y-12316358D01*
X4687525Y-12331000D01*
X4612475Y-12331000D01*
X4538867Y-12316358D01*
X4469528Y-12287637D01*
X4407130Y-12245944D01*
X4407127Y-12245942D01*
X4354058Y-12192873D01*
X4353777Y-12192452D01*
X4312363Y-12130472D01*
X4283642Y-12061133D01*
X4269000Y-11987525D01*
X4269000Y-11912475D01*
X4283642Y-11838867D01*
X4312363Y-11769528D01*
X4354056Y-11707130D01*
X4354058Y-11707127D01*
X4407127Y-11654058D01*
X4444731Y-11628932D01*
X4463672Y-11613388D01*
X4479217Y-11594446D01*
X4490768Y-11572835D01*
X4497881Y-11549386D01*
X4500283Y-11525000D01*
X4497881Y-11500614D01*
X4490768Y-11477165D01*
X4479217Y-11455554D01*
X4463672Y-11436612D01*
X4444730Y-11421067D01*
X4407127Y-11395942D01*
X4354058Y-11342873D01*
X4353777Y-11342452D01*
X4312363Y-11280472D01*
X4283642Y-11211133D01*
X4269000Y-11137525D01*
X4269000Y-11062475D01*
X4283642Y-10988867D01*
X4312363Y-10919528D01*
X4354056Y-10857130D01*
X4354058Y-10857127D01*
X4407127Y-10804058D01*
X4444731Y-10778932D01*
X4463672Y-10763388D01*
X4479217Y-10744446D01*
X4490768Y-10722835D01*
X4497881Y-10699386D01*
X4500283Y-10675000D01*
X4497881Y-10650614D01*
X4490768Y-10627165D01*
X4479217Y-10605554D01*
X4463672Y-10586612D01*
X4444730Y-10571067D01*
X4407127Y-10545942D01*
X4354058Y-10492873D01*
X4353777Y-10492452D01*
X4312363Y-10430472D01*
X4283642Y-10361133D01*
X4269000Y-10287525D01*
X4269000Y-10212475D01*
X4283642Y-10138867D01*
X4312363Y-10069528D01*
X4354056Y-10007130D01*
X4354058Y-10007127D01*
X4407127Y-9954058D01*
X4444731Y-9928932D01*
X4463672Y-9913388D01*
X4479217Y-9894446D01*
X4490768Y-9872835D01*
X4497881Y-9849386D01*
X4500283Y-9825000D01*
X4497881Y-9800614D01*
X4490768Y-9777165D01*
X4479217Y-9755554D01*
X4463672Y-9736612D01*
X4444730Y-9721067D01*
X4407127Y-9695942D01*
X4354058Y-9642873D01*
X4353777Y-9642452D01*
X4312363Y-9580472D01*
X4283642Y-9511133D01*
X4269000Y-9437525D01*
X4269000Y-9362475D01*
X4283642Y-9288867D01*
X4312363Y-9219528D01*
X4354056Y-9157130D01*
X4354058Y-9157127D01*
X4407127Y-9104058D01*
X4444731Y-9078932D01*
X4463672Y-9063388D01*
X4479217Y-9044446D01*
X4490768Y-9022835D01*
X4497881Y-8999386D01*
X4500283Y-8975000D01*
X4497881Y-8950614D01*
X4490768Y-8927165D01*
X4479217Y-8905554D01*
X4463672Y-8886612D01*
X4444730Y-8871067D01*
X4407127Y-8845942D01*
X4354058Y-8792873D01*
X4353777Y-8792452D01*
X4312363Y-8730472D01*
X4283642Y-8661133D01*
X4269000Y-8587525D01*
X4269000Y-8512475D01*
X4283642Y-8438867D01*
X4312363Y-8369528D01*
X4354056Y-8307130D01*
X4354058Y-8307127D01*
X4407127Y-8254058D01*
X4444731Y-8228932D01*
X4463672Y-8213388D01*
X4479217Y-8194446D01*
X4490768Y-8172835D01*
X4497881Y-8149386D01*
X4500283Y-8125000D01*
X4497881Y-8100614D01*
X4490768Y-8077165D01*
X4479217Y-8055554D01*
X4463672Y-8036612D01*
X4444730Y-8021067D01*
X4407127Y-7995942D01*
X4354058Y-7942873D01*
X4353777Y-7942452D01*
X4312363Y-7880472D01*
X4283642Y-7811133D01*
X4269000Y-7737525D01*
X4269000Y-7662475D01*
X4283642Y-7588867D01*
X4312363Y-7519528D01*
X4354056Y-7457130D01*
X4354058Y-7457127D01*
X4407127Y-7404058D01*
X4444731Y-7378932D01*
X4463672Y-7363388D01*
X4479217Y-7344446D01*
X4490768Y-7322835D01*
X4497881Y-7299386D01*
X4500283Y-7275000D01*
X4497881Y-7250614D01*
X4490768Y-7227165D01*
X4479217Y-7205554D01*
X4463672Y-7186612D01*
X4444730Y-7171067D01*
X4407127Y-7145942D01*
X4354058Y-7092873D01*
X4353777Y-7092452D01*
X4312363Y-7030472D01*
X4283642Y-6961133D01*
X4269000Y-6887525D01*
X4269000Y-6812475D01*
X4283642Y-6738867D01*
X4312363Y-6669528D01*
X4354056Y-6607130D01*
X4354058Y-6607127D01*
X4407127Y-6554058D01*
X4444731Y-6528932D01*
X4463672Y-6513388D01*
X4479217Y-6494446D01*
X4490768Y-6472835D01*
X4497881Y-6449386D01*
X4500283Y-6425000D01*
X4497881Y-6400614D01*
X4490768Y-6377165D01*
X4479217Y-6355554D01*
X4463672Y-6336612D01*
X4444730Y-6321067D01*
X4407127Y-6295942D01*
X4354058Y-6242873D01*
X4353777Y-6242452D01*
X4312363Y-6180472D01*
X4283642Y-6111133D01*
X4269000Y-6037525D01*
X4269000Y-5962475D01*
X4283642Y-5888867D01*
X4312363Y-5819528D01*
X4354056Y-5757130D01*
X4354058Y-5757127D01*
X4407127Y-5704058D01*
X4407548Y-5703777D01*
X4469528Y-5662363D01*
X4538867Y-5633642D01*
X4612475Y-5619000D01*
X4687525Y-5619000D01*
X4761133Y-5633642D01*
G37*
G36*
X3451000Y-12051000D02*
G01*
X2449000Y-12051000D01*
X2449000Y-11449000D01*
X3451000Y-11449000D01*
X3451000Y-12051000D01*
G37*
G36*
X3451000Y-10551000D02*
G01*
X2449000Y-10551000D01*
X2449000Y-9949000D01*
X3451000Y-9949000D01*
X3451000Y-10551000D01*
G37*
G36*
X8401000Y-8001000D02*
G01*
X7399000Y-8001000D01*
X7399000Y-7399000D01*
X8401000Y-7399000D01*
X8401000Y-8001000D01*
G37*
G36*
X8401000Y-6501000D02*
G01*
X7399000Y-6501000D01*
X7399000Y-5899000D01*
X8401000Y-5899000D01*
X8401000Y-6501000D01*
G37*
G36*
X5868213Y-4156249D02*
G01*
X5962652Y-4184897D01*
X6049687Y-4231418D01*
X6125975Y-4294025D01*
X6188582Y-4370313D01*
X6235103Y-4457348D01*
X6263751Y-4551787D01*
X6273424Y-4650000D01*
X6263751Y-4748213D01*
X6235103Y-4842652D01*
X6188582Y-4929687D01*
X6125975Y-5005975D01*
X6049687Y-5068582D01*
X5962652Y-5115103D01*
X5868213Y-5143751D01*
X5794612Y-5151000D01*
X4245388Y-5151000D01*
X4171787Y-5143751D01*
X4077348Y-5115103D01*
X3990313Y-5068582D01*
X3914025Y-5005975D01*
X3851418Y-4929687D01*
X3804897Y-4842652D01*
X3776249Y-4748213D01*
X3766576Y-4650000D01*
X3776249Y-4551787D01*
X3804897Y-4457348D01*
X3851418Y-4370313D01*
X3914025Y-4294025D01*
X3990313Y-4231418D01*
X4077348Y-4184897D01*
X4171787Y-4156249D01*
X4245388Y-4149000D01*
X5794612Y-4149000D01*
X5868213Y-4156249D01*
G37*
G36*
X2138213Y-4156249D02*
G01*
X2232652Y-4184897D01*
X2319687Y-4231418D01*
X2395975Y-4294025D01*
X2458582Y-4370313D01*
X2505103Y-4457348D01*
X2533751Y-4551787D01*
X2543424Y-4650000D01*
X2533751Y-4748213D01*
X2505103Y-4842652D01*
X2458582Y-4929687D01*
X2395975Y-5005975D01*
X2319687Y-5068582D01*
X2232652Y-5115103D01*
X2138213Y-5143751D01*
X2064612Y-5151000D01*
X1215388Y-5151000D01*
X1141787Y-5143751D01*
X1047348Y-5115103D01*
X960313Y-5068582D01*
X884025Y-5005975D01*
X821418Y-4929687D01*
X774897Y-4842652D01*
X746249Y-4748213D01*
X736576Y-4650000D01*
X746249Y-4551787D01*
X774897Y-4457348D01*
X821418Y-4370313D01*
X884025Y-4294025D01*
X960313Y-4231418D01*
X1047348Y-4184897D01*
X1141787Y-4156249D01*
X1215388Y-4149000D01*
X2064612Y-4149000D01*
X2138213Y-4156249D01*
G37*
G36*
X15751000Y-2551000D02*
G01*
X13649000Y-2551000D01*
X13649000Y-449000D01*
X15751000Y-449000D01*
X15751000Y-2551000D01*
G37*
G36*
X29151000Y-2551000D02*
G01*
X27049000Y-2551000D01*
X27049000Y-449000D01*
X29151000Y-449000D01*
X29151000Y-2551000D01*
G37*
G36*
X42551000Y-2551000D02*
G01*
X40449000Y-2551000D01*
X40449000Y-449000D01*
X42551000Y-449000D01*
X42551000Y-2551000D01*
G37*
G36*
X53751000Y-2551000D02*
G01*
X51649000Y-2551000D01*
X51649000Y-449000D01*
X53751000Y-449000D01*
X53751000Y-2551000D01*
G37*
M02*
