G04 #@! TF.GenerationSoftware,KiCad,Pcbnew,(5.1.5)-3*
G04 #@! TF.CreationDate,2020-02-24T19:45:47-05:00*
G04 #@! TF.ProjectId,MiniiPS,4d696e69-6950-4532-9e6b-696361645f70,rev?*
G04 #@! TF.SameCoordinates,PX7641700PY5a995c0*
G04 #@! TF.FileFunction,Paste,Top*
G04 #@! TF.FilePolarity,Positive*
%FSLAX46Y46*%
G04 Gerber Fmt 4.6, Leading zero omitted, Abs format (unit mm)*
G04 Created by KiCad (PCBNEW (5.1.5)-3) date 2020-02-24 19:45:47*
%MOMM*%
%LPD*%
G04 APERTURE LIST*
%ADD10R,1.060000X0.650000*%
%ADD11C,0.100000*%
%ADD12R,5.700000X1.600000*%
%ADD13R,0.650000X1.060000*%
G04 APERTURE END LIST*
D10*
X16900000Y-13000000D03*
X16900000Y-12050000D03*
X16900000Y-13950000D03*
X14700000Y-13950000D03*
X14700000Y-13000000D03*
X14700000Y-12050000D03*
X30300000Y-13000000D03*
X30300000Y-12050000D03*
X30300000Y-13950000D03*
X28100000Y-13950000D03*
X28100000Y-13000000D03*
X28100000Y-12050000D03*
X41500000Y-12050000D03*
X41500000Y-13000000D03*
X41500000Y-13950000D03*
X43700000Y-13950000D03*
X43700000Y-12050000D03*
X43700000Y-13000000D03*
D11*
G36*
X48777691Y-8351053D02*
G01*
X48798926Y-8354203D01*
X48819750Y-8359419D01*
X48839962Y-8366651D01*
X48859368Y-8375830D01*
X48877781Y-8386866D01*
X48895024Y-8399654D01*
X48910930Y-8414070D01*
X48925346Y-8429976D01*
X48938134Y-8447219D01*
X48949170Y-8465632D01*
X48958349Y-8485038D01*
X48965581Y-8505250D01*
X48970797Y-8526074D01*
X48973947Y-8547309D01*
X48975000Y-8568750D01*
X48975000Y-9006250D01*
X48973947Y-9027691D01*
X48970797Y-9048926D01*
X48965581Y-9069750D01*
X48958349Y-9089962D01*
X48949170Y-9109368D01*
X48938134Y-9127781D01*
X48925346Y-9145024D01*
X48910930Y-9160930D01*
X48895024Y-9175346D01*
X48877781Y-9188134D01*
X48859368Y-9199170D01*
X48839962Y-9208349D01*
X48819750Y-9215581D01*
X48798926Y-9220797D01*
X48777691Y-9223947D01*
X48756250Y-9225000D01*
X48243750Y-9225000D01*
X48222309Y-9223947D01*
X48201074Y-9220797D01*
X48180250Y-9215581D01*
X48160038Y-9208349D01*
X48140632Y-9199170D01*
X48122219Y-9188134D01*
X48104976Y-9175346D01*
X48089070Y-9160930D01*
X48074654Y-9145024D01*
X48061866Y-9127781D01*
X48050830Y-9109368D01*
X48041651Y-9089962D01*
X48034419Y-9069750D01*
X48029203Y-9048926D01*
X48026053Y-9027691D01*
X48025000Y-9006250D01*
X48025000Y-8568750D01*
X48026053Y-8547309D01*
X48029203Y-8526074D01*
X48034419Y-8505250D01*
X48041651Y-8485038D01*
X48050830Y-8465632D01*
X48061866Y-8447219D01*
X48074654Y-8429976D01*
X48089070Y-8414070D01*
X48104976Y-8399654D01*
X48122219Y-8386866D01*
X48140632Y-8375830D01*
X48160038Y-8366651D01*
X48180250Y-8359419D01*
X48201074Y-8354203D01*
X48222309Y-8351053D01*
X48243750Y-8350000D01*
X48756250Y-8350000D01*
X48777691Y-8351053D01*
G37*
G36*
X48777691Y-6776053D02*
G01*
X48798926Y-6779203D01*
X48819750Y-6784419D01*
X48839962Y-6791651D01*
X48859368Y-6800830D01*
X48877781Y-6811866D01*
X48895024Y-6824654D01*
X48910930Y-6839070D01*
X48925346Y-6854976D01*
X48938134Y-6872219D01*
X48949170Y-6890632D01*
X48958349Y-6910038D01*
X48965581Y-6930250D01*
X48970797Y-6951074D01*
X48973947Y-6972309D01*
X48975000Y-6993750D01*
X48975000Y-7431250D01*
X48973947Y-7452691D01*
X48970797Y-7473926D01*
X48965581Y-7494750D01*
X48958349Y-7514962D01*
X48949170Y-7534368D01*
X48938134Y-7552781D01*
X48925346Y-7570024D01*
X48910930Y-7585930D01*
X48895024Y-7600346D01*
X48877781Y-7613134D01*
X48859368Y-7624170D01*
X48839962Y-7633349D01*
X48819750Y-7640581D01*
X48798926Y-7645797D01*
X48777691Y-7648947D01*
X48756250Y-7650000D01*
X48243750Y-7650000D01*
X48222309Y-7648947D01*
X48201074Y-7645797D01*
X48180250Y-7640581D01*
X48160038Y-7633349D01*
X48140632Y-7624170D01*
X48122219Y-7613134D01*
X48104976Y-7600346D01*
X48089070Y-7585930D01*
X48074654Y-7570024D01*
X48061866Y-7552781D01*
X48050830Y-7534368D01*
X48041651Y-7514962D01*
X48034419Y-7494750D01*
X48029203Y-7473926D01*
X48026053Y-7452691D01*
X48025000Y-7431250D01*
X48025000Y-6993750D01*
X48026053Y-6972309D01*
X48029203Y-6951074D01*
X48034419Y-6930250D01*
X48041651Y-6910038D01*
X48050830Y-6890632D01*
X48061866Y-6872219D01*
X48074654Y-6854976D01*
X48089070Y-6839070D01*
X48104976Y-6824654D01*
X48122219Y-6811866D01*
X48140632Y-6800830D01*
X48160038Y-6791651D01*
X48180250Y-6784419D01*
X48201074Y-6779203D01*
X48222309Y-6776053D01*
X48243750Y-6775000D01*
X48756250Y-6775000D01*
X48777691Y-6776053D01*
G37*
G36*
X54377691Y-10351053D02*
G01*
X54398926Y-10354203D01*
X54419750Y-10359419D01*
X54439962Y-10366651D01*
X54459368Y-10375830D01*
X54477781Y-10386866D01*
X54495024Y-10399654D01*
X54510930Y-10414070D01*
X54525346Y-10429976D01*
X54538134Y-10447219D01*
X54549170Y-10465632D01*
X54558349Y-10485038D01*
X54565581Y-10505250D01*
X54570797Y-10526074D01*
X54573947Y-10547309D01*
X54575000Y-10568750D01*
X54575000Y-11006250D01*
X54573947Y-11027691D01*
X54570797Y-11048926D01*
X54565581Y-11069750D01*
X54558349Y-11089962D01*
X54549170Y-11109368D01*
X54538134Y-11127781D01*
X54525346Y-11145024D01*
X54510930Y-11160930D01*
X54495024Y-11175346D01*
X54477781Y-11188134D01*
X54459368Y-11199170D01*
X54439962Y-11208349D01*
X54419750Y-11215581D01*
X54398926Y-11220797D01*
X54377691Y-11223947D01*
X54356250Y-11225000D01*
X53843750Y-11225000D01*
X53822309Y-11223947D01*
X53801074Y-11220797D01*
X53780250Y-11215581D01*
X53760038Y-11208349D01*
X53740632Y-11199170D01*
X53722219Y-11188134D01*
X53704976Y-11175346D01*
X53689070Y-11160930D01*
X53674654Y-11145024D01*
X53661866Y-11127781D01*
X53650830Y-11109368D01*
X53641651Y-11089962D01*
X53634419Y-11069750D01*
X53629203Y-11048926D01*
X53626053Y-11027691D01*
X53625000Y-11006250D01*
X53625000Y-10568750D01*
X53626053Y-10547309D01*
X53629203Y-10526074D01*
X53634419Y-10505250D01*
X53641651Y-10485038D01*
X53650830Y-10465632D01*
X53661866Y-10447219D01*
X53674654Y-10429976D01*
X53689070Y-10414070D01*
X53704976Y-10399654D01*
X53722219Y-10386866D01*
X53740632Y-10375830D01*
X53760038Y-10366651D01*
X53780250Y-10359419D01*
X53801074Y-10354203D01*
X53822309Y-10351053D01*
X53843750Y-10350000D01*
X54356250Y-10350000D01*
X54377691Y-10351053D01*
G37*
G36*
X54377691Y-8776053D02*
G01*
X54398926Y-8779203D01*
X54419750Y-8784419D01*
X54439962Y-8791651D01*
X54459368Y-8800830D01*
X54477781Y-8811866D01*
X54495024Y-8824654D01*
X54510930Y-8839070D01*
X54525346Y-8854976D01*
X54538134Y-8872219D01*
X54549170Y-8890632D01*
X54558349Y-8910038D01*
X54565581Y-8930250D01*
X54570797Y-8951074D01*
X54573947Y-8972309D01*
X54575000Y-8993750D01*
X54575000Y-9431250D01*
X54573947Y-9452691D01*
X54570797Y-9473926D01*
X54565581Y-9494750D01*
X54558349Y-9514962D01*
X54549170Y-9534368D01*
X54538134Y-9552781D01*
X54525346Y-9570024D01*
X54510930Y-9585930D01*
X54495024Y-9600346D01*
X54477781Y-9613134D01*
X54459368Y-9624170D01*
X54439962Y-9633349D01*
X54419750Y-9640581D01*
X54398926Y-9645797D01*
X54377691Y-9648947D01*
X54356250Y-9650000D01*
X53843750Y-9650000D01*
X53822309Y-9648947D01*
X53801074Y-9645797D01*
X53780250Y-9640581D01*
X53760038Y-9633349D01*
X53740632Y-9624170D01*
X53722219Y-9613134D01*
X53704976Y-9600346D01*
X53689070Y-9585930D01*
X53674654Y-9570024D01*
X53661866Y-9552781D01*
X53650830Y-9534368D01*
X53641651Y-9514962D01*
X53634419Y-9494750D01*
X53629203Y-9473926D01*
X53626053Y-9452691D01*
X53625000Y-9431250D01*
X53625000Y-8993750D01*
X53626053Y-8972309D01*
X53629203Y-8951074D01*
X53634419Y-8930250D01*
X53641651Y-8910038D01*
X53650830Y-8890632D01*
X53661866Y-8872219D01*
X53674654Y-8854976D01*
X53689070Y-8839070D01*
X53704976Y-8824654D01*
X53722219Y-8811866D01*
X53740632Y-8800830D01*
X53760038Y-8791651D01*
X53780250Y-8784419D01*
X53801074Y-8779203D01*
X53822309Y-8776053D01*
X53843750Y-8775000D01*
X54356250Y-8775000D01*
X54377691Y-8776053D01*
G37*
G36*
X33627691Y-13326053D02*
G01*
X33648926Y-13329203D01*
X33669750Y-13334419D01*
X33689962Y-13341651D01*
X33709368Y-13350830D01*
X33727781Y-13361866D01*
X33745024Y-13374654D01*
X33760930Y-13389070D01*
X33775346Y-13404976D01*
X33788134Y-13422219D01*
X33799170Y-13440632D01*
X33808349Y-13460038D01*
X33815581Y-13480250D01*
X33820797Y-13501074D01*
X33823947Y-13522309D01*
X33825000Y-13543750D01*
X33825000Y-14056250D01*
X33823947Y-14077691D01*
X33820797Y-14098926D01*
X33815581Y-14119750D01*
X33808349Y-14139962D01*
X33799170Y-14159368D01*
X33788134Y-14177781D01*
X33775346Y-14195024D01*
X33760930Y-14210930D01*
X33745024Y-14225346D01*
X33727781Y-14238134D01*
X33709368Y-14249170D01*
X33689962Y-14258349D01*
X33669750Y-14265581D01*
X33648926Y-14270797D01*
X33627691Y-14273947D01*
X33606250Y-14275000D01*
X33168750Y-14275000D01*
X33147309Y-14273947D01*
X33126074Y-14270797D01*
X33105250Y-14265581D01*
X33085038Y-14258349D01*
X33065632Y-14249170D01*
X33047219Y-14238134D01*
X33029976Y-14225346D01*
X33014070Y-14210930D01*
X32999654Y-14195024D01*
X32986866Y-14177781D01*
X32975830Y-14159368D01*
X32966651Y-14139962D01*
X32959419Y-14119750D01*
X32954203Y-14098926D01*
X32951053Y-14077691D01*
X32950000Y-14056250D01*
X32950000Y-13543750D01*
X32951053Y-13522309D01*
X32954203Y-13501074D01*
X32959419Y-13480250D01*
X32966651Y-13460038D01*
X32975830Y-13440632D01*
X32986866Y-13422219D01*
X32999654Y-13404976D01*
X33014070Y-13389070D01*
X33029976Y-13374654D01*
X33047219Y-13361866D01*
X33065632Y-13350830D01*
X33085038Y-13341651D01*
X33105250Y-13334419D01*
X33126074Y-13329203D01*
X33147309Y-13326053D01*
X33168750Y-13325000D01*
X33606250Y-13325000D01*
X33627691Y-13326053D01*
G37*
G36*
X32052691Y-13326053D02*
G01*
X32073926Y-13329203D01*
X32094750Y-13334419D01*
X32114962Y-13341651D01*
X32134368Y-13350830D01*
X32152781Y-13361866D01*
X32170024Y-13374654D01*
X32185930Y-13389070D01*
X32200346Y-13404976D01*
X32213134Y-13422219D01*
X32224170Y-13440632D01*
X32233349Y-13460038D01*
X32240581Y-13480250D01*
X32245797Y-13501074D01*
X32248947Y-13522309D01*
X32250000Y-13543750D01*
X32250000Y-14056250D01*
X32248947Y-14077691D01*
X32245797Y-14098926D01*
X32240581Y-14119750D01*
X32233349Y-14139962D01*
X32224170Y-14159368D01*
X32213134Y-14177781D01*
X32200346Y-14195024D01*
X32185930Y-14210930D01*
X32170024Y-14225346D01*
X32152781Y-14238134D01*
X32134368Y-14249170D01*
X32114962Y-14258349D01*
X32094750Y-14265581D01*
X32073926Y-14270797D01*
X32052691Y-14273947D01*
X32031250Y-14275000D01*
X31593750Y-14275000D01*
X31572309Y-14273947D01*
X31551074Y-14270797D01*
X31530250Y-14265581D01*
X31510038Y-14258349D01*
X31490632Y-14249170D01*
X31472219Y-14238134D01*
X31454976Y-14225346D01*
X31439070Y-14210930D01*
X31424654Y-14195024D01*
X31411866Y-14177781D01*
X31400830Y-14159368D01*
X31391651Y-14139962D01*
X31384419Y-14119750D01*
X31379203Y-14098926D01*
X31376053Y-14077691D01*
X31375000Y-14056250D01*
X31375000Y-13543750D01*
X31376053Y-13522309D01*
X31379203Y-13501074D01*
X31384419Y-13480250D01*
X31391651Y-13460038D01*
X31400830Y-13440632D01*
X31411866Y-13422219D01*
X31424654Y-13404976D01*
X31439070Y-13389070D01*
X31454976Y-13374654D01*
X31472219Y-13361866D01*
X31490632Y-13350830D01*
X31510038Y-13341651D01*
X31530250Y-13334419D01*
X31551074Y-13329203D01*
X31572309Y-13326053D01*
X31593750Y-13325000D01*
X32031250Y-13325000D01*
X32052691Y-13326053D01*
G37*
G36*
X24155142Y-3801174D02*
G01*
X24178803Y-3804684D01*
X24202007Y-3810496D01*
X24224529Y-3818554D01*
X24246153Y-3828782D01*
X24266670Y-3841079D01*
X24285883Y-3855329D01*
X24303607Y-3871393D01*
X24319671Y-3889117D01*
X24333921Y-3908330D01*
X24346218Y-3928847D01*
X24356446Y-3950471D01*
X24364504Y-3972993D01*
X24370316Y-3996197D01*
X24373826Y-4019858D01*
X24375000Y-4043750D01*
X24375000Y-4956250D01*
X24373826Y-4980142D01*
X24370316Y-5003803D01*
X24364504Y-5027007D01*
X24356446Y-5049529D01*
X24346218Y-5071153D01*
X24333921Y-5091670D01*
X24319671Y-5110883D01*
X24303607Y-5128607D01*
X24285883Y-5144671D01*
X24266670Y-5158921D01*
X24246153Y-5171218D01*
X24224529Y-5181446D01*
X24202007Y-5189504D01*
X24178803Y-5195316D01*
X24155142Y-5198826D01*
X24131250Y-5200000D01*
X23643750Y-5200000D01*
X23619858Y-5198826D01*
X23596197Y-5195316D01*
X23572993Y-5189504D01*
X23550471Y-5181446D01*
X23528847Y-5171218D01*
X23508330Y-5158921D01*
X23489117Y-5144671D01*
X23471393Y-5128607D01*
X23455329Y-5110883D01*
X23441079Y-5091670D01*
X23428782Y-5071153D01*
X23418554Y-5049529D01*
X23410496Y-5027007D01*
X23404684Y-5003803D01*
X23401174Y-4980142D01*
X23400000Y-4956250D01*
X23400000Y-4043750D01*
X23401174Y-4019858D01*
X23404684Y-3996197D01*
X23410496Y-3972993D01*
X23418554Y-3950471D01*
X23428782Y-3928847D01*
X23441079Y-3908330D01*
X23455329Y-3889117D01*
X23471393Y-3871393D01*
X23489117Y-3855329D01*
X23508330Y-3841079D01*
X23528847Y-3828782D01*
X23550471Y-3818554D01*
X23572993Y-3810496D01*
X23596197Y-3804684D01*
X23619858Y-3801174D01*
X23643750Y-3800000D01*
X24131250Y-3800000D01*
X24155142Y-3801174D01*
G37*
G36*
X22280142Y-3801174D02*
G01*
X22303803Y-3804684D01*
X22327007Y-3810496D01*
X22349529Y-3818554D01*
X22371153Y-3828782D01*
X22391670Y-3841079D01*
X22410883Y-3855329D01*
X22428607Y-3871393D01*
X22444671Y-3889117D01*
X22458921Y-3908330D01*
X22471218Y-3928847D01*
X22481446Y-3950471D01*
X22489504Y-3972993D01*
X22495316Y-3996197D01*
X22498826Y-4019858D01*
X22500000Y-4043750D01*
X22500000Y-4956250D01*
X22498826Y-4980142D01*
X22495316Y-5003803D01*
X22489504Y-5027007D01*
X22481446Y-5049529D01*
X22471218Y-5071153D01*
X22458921Y-5091670D01*
X22444671Y-5110883D01*
X22428607Y-5128607D01*
X22410883Y-5144671D01*
X22391670Y-5158921D01*
X22371153Y-5171218D01*
X22349529Y-5181446D01*
X22327007Y-5189504D01*
X22303803Y-5195316D01*
X22280142Y-5198826D01*
X22256250Y-5200000D01*
X21768750Y-5200000D01*
X21744858Y-5198826D01*
X21721197Y-5195316D01*
X21697993Y-5189504D01*
X21675471Y-5181446D01*
X21653847Y-5171218D01*
X21633330Y-5158921D01*
X21614117Y-5144671D01*
X21596393Y-5128607D01*
X21580329Y-5110883D01*
X21566079Y-5091670D01*
X21553782Y-5071153D01*
X21543554Y-5049529D01*
X21535496Y-5027007D01*
X21529684Y-5003803D01*
X21526174Y-4980142D01*
X21525000Y-4956250D01*
X21525000Y-4043750D01*
X21526174Y-4019858D01*
X21529684Y-3996197D01*
X21535496Y-3972993D01*
X21543554Y-3950471D01*
X21553782Y-3928847D01*
X21566079Y-3908330D01*
X21580329Y-3889117D01*
X21596393Y-3871393D01*
X21614117Y-3855329D01*
X21633330Y-3841079D01*
X21653847Y-3828782D01*
X21675471Y-3818554D01*
X21697993Y-3810496D01*
X21721197Y-3804684D01*
X21744858Y-3801174D01*
X21768750Y-3800000D01*
X22256250Y-3800000D01*
X22280142Y-3801174D01*
G37*
G36*
X37555142Y-3801174D02*
G01*
X37578803Y-3804684D01*
X37602007Y-3810496D01*
X37624529Y-3818554D01*
X37646153Y-3828782D01*
X37666670Y-3841079D01*
X37685883Y-3855329D01*
X37703607Y-3871393D01*
X37719671Y-3889117D01*
X37733921Y-3908330D01*
X37746218Y-3928847D01*
X37756446Y-3950471D01*
X37764504Y-3972993D01*
X37770316Y-3996197D01*
X37773826Y-4019858D01*
X37775000Y-4043750D01*
X37775000Y-4956250D01*
X37773826Y-4980142D01*
X37770316Y-5003803D01*
X37764504Y-5027007D01*
X37756446Y-5049529D01*
X37746218Y-5071153D01*
X37733921Y-5091670D01*
X37719671Y-5110883D01*
X37703607Y-5128607D01*
X37685883Y-5144671D01*
X37666670Y-5158921D01*
X37646153Y-5171218D01*
X37624529Y-5181446D01*
X37602007Y-5189504D01*
X37578803Y-5195316D01*
X37555142Y-5198826D01*
X37531250Y-5200000D01*
X37043750Y-5200000D01*
X37019858Y-5198826D01*
X36996197Y-5195316D01*
X36972993Y-5189504D01*
X36950471Y-5181446D01*
X36928847Y-5171218D01*
X36908330Y-5158921D01*
X36889117Y-5144671D01*
X36871393Y-5128607D01*
X36855329Y-5110883D01*
X36841079Y-5091670D01*
X36828782Y-5071153D01*
X36818554Y-5049529D01*
X36810496Y-5027007D01*
X36804684Y-5003803D01*
X36801174Y-4980142D01*
X36800000Y-4956250D01*
X36800000Y-4043750D01*
X36801174Y-4019858D01*
X36804684Y-3996197D01*
X36810496Y-3972993D01*
X36818554Y-3950471D01*
X36828782Y-3928847D01*
X36841079Y-3908330D01*
X36855329Y-3889117D01*
X36871393Y-3871393D01*
X36889117Y-3855329D01*
X36908330Y-3841079D01*
X36928847Y-3828782D01*
X36950471Y-3818554D01*
X36972993Y-3810496D01*
X36996197Y-3804684D01*
X37019858Y-3801174D01*
X37043750Y-3800000D01*
X37531250Y-3800000D01*
X37555142Y-3801174D01*
G37*
G36*
X35680142Y-3801174D02*
G01*
X35703803Y-3804684D01*
X35727007Y-3810496D01*
X35749529Y-3818554D01*
X35771153Y-3828782D01*
X35791670Y-3841079D01*
X35810883Y-3855329D01*
X35828607Y-3871393D01*
X35844671Y-3889117D01*
X35858921Y-3908330D01*
X35871218Y-3928847D01*
X35881446Y-3950471D01*
X35889504Y-3972993D01*
X35895316Y-3996197D01*
X35898826Y-4019858D01*
X35900000Y-4043750D01*
X35900000Y-4956250D01*
X35898826Y-4980142D01*
X35895316Y-5003803D01*
X35889504Y-5027007D01*
X35881446Y-5049529D01*
X35871218Y-5071153D01*
X35858921Y-5091670D01*
X35844671Y-5110883D01*
X35828607Y-5128607D01*
X35810883Y-5144671D01*
X35791670Y-5158921D01*
X35771153Y-5171218D01*
X35749529Y-5181446D01*
X35727007Y-5189504D01*
X35703803Y-5195316D01*
X35680142Y-5198826D01*
X35656250Y-5200000D01*
X35168750Y-5200000D01*
X35144858Y-5198826D01*
X35121197Y-5195316D01*
X35097993Y-5189504D01*
X35075471Y-5181446D01*
X35053847Y-5171218D01*
X35033330Y-5158921D01*
X35014117Y-5144671D01*
X34996393Y-5128607D01*
X34980329Y-5110883D01*
X34966079Y-5091670D01*
X34953782Y-5071153D01*
X34943554Y-5049529D01*
X34935496Y-5027007D01*
X34929684Y-5003803D01*
X34926174Y-4980142D01*
X34925000Y-4956250D01*
X34925000Y-4043750D01*
X34926174Y-4019858D01*
X34929684Y-3996197D01*
X34935496Y-3972993D01*
X34943554Y-3950471D01*
X34953782Y-3928847D01*
X34966079Y-3908330D01*
X34980329Y-3889117D01*
X34996393Y-3871393D01*
X35014117Y-3855329D01*
X35033330Y-3841079D01*
X35053847Y-3828782D01*
X35075471Y-3818554D01*
X35097993Y-3810496D01*
X35121197Y-3804684D01*
X35144858Y-3801174D01*
X35168750Y-3800000D01*
X35656250Y-3800000D01*
X35680142Y-3801174D01*
G37*
G36*
X38977691Y-11776053D02*
G01*
X38998926Y-11779203D01*
X39019750Y-11784419D01*
X39039962Y-11791651D01*
X39059368Y-11800830D01*
X39077781Y-11811866D01*
X39095024Y-11824654D01*
X39110930Y-11839070D01*
X39125346Y-11854976D01*
X39138134Y-11872219D01*
X39149170Y-11890632D01*
X39158349Y-11910038D01*
X39165581Y-11930250D01*
X39170797Y-11951074D01*
X39173947Y-11972309D01*
X39175000Y-11993750D01*
X39175000Y-12431250D01*
X39173947Y-12452691D01*
X39170797Y-12473926D01*
X39165581Y-12494750D01*
X39158349Y-12514962D01*
X39149170Y-12534368D01*
X39138134Y-12552781D01*
X39125346Y-12570024D01*
X39110930Y-12585930D01*
X39095024Y-12600346D01*
X39077781Y-12613134D01*
X39059368Y-12624170D01*
X39039962Y-12633349D01*
X39019750Y-12640581D01*
X38998926Y-12645797D01*
X38977691Y-12648947D01*
X38956250Y-12650000D01*
X38443750Y-12650000D01*
X38422309Y-12648947D01*
X38401074Y-12645797D01*
X38380250Y-12640581D01*
X38360038Y-12633349D01*
X38340632Y-12624170D01*
X38322219Y-12613134D01*
X38304976Y-12600346D01*
X38289070Y-12585930D01*
X38274654Y-12570024D01*
X38261866Y-12552781D01*
X38250830Y-12534368D01*
X38241651Y-12514962D01*
X38234419Y-12494750D01*
X38229203Y-12473926D01*
X38226053Y-12452691D01*
X38225000Y-12431250D01*
X38225000Y-11993750D01*
X38226053Y-11972309D01*
X38229203Y-11951074D01*
X38234419Y-11930250D01*
X38241651Y-11910038D01*
X38250830Y-11890632D01*
X38261866Y-11872219D01*
X38274654Y-11854976D01*
X38289070Y-11839070D01*
X38304976Y-11824654D01*
X38322219Y-11811866D01*
X38340632Y-11800830D01*
X38360038Y-11791651D01*
X38380250Y-11784419D01*
X38401074Y-11779203D01*
X38422309Y-11776053D01*
X38443750Y-11775000D01*
X38956250Y-11775000D01*
X38977691Y-11776053D01*
G37*
G36*
X38977691Y-13351053D02*
G01*
X38998926Y-13354203D01*
X39019750Y-13359419D01*
X39039962Y-13366651D01*
X39059368Y-13375830D01*
X39077781Y-13386866D01*
X39095024Y-13399654D01*
X39110930Y-13414070D01*
X39125346Y-13429976D01*
X39138134Y-13447219D01*
X39149170Y-13465632D01*
X39158349Y-13485038D01*
X39165581Y-13505250D01*
X39170797Y-13526074D01*
X39173947Y-13547309D01*
X39175000Y-13568750D01*
X39175000Y-14006250D01*
X39173947Y-14027691D01*
X39170797Y-14048926D01*
X39165581Y-14069750D01*
X39158349Y-14089962D01*
X39149170Y-14109368D01*
X39138134Y-14127781D01*
X39125346Y-14145024D01*
X39110930Y-14160930D01*
X39095024Y-14175346D01*
X39077781Y-14188134D01*
X39059368Y-14199170D01*
X39039962Y-14208349D01*
X39019750Y-14215581D01*
X38998926Y-14220797D01*
X38977691Y-14223947D01*
X38956250Y-14225000D01*
X38443750Y-14225000D01*
X38422309Y-14223947D01*
X38401074Y-14220797D01*
X38380250Y-14215581D01*
X38360038Y-14208349D01*
X38340632Y-14199170D01*
X38322219Y-14188134D01*
X38304976Y-14175346D01*
X38289070Y-14160930D01*
X38274654Y-14145024D01*
X38261866Y-14127781D01*
X38250830Y-14109368D01*
X38241651Y-14089962D01*
X38234419Y-14069750D01*
X38229203Y-14048926D01*
X38226053Y-14027691D01*
X38225000Y-14006250D01*
X38225000Y-13568750D01*
X38226053Y-13547309D01*
X38229203Y-13526074D01*
X38234419Y-13505250D01*
X38241651Y-13485038D01*
X38250830Y-13465632D01*
X38261866Y-13447219D01*
X38274654Y-13429976D01*
X38289070Y-13414070D01*
X38304976Y-13399654D01*
X38322219Y-13386866D01*
X38340632Y-13375830D01*
X38360038Y-13366651D01*
X38380250Y-13359419D01*
X38401074Y-13354203D01*
X38422309Y-13351053D01*
X38443750Y-13350000D01*
X38956250Y-13350000D01*
X38977691Y-13351053D01*
G37*
G36*
X37555142Y-7801174D02*
G01*
X37578803Y-7804684D01*
X37602007Y-7810496D01*
X37624529Y-7818554D01*
X37646153Y-7828782D01*
X37666670Y-7841079D01*
X37685883Y-7855329D01*
X37703607Y-7871393D01*
X37719671Y-7889117D01*
X37733921Y-7908330D01*
X37746218Y-7928847D01*
X37756446Y-7950471D01*
X37764504Y-7972993D01*
X37770316Y-7996197D01*
X37773826Y-8019858D01*
X37775000Y-8043750D01*
X37775000Y-8956250D01*
X37773826Y-8980142D01*
X37770316Y-9003803D01*
X37764504Y-9027007D01*
X37756446Y-9049529D01*
X37746218Y-9071153D01*
X37733921Y-9091670D01*
X37719671Y-9110883D01*
X37703607Y-9128607D01*
X37685883Y-9144671D01*
X37666670Y-9158921D01*
X37646153Y-9171218D01*
X37624529Y-9181446D01*
X37602007Y-9189504D01*
X37578803Y-9195316D01*
X37555142Y-9198826D01*
X37531250Y-9200000D01*
X37043750Y-9200000D01*
X37019858Y-9198826D01*
X36996197Y-9195316D01*
X36972993Y-9189504D01*
X36950471Y-9181446D01*
X36928847Y-9171218D01*
X36908330Y-9158921D01*
X36889117Y-9144671D01*
X36871393Y-9128607D01*
X36855329Y-9110883D01*
X36841079Y-9091670D01*
X36828782Y-9071153D01*
X36818554Y-9049529D01*
X36810496Y-9027007D01*
X36804684Y-9003803D01*
X36801174Y-8980142D01*
X36800000Y-8956250D01*
X36800000Y-8043750D01*
X36801174Y-8019858D01*
X36804684Y-7996197D01*
X36810496Y-7972993D01*
X36818554Y-7950471D01*
X36828782Y-7928847D01*
X36841079Y-7908330D01*
X36855329Y-7889117D01*
X36871393Y-7871393D01*
X36889117Y-7855329D01*
X36908330Y-7841079D01*
X36928847Y-7828782D01*
X36950471Y-7818554D01*
X36972993Y-7810496D01*
X36996197Y-7804684D01*
X37019858Y-7801174D01*
X37043750Y-7800000D01*
X37531250Y-7800000D01*
X37555142Y-7801174D01*
G37*
G36*
X35680142Y-7801174D02*
G01*
X35703803Y-7804684D01*
X35727007Y-7810496D01*
X35749529Y-7818554D01*
X35771153Y-7828782D01*
X35791670Y-7841079D01*
X35810883Y-7855329D01*
X35828607Y-7871393D01*
X35844671Y-7889117D01*
X35858921Y-7908330D01*
X35871218Y-7928847D01*
X35881446Y-7950471D01*
X35889504Y-7972993D01*
X35895316Y-7996197D01*
X35898826Y-8019858D01*
X35900000Y-8043750D01*
X35900000Y-8956250D01*
X35898826Y-8980142D01*
X35895316Y-9003803D01*
X35889504Y-9027007D01*
X35881446Y-9049529D01*
X35871218Y-9071153D01*
X35858921Y-9091670D01*
X35844671Y-9110883D01*
X35828607Y-9128607D01*
X35810883Y-9144671D01*
X35791670Y-9158921D01*
X35771153Y-9171218D01*
X35749529Y-9181446D01*
X35727007Y-9189504D01*
X35703803Y-9195316D01*
X35680142Y-9198826D01*
X35656250Y-9200000D01*
X35168750Y-9200000D01*
X35144858Y-9198826D01*
X35121197Y-9195316D01*
X35097993Y-9189504D01*
X35075471Y-9181446D01*
X35053847Y-9171218D01*
X35033330Y-9158921D01*
X35014117Y-9144671D01*
X34996393Y-9128607D01*
X34980329Y-9110883D01*
X34966079Y-9091670D01*
X34953782Y-9071153D01*
X34943554Y-9049529D01*
X34935496Y-9027007D01*
X34929684Y-9003803D01*
X34926174Y-8980142D01*
X34925000Y-8956250D01*
X34925000Y-8043750D01*
X34926174Y-8019858D01*
X34929684Y-7996197D01*
X34935496Y-7972993D01*
X34943554Y-7950471D01*
X34953782Y-7928847D01*
X34966079Y-7908330D01*
X34980329Y-7889117D01*
X34996393Y-7871393D01*
X35014117Y-7855329D01*
X35033330Y-7841079D01*
X35053847Y-7828782D01*
X35075471Y-7818554D01*
X35097993Y-7810496D01*
X35121197Y-7804684D01*
X35144858Y-7801174D01*
X35168750Y-7800000D01*
X35656250Y-7800000D01*
X35680142Y-7801174D01*
G37*
G36*
X45452691Y-11826053D02*
G01*
X45473926Y-11829203D01*
X45494750Y-11834419D01*
X45514962Y-11841651D01*
X45534368Y-11850830D01*
X45552781Y-11861866D01*
X45570024Y-11874654D01*
X45585930Y-11889070D01*
X45600346Y-11904976D01*
X45613134Y-11922219D01*
X45624170Y-11940632D01*
X45633349Y-11960038D01*
X45640581Y-11980250D01*
X45645797Y-12001074D01*
X45648947Y-12022309D01*
X45650000Y-12043750D01*
X45650000Y-12556250D01*
X45648947Y-12577691D01*
X45645797Y-12598926D01*
X45640581Y-12619750D01*
X45633349Y-12639962D01*
X45624170Y-12659368D01*
X45613134Y-12677781D01*
X45600346Y-12695024D01*
X45585930Y-12710930D01*
X45570024Y-12725346D01*
X45552781Y-12738134D01*
X45534368Y-12749170D01*
X45514962Y-12758349D01*
X45494750Y-12765581D01*
X45473926Y-12770797D01*
X45452691Y-12773947D01*
X45431250Y-12775000D01*
X44993750Y-12775000D01*
X44972309Y-12773947D01*
X44951074Y-12770797D01*
X44930250Y-12765581D01*
X44910038Y-12758349D01*
X44890632Y-12749170D01*
X44872219Y-12738134D01*
X44854976Y-12725346D01*
X44839070Y-12710930D01*
X44824654Y-12695024D01*
X44811866Y-12677781D01*
X44800830Y-12659368D01*
X44791651Y-12639962D01*
X44784419Y-12619750D01*
X44779203Y-12598926D01*
X44776053Y-12577691D01*
X44775000Y-12556250D01*
X44775000Y-12043750D01*
X44776053Y-12022309D01*
X44779203Y-12001074D01*
X44784419Y-11980250D01*
X44791651Y-11960038D01*
X44800830Y-11940632D01*
X44811866Y-11922219D01*
X44824654Y-11904976D01*
X44839070Y-11889070D01*
X44854976Y-11874654D01*
X44872219Y-11861866D01*
X44890632Y-11850830D01*
X44910038Y-11841651D01*
X44930250Y-11834419D01*
X44951074Y-11829203D01*
X44972309Y-11826053D01*
X44993750Y-11825000D01*
X45431250Y-11825000D01*
X45452691Y-11826053D01*
G37*
G36*
X47027691Y-11826053D02*
G01*
X47048926Y-11829203D01*
X47069750Y-11834419D01*
X47089962Y-11841651D01*
X47109368Y-11850830D01*
X47127781Y-11861866D01*
X47145024Y-11874654D01*
X47160930Y-11889070D01*
X47175346Y-11904976D01*
X47188134Y-11922219D01*
X47199170Y-11940632D01*
X47208349Y-11960038D01*
X47215581Y-11980250D01*
X47220797Y-12001074D01*
X47223947Y-12022309D01*
X47225000Y-12043750D01*
X47225000Y-12556250D01*
X47223947Y-12577691D01*
X47220797Y-12598926D01*
X47215581Y-12619750D01*
X47208349Y-12639962D01*
X47199170Y-12659368D01*
X47188134Y-12677781D01*
X47175346Y-12695024D01*
X47160930Y-12710930D01*
X47145024Y-12725346D01*
X47127781Y-12738134D01*
X47109368Y-12749170D01*
X47089962Y-12758349D01*
X47069750Y-12765581D01*
X47048926Y-12770797D01*
X47027691Y-12773947D01*
X47006250Y-12775000D01*
X46568750Y-12775000D01*
X46547309Y-12773947D01*
X46526074Y-12770797D01*
X46505250Y-12765581D01*
X46485038Y-12758349D01*
X46465632Y-12749170D01*
X46447219Y-12738134D01*
X46429976Y-12725346D01*
X46414070Y-12710930D01*
X46399654Y-12695024D01*
X46386866Y-12677781D01*
X46375830Y-12659368D01*
X46366651Y-12639962D01*
X46359419Y-12619750D01*
X46354203Y-12598926D01*
X46351053Y-12577691D01*
X46350000Y-12556250D01*
X46350000Y-12043750D01*
X46351053Y-12022309D01*
X46354203Y-12001074D01*
X46359419Y-11980250D01*
X46366651Y-11960038D01*
X46375830Y-11940632D01*
X46386866Y-11922219D01*
X46399654Y-11904976D01*
X46414070Y-11889070D01*
X46429976Y-11874654D01*
X46447219Y-11861866D01*
X46465632Y-11850830D01*
X46485038Y-11841651D01*
X46505250Y-11834419D01*
X46526074Y-11829203D01*
X46547309Y-11826053D01*
X46568750Y-11825000D01*
X47006250Y-11825000D01*
X47027691Y-11826053D01*
G37*
G36*
X37480142Y-13451174D02*
G01*
X37503803Y-13454684D01*
X37527007Y-13460496D01*
X37549529Y-13468554D01*
X37571153Y-13478782D01*
X37591670Y-13491079D01*
X37610883Y-13505329D01*
X37628607Y-13521393D01*
X37644671Y-13539117D01*
X37658921Y-13558330D01*
X37671218Y-13578847D01*
X37681446Y-13600471D01*
X37689504Y-13622993D01*
X37695316Y-13646197D01*
X37698826Y-13669858D01*
X37700000Y-13693750D01*
X37700000Y-14181250D01*
X37698826Y-14205142D01*
X37695316Y-14228803D01*
X37689504Y-14252007D01*
X37681446Y-14274529D01*
X37671218Y-14296153D01*
X37658921Y-14316670D01*
X37644671Y-14335883D01*
X37628607Y-14353607D01*
X37610883Y-14369671D01*
X37591670Y-14383921D01*
X37571153Y-14396218D01*
X37549529Y-14406446D01*
X37527007Y-14414504D01*
X37503803Y-14420316D01*
X37480142Y-14423826D01*
X37456250Y-14425000D01*
X36543750Y-14425000D01*
X36519858Y-14423826D01*
X36496197Y-14420316D01*
X36472993Y-14414504D01*
X36450471Y-14406446D01*
X36428847Y-14396218D01*
X36408330Y-14383921D01*
X36389117Y-14369671D01*
X36371393Y-14353607D01*
X36355329Y-14335883D01*
X36341079Y-14316670D01*
X36328782Y-14296153D01*
X36318554Y-14274529D01*
X36310496Y-14252007D01*
X36304684Y-14228803D01*
X36301174Y-14205142D01*
X36300000Y-14181250D01*
X36300000Y-13693750D01*
X36301174Y-13669858D01*
X36304684Y-13646197D01*
X36310496Y-13622993D01*
X36318554Y-13600471D01*
X36328782Y-13578847D01*
X36341079Y-13558330D01*
X36355329Y-13539117D01*
X36371393Y-13521393D01*
X36389117Y-13505329D01*
X36408330Y-13491079D01*
X36428847Y-13478782D01*
X36450471Y-13468554D01*
X36472993Y-13460496D01*
X36496197Y-13454684D01*
X36519858Y-13451174D01*
X36543750Y-13450000D01*
X37456250Y-13450000D01*
X37480142Y-13451174D01*
G37*
G36*
X37480142Y-11576174D02*
G01*
X37503803Y-11579684D01*
X37527007Y-11585496D01*
X37549529Y-11593554D01*
X37571153Y-11603782D01*
X37591670Y-11616079D01*
X37610883Y-11630329D01*
X37628607Y-11646393D01*
X37644671Y-11664117D01*
X37658921Y-11683330D01*
X37671218Y-11703847D01*
X37681446Y-11725471D01*
X37689504Y-11747993D01*
X37695316Y-11771197D01*
X37698826Y-11794858D01*
X37700000Y-11818750D01*
X37700000Y-12306250D01*
X37698826Y-12330142D01*
X37695316Y-12353803D01*
X37689504Y-12377007D01*
X37681446Y-12399529D01*
X37671218Y-12421153D01*
X37658921Y-12441670D01*
X37644671Y-12460883D01*
X37628607Y-12478607D01*
X37610883Y-12494671D01*
X37591670Y-12508921D01*
X37571153Y-12521218D01*
X37549529Y-12531446D01*
X37527007Y-12539504D01*
X37503803Y-12545316D01*
X37480142Y-12548826D01*
X37456250Y-12550000D01*
X36543750Y-12550000D01*
X36519858Y-12548826D01*
X36496197Y-12545316D01*
X36472993Y-12539504D01*
X36450471Y-12531446D01*
X36428847Y-12521218D01*
X36408330Y-12508921D01*
X36389117Y-12494671D01*
X36371393Y-12478607D01*
X36355329Y-12460883D01*
X36341079Y-12441670D01*
X36328782Y-12421153D01*
X36318554Y-12399529D01*
X36310496Y-12377007D01*
X36304684Y-12353803D01*
X36301174Y-12330142D01*
X36300000Y-12306250D01*
X36300000Y-11818750D01*
X36301174Y-11794858D01*
X36304684Y-11771197D01*
X36310496Y-11747993D01*
X36318554Y-11725471D01*
X36328782Y-11703847D01*
X36341079Y-11683330D01*
X36355329Y-11664117D01*
X36371393Y-11646393D01*
X36389117Y-11630329D01*
X36408330Y-11616079D01*
X36428847Y-11603782D01*
X36450471Y-11593554D01*
X36472993Y-11585496D01*
X36496197Y-11579684D01*
X36519858Y-11576174D01*
X36543750Y-11575000D01*
X37456250Y-11575000D01*
X37480142Y-11576174D01*
G37*
D12*
X41500000Y-8850000D03*
X41500000Y-4150000D03*
D11*
G36*
X35580142Y-13451174D02*
G01*
X35603803Y-13454684D01*
X35627007Y-13460496D01*
X35649529Y-13468554D01*
X35671153Y-13478782D01*
X35691670Y-13491079D01*
X35710883Y-13505329D01*
X35728607Y-13521393D01*
X35744671Y-13539117D01*
X35758921Y-13558330D01*
X35771218Y-13578847D01*
X35781446Y-13600471D01*
X35789504Y-13622993D01*
X35795316Y-13646197D01*
X35798826Y-13669858D01*
X35800000Y-13693750D01*
X35800000Y-14181250D01*
X35798826Y-14205142D01*
X35795316Y-14228803D01*
X35789504Y-14252007D01*
X35781446Y-14274529D01*
X35771218Y-14296153D01*
X35758921Y-14316670D01*
X35744671Y-14335883D01*
X35728607Y-14353607D01*
X35710883Y-14369671D01*
X35691670Y-14383921D01*
X35671153Y-14396218D01*
X35649529Y-14406446D01*
X35627007Y-14414504D01*
X35603803Y-14420316D01*
X35580142Y-14423826D01*
X35556250Y-14425000D01*
X34643750Y-14425000D01*
X34619858Y-14423826D01*
X34596197Y-14420316D01*
X34572993Y-14414504D01*
X34550471Y-14406446D01*
X34528847Y-14396218D01*
X34508330Y-14383921D01*
X34489117Y-14369671D01*
X34471393Y-14353607D01*
X34455329Y-14335883D01*
X34441079Y-14316670D01*
X34428782Y-14296153D01*
X34418554Y-14274529D01*
X34410496Y-14252007D01*
X34404684Y-14228803D01*
X34401174Y-14205142D01*
X34400000Y-14181250D01*
X34400000Y-13693750D01*
X34401174Y-13669858D01*
X34404684Y-13646197D01*
X34410496Y-13622993D01*
X34418554Y-13600471D01*
X34428782Y-13578847D01*
X34441079Y-13558330D01*
X34455329Y-13539117D01*
X34471393Y-13521393D01*
X34489117Y-13505329D01*
X34508330Y-13491079D01*
X34528847Y-13478782D01*
X34550471Y-13468554D01*
X34572993Y-13460496D01*
X34596197Y-13454684D01*
X34619858Y-13451174D01*
X34643750Y-13450000D01*
X35556250Y-13450000D01*
X35580142Y-13451174D01*
G37*
G36*
X35580142Y-11576174D02*
G01*
X35603803Y-11579684D01*
X35627007Y-11585496D01*
X35649529Y-11593554D01*
X35671153Y-11603782D01*
X35691670Y-11616079D01*
X35710883Y-11630329D01*
X35728607Y-11646393D01*
X35744671Y-11664117D01*
X35758921Y-11683330D01*
X35771218Y-11703847D01*
X35781446Y-11725471D01*
X35789504Y-11747993D01*
X35795316Y-11771197D01*
X35798826Y-11794858D01*
X35800000Y-11818750D01*
X35800000Y-12306250D01*
X35798826Y-12330142D01*
X35795316Y-12353803D01*
X35789504Y-12377007D01*
X35781446Y-12399529D01*
X35771218Y-12421153D01*
X35758921Y-12441670D01*
X35744671Y-12460883D01*
X35728607Y-12478607D01*
X35710883Y-12494671D01*
X35691670Y-12508921D01*
X35671153Y-12521218D01*
X35649529Y-12531446D01*
X35627007Y-12539504D01*
X35603803Y-12545316D01*
X35580142Y-12548826D01*
X35556250Y-12550000D01*
X34643750Y-12550000D01*
X34619858Y-12548826D01*
X34596197Y-12545316D01*
X34572993Y-12539504D01*
X34550471Y-12531446D01*
X34528847Y-12521218D01*
X34508330Y-12508921D01*
X34489117Y-12494671D01*
X34471393Y-12478607D01*
X34455329Y-12460883D01*
X34441079Y-12441670D01*
X34428782Y-12421153D01*
X34418554Y-12399529D01*
X34410496Y-12377007D01*
X34404684Y-12353803D01*
X34401174Y-12330142D01*
X34400000Y-12306250D01*
X34400000Y-11818750D01*
X34401174Y-11794858D01*
X34404684Y-11771197D01*
X34410496Y-11747993D01*
X34418554Y-11725471D01*
X34428782Y-11703847D01*
X34441079Y-11683330D01*
X34455329Y-11664117D01*
X34471393Y-11646393D01*
X34489117Y-11630329D01*
X34508330Y-11616079D01*
X34528847Y-11603782D01*
X34550471Y-11593554D01*
X34572993Y-11585496D01*
X34596197Y-11579684D01*
X34619858Y-11576174D01*
X34643750Y-11575000D01*
X35556250Y-11575000D01*
X35580142Y-11576174D01*
G37*
G36*
X37555142Y-5801174D02*
G01*
X37578803Y-5804684D01*
X37602007Y-5810496D01*
X37624529Y-5818554D01*
X37646153Y-5828782D01*
X37666670Y-5841079D01*
X37685883Y-5855329D01*
X37703607Y-5871393D01*
X37719671Y-5889117D01*
X37733921Y-5908330D01*
X37746218Y-5928847D01*
X37756446Y-5950471D01*
X37764504Y-5972993D01*
X37770316Y-5996197D01*
X37773826Y-6019858D01*
X37775000Y-6043750D01*
X37775000Y-6956250D01*
X37773826Y-6980142D01*
X37770316Y-7003803D01*
X37764504Y-7027007D01*
X37756446Y-7049529D01*
X37746218Y-7071153D01*
X37733921Y-7091670D01*
X37719671Y-7110883D01*
X37703607Y-7128607D01*
X37685883Y-7144671D01*
X37666670Y-7158921D01*
X37646153Y-7171218D01*
X37624529Y-7181446D01*
X37602007Y-7189504D01*
X37578803Y-7195316D01*
X37555142Y-7198826D01*
X37531250Y-7200000D01*
X37043750Y-7200000D01*
X37019858Y-7198826D01*
X36996197Y-7195316D01*
X36972993Y-7189504D01*
X36950471Y-7181446D01*
X36928847Y-7171218D01*
X36908330Y-7158921D01*
X36889117Y-7144671D01*
X36871393Y-7128607D01*
X36855329Y-7110883D01*
X36841079Y-7091670D01*
X36828782Y-7071153D01*
X36818554Y-7049529D01*
X36810496Y-7027007D01*
X36804684Y-7003803D01*
X36801174Y-6980142D01*
X36800000Y-6956250D01*
X36800000Y-6043750D01*
X36801174Y-6019858D01*
X36804684Y-5996197D01*
X36810496Y-5972993D01*
X36818554Y-5950471D01*
X36828782Y-5928847D01*
X36841079Y-5908330D01*
X36855329Y-5889117D01*
X36871393Y-5871393D01*
X36889117Y-5855329D01*
X36908330Y-5841079D01*
X36928847Y-5828782D01*
X36950471Y-5818554D01*
X36972993Y-5810496D01*
X36996197Y-5804684D01*
X37019858Y-5801174D01*
X37043750Y-5800000D01*
X37531250Y-5800000D01*
X37555142Y-5801174D01*
G37*
G36*
X35680142Y-5801174D02*
G01*
X35703803Y-5804684D01*
X35727007Y-5810496D01*
X35749529Y-5818554D01*
X35771153Y-5828782D01*
X35791670Y-5841079D01*
X35810883Y-5855329D01*
X35828607Y-5871393D01*
X35844671Y-5889117D01*
X35858921Y-5908330D01*
X35871218Y-5928847D01*
X35881446Y-5950471D01*
X35889504Y-5972993D01*
X35895316Y-5996197D01*
X35898826Y-6019858D01*
X35900000Y-6043750D01*
X35900000Y-6956250D01*
X35898826Y-6980142D01*
X35895316Y-7003803D01*
X35889504Y-7027007D01*
X35881446Y-7049529D01*
X35871218Y-7071153D01*
X35858921Y-7091670D01*
X35844671Y-7110883D01*
X35828607Y-7128607D01*
X35810883Y-7144671D01*
X35791670Y-7158921D01*
X35771153Y-7171218D01*
X35749529Y-7181446D01*
X35727007Y-7189504D01*
X35703803Y-7195316D01*
X35680142Y-7198826D01*
X35656250Y-7200000D01*
X35168750Y-7200000D01*
X35144858Y-7198826D01*
X35121197Y-7195316D01*
X35097993Y-7189504D01*
X35075471Y-7181446D01*
X35053847Y-7171218D01*
X35033330Y-7158921D01*
X35014117Y-7144671D01*
X34996393Y-7128607D01*
X34980329Y-7110883D01*
X34966079Y-7091670D01*
X34953782Y-7071153D01*
X34943554Y-7049529D01*
X34935496Y-7027007D01*
X34929684Y-7003803D01*
X34926174Y-6980142D01*
X34925000Y-6956250D01*
X34925000Y-6043750D01*
X34926174Y-6019858D01*
X34929684Y-5996197D01*
X34935496Y-5972993D01*
X34943554Y-5950471D01*
X34953782Y-5928847D01*
X34966079Y-5908330D01*
X34980329Y-5889117D01*
X34996393Y-5871393D01*
X35014117Y-5855329D01*
X35033330Y-5841079D01*
X35053847Y-5828782D01*
X35075471Y-5818554D01*
X35097993Y-5810496D01*
X35121197Y-5804684D01*
X35144858Y-5801174D01*
X35168750Y-5800000D01*
X35656250Y-5800000D01*
X35680142Y-5801174D01*
G37*
G36*
X46077691Y-8776053D02*
G01*
X46098926Y-8779203D01*
X46119750Y-8784419D01*
X46139962Y-8791651D01*
X46159368Y-8800830D01*
X46177781Y-8811866D01*
X46195024Y-8824654D01*
X46210930Y-8839070D01*
X46225346Y-8854976D01*
X46238134Y-8872219D01*
X46249170Y-8890632D01*
X46258349Y-8910038D01*
X46265581Y-8930250D01*
X46270797Y-8951074D01*
X46273947Y-8972309D01*
X46275000Y-8993750D01*
X46275000Y-9431250D01*
X46273947Y-9452691D01*
X46270797Y-9473926D01*
X46265581Y-9494750D01*
X46258349Y-9514962D01*
X46249170Y-9534368D01*
X46238134Y-9552781D01*
X46225346Y-9570024D01*
X46210930Y-9585930D01*
X46195024Y-9600346D01*
X46177781Y-9613134D01*
X46159368Y-9624170D01*
X46139962Y-9633349D01*
X46119750Y-9640581D01*
X46098926Y-9645797D01*
X46077691Y-9648947D01*
X46056250Y-9650000D01*
X45543750Y-9650000D01*
X45522309Y-9648947D01*
X45501074Y-9645797D01*
X45480250Y-9640581D01*
X45460038Y-9633349D01*
X45440632Y-9624170D01*
X45422219Y-9613134D01*
X45404976Y-9600346D01*
X45389070Y-9585930D01*
X45374654Y-9570024D01*
X45361866Y-9552781D01*
X45350830Y-9534368D01*
X45341651Y-9514962D01*
X45334419Y-9494750D01*
X45329203Y-9473926D01*
X45326053Y-9452691D01*
X45325000Y-9431250D01*
X45325000Y-8993750D01*
X45326053Y-8972309D01*
X45329203Y-8951074D01*
X45334419Y-8930250D01*
X45341651Y-8910038D01*
X45350830Y-8890632D01*
X45361866Y-8872219D01*
X45374654Y-8854976D01*
X45389070Y-8839070D01*
X45404976Y-8824654D01*
X45422219Y-8811866D01*
X45440632Y-8800830D01*
X45460038Y-8791651D01*
X45480250Y-8784419D01*
X45501074Y-8779203D01*
X45522309Y-8776053D01*
X45543750Y-8775000D01*
X46056250Y-8775000D01*
X46077691Y-8776053D01*
G37*
G36*
X46077691Y-10351053D02*
G01*
X46098926Y-10354203D01*
X46119750Y-10359419D01*
X46139962Y-10366651D01*
X46159368Y-10375830D01*
X46177781Y-10386866D01*
X46195024Y-10399654D01*
X46210930Y-10414070D01*
X46225346Y-10429976D01*
X46238134Y-10447219D01*
X46249170Y-10465632D01*
X46258349Y-10485038D01*
X46265581Y-10505250D01*
X46270797Y-10526074D01*
X46273947Y-10547309D01*
X46275000Y-10568750D01*
X46275000Y-11006250D01*
X46273947Y-11027691D01*
X46270797Y-11048926D01*
X46265581Y-11069750D01*
X46258349Y-11089962D01*
X46249170Y-11109368D01*
X46238134Y-11127781D01*
X46225346Y-11145024D01*
X46210930Y-11160930D01*
X46195024Y-11175346D01*
X46177781Y-11188134D01*
X46159368Y-11199170D01*
X46139962Y-11208349D01*
X46119750Y-11215581D01*
X46098926Y-11220797D01*
X46077691Y-11223947D01*
X46056250Y-11225000D01*
X45543750Y-11225000D01*
X45522309Y-11223947D01*
X45501074Y-11220797D01*
X45480250Y-11215581D01*
X45460038Y-11208349D01*
X45440632Y-11199170D01*
X45422219Y-11188134D01*
X45404976Y-11175346D01*
X45389070Y-11160930D01*
X45374654Y-11145024D01*
X45361866Y-11127781D01*
X45350830Y-11109368D01*
X45341651Y-11089962D01*
X45334419Y-11069750D01*
X45329203Y-11048926D01*
X45326053Y-11027691D01*
X45325000Y-11006250D01*
X45325000Y-10568750D01*
X45326053Y-10547309D01*
X45329203Y-10526074D01*
X45334419Y-10505250D01*
X45341651Y-10485038D01*
X45350830Y-10465632D01*
X45361866Y-10447219D01*
X45374654Y-10429976D01*
X45389070Y-10414070D01*
X45404976Y-10399654D01*
X45422219Y-10386866D01*
X45440632Y-10375830D01*
X45460038Y-10366651D01*
X45480250Y-10359419D01*
X45501074Y-10354203D01*
X45522309Y-10351053D01*
X45543750Y-10350000D01*
X46056250Y-10350000D01*
X46077691Y-10351053D01*
G37*
D12*
X28100000Y-8850000D03*
X28100000Y-4150000D03*
D11*
G36*
X45452691Y-13326053D02*
G01*
X45473926Y-13329203D01*
X45494750Y-13334419D01*
X45514962Y-13341651D01*
X45534368Y-13350830D01*
X45552781Y-13361866D01*
X45570024Y-13374654D01*
X45585930Y-13389070D01*
X45600346Y-13404976D01*
X45613134Y-13422219D01*
X45624170Y-13440632D01*
X45633349Y-13460038D01*
X45640581Y-13480250D01*
X45645797Y-13501074D01*
X45648947Y-13522309D01*
X45650000Y-13543750D01*
X45650000Y-14056250D01*
X45648947Y-14077691D01*
X45645797Y-14098926D01*
X45640581Y-14119750D01*
X45633349Y-14139962D01*
X45624170Y-14159368D01*
X45613134Y-14177781D01*
X45600346Y-14195024D01*
X45585930Y-14210930D01*
X45570024Y-14225346D01*
X45552781Y-14238134D01*
X45534368Y-14249170D01*
X45514962Y-14258349D01*
X45494750Y-14265581D01*
X45473926Y-14270797D01*
X45452691Y-14273947D01*
X45431250Y-14275000D01*
X44993750Y-14275000D01*
X44972309Y-14273947D01*
X44951074Y-14270797D01*
X44930250Y-14265581D01*
X44910038Y-14258349D01*
X44890632Y-14249170D01*
X44872219Y-14238134D01*
X44854976Y-14225346D01*
X44839070Y-14210930D01*
X44824654Y-14195024D01*
X44811866Y-14177781D01*
X44800830Y-14159368D01*
X44791651Y-14139962D01*
X44784419Y-14119750D01*
X44779203Y-14098926D01*
X44776053Y-14077691D01*
X44775000Y-14056250D01*
X44775000Y-13543750D01*
X44776053Y-13522309D01*
X44779203Y-13501074D01*
X44784419Y-13480250D01*
X44791651Y-13460038D01*
X44800830Y-13440632D01*
X44811866Y-13422219D01*
X44824654Y-13404976D01*
X44839070Y-13389070D01*
X44854976Y-13374654D01*
X44872219Y-13361866D01*
X44890632Y-13350830D01*
X44910038Y-13341651D01*
X44930250Y-13334419D01*
X44951074Y-13329203D01*
X44972309Y-13326053D01*
X44993750Y-13325000D01*
X45431250Y-13325000D01*
X45452691Y-13326053D01*
G37*
G36*
X47027691Y-13326053D02*
G01*
X47048926Y-13329203D01*
X47069750Y-13334419D01*
X47089962Y-13341651D01*
X47109368Y-13350830D01*
X47127781Y-13361866D01*
X47145024Y-13374654D01*
X47160930Y-13389070D01*
X47175346Y-13404976D01*
X47188134Y-13422219D01*
X47199170Y-13440632D01*
X47208349Y-13460038D01*
X47215581Y-13480250D01*
X47220797Y-13501074D01*
X47223947Y-13522309D01*
X47225000Y-13543750D01*
X47225000Y-14056250D01*
X47223947Y-14077691D01*
X47220797Y-14098926D01*
X47215581Y-14119750D01*
X47208349Y-14139962D01*
X47199170Y-14159368D01*
X47188134Y-14177781D01*
X47175346Y-14195024D01*
X47160930Y-14210930D01*
X47145024Y-14225346D01*
X47127781Y-14238134D01*
X47109368Y-14249170D01*
X47089962Y-14258349D01*
X47069750Y-14265581D01*
X47048926Y-14270797D01*
X47027691Y-14273947D01*
X47006250Y-14275000D01*
X46568750Y-14275000D01*
X46547309Y-14273947D01*
X46526074Y-14270797D01*
X46505250Y-14265581D01*
X46485038Y-14258349D01*
X46465632Y-14249170D01*
X46447219Y-14238134D01*
X46429976Y-14225346D01*
X46414070Y-14210930D01*
X46399654Y-14195024D01*
X46386866Y-14177781D01*
X46375830Y-14159368D01*
X46366651Y-14139962D01*
X46359419Y-14119750D01*
X46354203Y-14098926D01*
X46351053Y-14077691D01*
X46350000Y-14056250D01*
X46350000Y-13543750D01*
X46351053Y-13522309D01*
X46354203Y-13501074D01*
X46359419Y-13480250D01*
X46366651Y-13460038D01*
X46375830Y-13440632D01*
X46386866Y-13422219D01*
X46399654Y-13404976D01*
X46414070Y-13389070D01*
X46429976Y-13374654D01*
X46447219Y-13361866D01*
X46465632Y-13350830D01*
X46485038Y-13341651D01*
X46505250Y-13334419D01*
X46526074Y-13329203D01*
X46547309Y-13326053D01*
X46568750Y-13325000D01*
X47006250Y-13325000D01*
X47027691Y-13326053D01*
G37*
D13*
X52050000Y-8100000D03*
X51100000Y-8100000D03*
X50150000Y-8100000D03*
X50150000Y-10300000D03*
X52050000Y-10300000D03*
D11*
G36*
X32052691Y-11826053D02*
G01*
X32073926Y-11829203D01*
X32094750Y-11834419D01*
X32114962Y-11841651D01*
X32134368Y-11850830D01*
X32152781Y-11861866D01*
X32170024Y-11874654D01*
X32185930Y-11889070D01*
X32200346Y-11904976D01*
X32213134Y-11922219D01*
X32224170Y-11940632D01*
X32233349Y-11960038D01*
X32240581Y-11980250D01*
X32245797Y-12001074D01*
X32248947Y-12022309D01*
X32250000Y-12043750D01*
X32250000Y-12556250D01*
X32248947Y-12577691D01*
X32245797Y-12598926D01*
X32240581Y-12619750D01*
X32233349Y-12639962D01*
X32224170Y-12659368D01*
X32213134Y-12677781D01*
X32200346Y-12695024D01*
X32185930Y-12710930D01*
X32170024Y-12725346D01*
X32152781Y-12738134D01*
X32134368Y-12749170D01*
X32114962Y-12758349D01*
X32094750Y-12765581D01*
X32073926Y-12770797D01*
X32052691Y-12773947D01*
X32031250Y-12775000D01*
X31593750Y-12775000D01*
X31572309Y-12773947D01*
X31551074Y-12770797D01*
X31530250Y-12765581D01*
X31510038Y-12758349D01*
X31490632Y-12749170D01*
X31472219Y-12738134D01*
X31454976Y-12725346D01*
X31439070Y-12710930D01*
X31424654Y-12695024D01*
X31411866Y-12677781D01*
X31400830Y-12659368D01*
X31391651Y-12639962D01*
X31384419Y-12619750D01*
X31379203Y-12598926D01*
X31376053Y-12577691D01*
X31375000Y-12556250D01*
X31375000Y-12043750D01*
X31376053Y-12022309D01*
X31379203Y-12001074D01*
X31384419Y-11980250D01*
X31391651Y-11960038D01*
X31400830Y-11940632D01*
X31411866Y-11922219D01*
X31424654Y-11904976D01*
X31439070Y-11889070D01*
X31454976Y-11874654D01*
X31472219Y-11861866D01*
X31490632Y-11850830D01*
X31510038Y-11841651D01*
X31530250Y-11834419D01*
X31551074Y-11829203D01*
X31572309Y-11826053D01*
X31593750Y-11825000D01*
X32031250Y-11825000D01*
X32052691Y-11826053D01*
G37*
G36*
X33627691Y-11826053D02*
G01*
X33648926Y-11829203D01*
X33669750Y-11834419D01*
X33689962Y-11841651D01*
X33709368Y-11850830D01*
X33727781Y-11861866D01*
X33745024Y-11874654D01*
X33760930Y-11889070D01*
X33775346Y-11904976D01*
X33788134Y-11922219D01*
X33799170Y-11940632D01*
X33808349Y-11960038D01*
X33815581Y-11980250D01*
X33820797Y-12001074D01*
X33823947Y-12022309D01*
X33825000Y-12043750D01*
X33825000Y-12556250D01*
X33823947Y-12577691D01*
X33820797Y-12598926D01*
X33815581Y-12619750D01*
X33808349Y-12639962D01*
X33799170Y-12659368D01*
X33788134Y-12677781D01*
X33775346Y-12695024D01*
X33760930Y-12710930D01*
X33745024Y-12725346D01*
X33727781Y-12738134D01*
X33709368Y-12749170D01*
X33689962Y-12758349D01*
X33669750Y-12765581D01*
X33648926Y-12770797D01*
X33627691Y-12773947D01*
X33606250Y-12775000D01*
X33168750Y-12775000D01*
X33147309Y-12773947D01*
X33126074Y-12770797D01*
X33105250Y-12765581D01*
X33085038Y-12758349D01*
X33065632Y-12749170D01*
X33047219Y-12738134D01*
X33029976Y-12725346D01*
X33014070Y-12710930D01*
X32999654Y-12695024D01*
X32986866Y-12677781D01*
X32975830Y-12659368D01*
X32966651Y-12639962D01*
X32959419Y-12619750D01*
X32954203Y-12598926D01*
X32951053Y-12577691D01*
X32950000Y-12556250D01*
X32950000Y-12043750D01*
X32951053Y-12022309D01*
X32954203Y-12001074D01*
X32959419Y-11980250D01*
X32966651Y-11960038D01*
X32975830Y-11940632D01*
X32986866Y-11922219D01*
X32999654Y-11904976D01*
X33014070Y-11889070D01*
X33029976Y-11874654D01*
X33047219Y-11861866D01*
X33065632Y-11850830D01*
X33085038Y-11841651D01*
X33105250Y-11834419D01*
X33126074Y-11829203D01*
X33147309Y-11826053D01*
X33168750Y-11825000D01*
X33606250Y-11825000D01*
X33627691Y-11826053D01*
G37*
G36*
X52305142Y-3801174D02*
G01*
X52328803Y-3804684D01*
X52352007Y-3810496D01*
X52374529Y-3818554D01*
X52396153Y-3828782D01*
X52416670Y-3841079D01*
X52435883Y-3855329D01*
X52453607Y-3871393D01*
X52469671Y-3889117D01*
X52483921Y-3908330D01*
X52496218Y-3928847D01*
X52506446Y-3950471D01*
X52514504Y-3972993D01*
X52520316Y-3996197D01*
X52523826Y-4019858D01*
X52525000Y-4043750D01*
X52525000Y-4956250D01*
X52523826Y-4980142D01*
X52520316Y-5003803D01*
X52514504Y-5027007D01*
X52506446Y-5049529D01*
X52496218Y-5071153D01*
X52483921Y-5091670D01*
X52469671Y-5110883D01*
X52453607Y-5128607D01*
X52435883Y-5144671D01*
X52416670Y-5158921D01*
X52396153Y-5171218D01*
X52374529Y-5181446D01*
X52352007Y-5189504D01*
X52328803Y-5195316D01*
X52305142Y-5198826D01*
X52281250Y-5200000D01*
X51793750Y-5200000D01*
X51769858Y-5198826D01*
X51746197Y-5195316D01*
X51722993Y-5189504D01*
X51700471Y-5181446D01*
X51678847Y-5171218D01*
X51658330Y-5158921D01*
X51639117Y-5144671D01*
X51621393Y-5128607D01*
X51605329Y-5110883D01*
X51591079Y-5091670D01*
X51578782Y-5071153D01*
X51568554Y-5049529D01*
X51560496Y-5027007D01*
X51554684Y-5003803D01*
X51551174Y-4980142D01*
X51550000Y-4956250D01*
X51550000Y-4043750D01*
X51551174Y-4019858D01*
X51554684Y-3996197D01*
X51560496Y-3972993D01*
X51568554Y-3950471D01*
X51578782Y-3928847D01*
X51591079Y-3908330D01*
X51605329Y-3889117D01*
X51621393Y-3871393D01*
X51639117Y-3855329D01*
X51658330Y-3841079D01*
X51678847Y-3828782D01*
X51700471Y-3818554D01*
X51722993Y-3810496D01*
X51746197Y-3804684D01*
X51769858Y-3801174D01*
X51793750Y-3800000D01*
X52281250Y-3800000D01*
X52305142Y-3801174D01*
G37*
G36*
X50430142Y-3801174D02*
G01*
X50453803Y-3804684D01*
X50477007Y-3810496D01*
X50499529Y-3818554D01*
X50521153Y-3828782D01*
X50541670Y-3841079D01*
X50560883Y-3855329D01*
X50578607Y-3871393D01*
X50594671Y-3889117D01*
X50608921Y-3908330D01*
X50621218Y-3928847D01*
X50631446Y-3950471D01*
X50639504Y-3972993D01*
X50645316Y-3996197D01*
X50648826Y-4019858D01*
X50650000Y-4043750D01*
X50650000Y-4956250D01*
X50648826Y-4980142D01*
X50645316Y-5003803D01*
X50639504Y-5027007D01*
X50631446Y-5049529D01*
X50621218Y-5071153D01*
X50608921Y-5091670D01*
X50594671Y-5110883D01*
X50578607Y-5128607D01*
X50560883Y-5144671D01*
X50541670Y-5158921D01*
X50521153Y-5171218D01*
X50499529Y-5181446D01*
X50477007Y-5189504D01*
X50453803Y-5195316D01*
X50430142Y-5198826D01*
X50406250Y-5200000D01*
X49918750Y-5200000D01*
X49894858Y-5198826D01*
X49871197Y-5195316D01*
X49847993Y-5189504D01*
X49825471Y-5181446D01*
X49803847Y-5171218D01*
X49783330Y-5158921D01*
X49764117Y-5144671D01*
X49746393Y-5128607D01*
X49730329Y-5110883D01*
X49716079Y-5091670D01*
X49703782Y-5071153D01*
X49693554Y-5049529D01*
X49685496Y-5027007D01*
X49679684Y-5003803D01*
X49676174Y-4980142D01*
X49675000Y-4956250D01*
X49675000Y-4043750D01*
X49676174Y-4019858D01*
X49679684Y-3996197D01*
X49685496Y-3972993D01*
X49693554Y-3950471D01*
X49703782Y-3928847D01*
X49716079Y-3908330D01*
X49730329Y-3889117D01*
X49746393Y-3871393D01*
X49764117Y-3855329D01*
X49783330Y-3841079D01*
X49803847Y-3828782D01*
X49825471Y-3818554D01*
X49847993Y-3810496D01*
X49871197Y-3804684D01*
X49894858Y-3801174D01*
X49918750Y-3800000D01*
X50406250Y-3800000D01*
X50430142Y-3801174D01*
G37*
G36*
X50552691Y-5926053D02*
G01*
X50573926Y-5929203D01*
X50594750Y-5934419D01*
X50614962Y-5941651D01*
X50634368Y-5950830D01*
X50652781Y-5961866D01*
X50670024Y-5974654D01*
X50685930Y-5989070D01*
X50700346Y-6004976D01*
X50713134Y-6022219D01*
X50724170Y-6040632D01*
X50733349Y-6060038D01*
X50740581Y-6080250D01*
X50745797Y-6101074D01*
X50748947Y-6122309D01*
X50750000Y-6143750D01*
X50750000Y-6656250D01*
X50748947Y-6677691D01*
X50745797Y-6698926D01*
X50740581Y-6719750D01*
X50733349Y-6739962D01*
X50724170Y-6759368D01*
X50713134Y-6777781D01*
X50700346Y-6795024D01*
X50685930Y-6810930D01*
X50670024Y-6825346D01*
X50652781Y-6838134D01*
X50634368Y-6849170D01*
X50614962Y-6858349D01*
X50594750Y-6865581D01*
X50573926Y-6870797D01*
X50552691Y-6873947D01*
X50531250Y-6875000D01*
X50093750Y-6875000D01*
X50072309Y-6873947D01*
X50051074Y-6870797D01*
X50030250Y-6865581D01*
X50010038Y-6858349D01*
X49990632Y-6849170D01*
X49972219Y-6838134D01*
X49954976Y-6825346D01*
X49939070Y-6810930D01*
X49924654Y-6795024D01*
X49911866Y-6777781D01*
X49900830Y-6759368D01*
X49891651Y-6739962D01*
X49884419Y-6719750D01*
X49879203Y-6698926D01*
X49876053Y-6677691D01*
X49875000Y-6656250D01*
X49875000Y-6143750D01*
X49876053Y-6122309D01*
X49879203Y-6101074D01*
X49884419Y-6080250D01*
X49891651Y-6060038D01*
X49900830Y-6040632D01*
X49911866Y-6022219D01*
X49924654Y-6004976D01*
X49939070Y-5989070D01*
X49954976Y-5974654D01*
X49972219Y-5961866D01*
X49990632Y-5950830D01*
X50010038Y-5941651D01*
X50030250Y-5934419D01*
X50051074Y-5929203D01*
X50072309Y-5926053D01*
X50093750Y-5925000D01*
X50531250Y-5925000D01*
X50552691Y-5926053D01*
G37*
G36*
X52127691Y-5926053D02*
G01*
X52148926Y-5929203D01*
X52169750Y-5934419D01*
X52189962Y-5941651D01*
X52209368Y-5950830D01*
X52227781Y-5961866D01*
X52245024Y-5974654D01*
X52260930Y-5989070D01*
X52275346Y-6004976D01*
X52288134Y-6022219D01*
X52299170Y-6040632D01*
X52308349Y-6060038D01*
X52315581Y-6080250D01*
X52320797Y-6101074D01*
X52323947Y-6122309D01*
X52325000Y-6143750D01*
X52325000Y-6656250D01*
X52323947Y-6677691D01*
X52320797Y-6698926D01*
X52315581Y-6719750D01*
X52308349Y-6739962D01*
X52299170Y-6759368D01*
X52288134Y-6777781D01*
X52275346Y-6795024D01*
X52260930Y-6810930D01*
X52245024Y-6825346D01*
X52227781Y-6838134D01*
X52209368Y-6849170D01*
X52189962Y-6858349D01*
X52169750Y-6865581D01*
X52148926Y-6870797D01*
X52127691Y-6873947D01*
X52106250Y-6875000D01*
X51668750Y-6875000D01*
X51647309Y-6873947D01*
X51626074Y-6870797D01*
X51605250Y-6865581D01*
X51585038Y-6858349D01*
X51565632Y-6849170D01*
X51547219Y-6838134D01*
X51529976Y-6825346D01*
X51514070Y-6810930D01*
X51499654Y-6795024D01*
X51486866Y-6777781D01*
X51475830Y-6759368D01*
X51466651Y-6739962D01*
X51459419Y-6719750D01*
X51454203Y-6698926D01*
X51451053Y-6677691D01*
X51450000Y-6656250D01*
X51450000Y-6143750D01*
X51451053Y-6122309D01*
X51454203Y-6101074D01*
X51459419Y-6080250D01*
X51466651Y-6060038D01*
X51475830Y-6040632D01*
X51486866Y-6022219D01*
X51499654Y-6004976D01*
X51514070Y-5989070D01*
X51529976Y-5974654D01*
X51547219Y-5961866D01*
X51565632Y-5950830D01*
X51585038Y-5941651D01*
X51605250Y-5934419D01*
X51626074Y-5929203D01*
X51647309Y-5926053D01*
X51668750Y-5925000D01*
X52106250Y-5925000D01*
X52127691Y-5926053D01*
G37*
G36*
X50652691Y-11426053D02*
G01*
X50673926Y-11429203D01*
X50694750Y-11434419D01*
X50714962Y-11441651D01*
X50734368Y-11450830D01*
X50752781Y-11461866D01*
X50770024Y-11474654D01*
X50785930Y-11489070D01*
X50800346Y-11504976D01*
X50813134Y-11522219D01*
X50824170Y-11540632D01*
X50833349Y-11560038D01*
X50840581Y-11580250D01*
X50845797Y-11601074D01*
X50848947Y-11622309D01*
X50850000Y-11643750D01*
X50850000Y-12156250D01*
X50848947Y-12177691D01*
X50845797Y-12198926D01*
X50840581Y-12219750D01*
X50833349Y-12239962D01*
X50824170Y-12259368D01*
X50813134Y-12277781D01*
X50800346Y-12295024D01*
X50785930Y-12310930D01*
X50770024Y-12325346D01*
X50752781Y-12338134D01*
X50734368Y-12349170D01*
X50714962Y-12358349D01*
X50694750Y-12365581D01*
X50673926Y-12370797D01*
X50652691Y-12373947D01*
X50631250Y-12375000D01*
X50193750Y-12375000D01*
X50172309Y-12373947D01*
X50151074Y-12370797D01*
X50130250Y-12365581D01*
X50110038Y-12358349D01*
X50090632Y-12349170D01*
X50072219Y-12338134D01*
X50054976Y-12325346D01*
X50039070Y-12310930D01*
X50024654Y-12295024D01*
X50011866Y-12277781D01*
X50000830Y-12259368D01*
X49991651Y-12239962D01*
X49984419Y-12219750D01*
X49979203Y-12198926D01*
X49976053Y-12177691D01*
X49975000Y-12156250D01*
X49975000Y-11643750D01*
X49976053Y-11622309D01*
X49979203Y-11601074D01*
X49984419Y-11580250D01*
X49991651Y-11560038D01*
X50000830Y-11540632D01*
X50011866Y-11522219D01*
X50024654Y-11504976D01*
X50039070Y-11489070D01*
X50054976Y-11474654D01*
X50072219Y-11461866D01*
X50090632Y-11450830D01*
X50110038Y-11441651D01*
X50130250Y-11434419D01*
X50151074Y-11429203D01*
X50172309Y-11426053D01*
X50193750Y-11425000D01*
X50631250Y-11425000D01*
X50652691Y-11426053D01*
G37*
G36*
X52227691Y-11426053D02*
G01*
X52248926Y-11429203D01*
X52269750Y-11434419D01*
X52289962Y-11441651D01*
X52309368Y-11450830D01*
X52327781Y-11461866D01*
X52345024Y-11474654D01*
X52360930Y-11489070D01*
X52375346Y-11504976D01*
X52388134Y-11522219D01*
X52399170Y-11540632D01*
X52408349Y-11560038D01*
X52415581Y-11580250D01*
X52420797Y-11601074D01*
X52423947Y-11622309D01*
X52425000Y-11643750D01*
X52425000Y-12156250D01*
X52423947Y-12177691D01*
X52420797Y-12198926D01*
X52415581Y-12219750D01*
X52408349Y-12239962D01*
X52399170Y-12259368D01*
X52388134Y-12277781D01*
X52375346Y-12295024D01*
X52360930Y-12310930D01*
X52345024Y-12325346D01*
X52327781Y-12338134D01*
X52309368Y-12349170D01*
X52289962Y-12358349D01*
X52269750Y-12365581D01*
X52248926Y-12370797D01*
X52227691Y-12373947D01*
X52206250Y-12375000D01*
X51768750Y-12375000D01*
X51747309Y-12373947D01*
X51726074Y-12370797D01*
X51705250Y-12365581D01*
X51685038Y-12358349D01*
X51665632Y-12349170D01*
X51647219Y-12338134D01*
X51629976Y-12325346D01*
X51614070Y-12310930D01*
X51599654Y-12295024D01*
X51586866Y-12277781D01*
X51575830Y-12259368D01*
X51566651Y-12239962D01*
X51559419Y-12219750D01*
X51554203Y-12198926D01*
X51551053Y-12177691D01*
X51550000Y-12156250D01*
X51550000Y-11643750D01*
X51551053Y-11622309D01*
X51554203Y-11601074D01*
X51559419Y-11580250D01*
X51566651Y-11560038D01*
X51575830Y-11540632D01*
X51586866Y-11522219D01*
X51599654Y-11504976D01*
X51614070Y-11489070D01*
X51629976Y-11474654D01*
X51647219Y-11461866D01*
X51665632Y-11450830D01*
X51685038Y-11441651D01*
X51705250Y-11434419D01*
X51726074Y-11429203D01*
X51747309Y-11426053D01*
X51768750Y-11425000D01*
X52206250Y-11425000D01*
X52227691Y-11426053D01*
G37*
G36*
X52405142Y-13001174D02*
G01*
X52428803Y-13004684D01*
X52452007Y-13010496D01*
X52474529Y-13018554D01*
X52496153Y-13028782D01*
X52516670Y-13041079D01*
X52535883Y-13055329D01*
X52553607Y-13071393D01*
X52569671Y-13089117D01*
X52583921Y-13108330D01*
X52596218Y-13128847D01*
X52606446Y-13150471D01*
X52614504Y-13172993D01*
X52620316Y-13196197D01*
X52623826Y-13219858D01*
X52625000Y-13243750D01*
X52625000Y-14156250D01*
X52623826Y-14180142D01*
X52620316Y-14203803D01*
X52614504Y-14227007D01*
X52606446Y-14249529D01*
X52596218Y-14271153D01*
X52583921Y-14291670D01*
X52569671Y-14310883D01*
X52553607Y-14328607D01*
X52535883Y-14344671D01*
X52516670Y-14358921D01*
X52496153Y-14371218D01*
X52474529Y-14381446D01*
X52452007Y-14389504D01*
X52428803Y-14395316D01*
X52405142Y-14398826D01*
X52381250Y-14400000D01*
X51893750Y-14400000D01*
X51869858Y-14398826D01*
X51846197Y-14395316D01*
X51822993Y-14389504D01*
X51800471Y-14381446D01*
X51778847Y-14371218D01*
X51758330Y-14358921D01*
X51739117Y-14344671D01*
X51721393Y-14328607D01*
X51705329Y-14310883D01*
X51691079Y-14291670D01*
X51678782Y-14271153D01*
X51668554Y-14249529D01*
X51660496Y-14227007D01*
X51654684Y-14203803D01*
X51651174Y-14180142D01*
X51650000Y-14156250D01*
X51650000Y-13243750D01*
X51651174Y-13219858D01*
X51654684Y-13196197D01*
X51660496Y-13172993D01*
X51668554Y-13150471D01*
X51678782Y-13128847D01*
X51691079Y-13108330D01*
X51705329Y-13089117D01*
X51721393Y-13071393D01*
X51739117Y-13055329D01*
X51758330Y-13041079D01*
X51778847Y-13028782D01*
X51800471Y-13018554D01*
X51822993Y-13010496D01*
X51846197Y-13004684D01*
X51869858Y-13001174D01*
X51893750Y-13000000D01*
X52381250Y-13000000D01*
X52405142Y-13001174D01*
G37*
G36*
X50530142Y-13001174D02*
G01*
X50553803Y-13004684D01*
X50577007Y-13010496D01*
X50599529Y-13018554D01*
X50621153Y-13028782D01*
X50641670Y-13041079D01*
X50660883Y-13055329D01*
X50678607Y-13071393D01*
X50694671Y-13089117D01*
X50708921Y-13108330D01*
X50721218Y-13128847D01*
X50731446Y-13150471D01*
X50739504Y-13172993D01*
X50745316Y-13196197D01*
X50748826Y-13219858D01*
X50750000Y-13243750D01*
X50750000Y-14156250D01*
X50748826Y-14180142D01*
X50745316Y-14203803D01*
X50739504Y-14227007D01*
X50731446Y-14249529D01*
X50721218Y-14271153D01*
X50708921Y-14291670D01*
X50694671Y-14310883D01*
X50678607Y-14328607D01*
X50660883Y-14344671D01*
X50641670Y-14358921D01*
X50621153Y-14371218D01*
X50599529Y-14381446D01*
X50577007Y-14389504D01*
X50553803Y-14395316D01*
X50530142Y-14398826D01*
X50506250Y-14400000D01*
X50018750Y-14400000D01*
X49994858Y-14398826D01*
X49971197Y-14395316D01*
X49947993Y-14389504D01*
X49925471Y-14381446D01*
X49903847Y-14371218D01*
X49883330Y-14358921D01*
X49864117Y-14344671D01*
X49846393Y-14328607D01*
X49830329Y-14310883D01*
X49816079Y-14291670D01*
X49803782Y-14271153D01*
X49793554Y-14249529D01*
X49785496Y-14227007D01*
X49779684Y-14203803D01*
X49776174Y-14180142D01*
X49775000Y-14156250D01*
X49775000Y-13243750D01*
X49776174Y-13219858D01*
X49779684Y-13196197D01*
X49785496Y-13172993D01*
X49793554Y-13150471D01*
X49803782Y-13128847D01*
X49816079Y-13108330D01*
X49830329Y-13089117D01*
X49846393Y-13071393D01*
X49864117Y-13055329D01*
X49883330Y-13041079D01*
X49903847Y-13028782D01*
X49925471Y-13018554D01*
X49947993Y-13010496D01*
X49971197Y-13004684D01*
X49994858Y-13001174D01*
X50018750Y-13000000D01*
X50506250Y-13000000D01*
X50530142Y-13001174D01*
G37*
G36*
X22280142Y-5801174D02*
G01*
X22303803Y-5804684D01*
X22327007Y-5810496D01*
X22349529Y-5818554D01*
X22371153Y-5828782D01*
X22391670Y-5841079D01*
X22410883Y-5855329D01*
X22428607Y-5871393D01*
X22444671Y-5889117D01*
X22458921Y-5908330D01*
X22471218Y-5928847D01*
X22481446Y-5950471D01*
X22489504Y-5972993D01*
X22495316Y-5996197D01*
X22498826Y-6019858D01*
X22500000Y-6043750D01*
X22500000Y-6956250D01*
X22498826Y-6980142D01*
X22495316Y-7003803D01*
X22489504Y-7027007D01*
X22481446Y-7049529D01*
X22471218Y-7071153D01*
X22458921Y-7091670D01*
X22444671Y-7110883D01*
X22428607Y-7128607D01*
X22410883Y-7144671D01*
X22391670Y-7158921D01*
X22371153Y-7171218D01*
X22349529Y-7181446D01*
X22327007Y-7189504D01*
X22303803Y-7195316D01*
X22280142Y-7198826D01*
X22256250Y-7200000D01*
X21768750Y-7200000D01*
X21744858Y-7198826D01*
X21721197Y-7195316D01*
X21697993Y-7189504D01*
X21675471Y-7181446D01*
X21653847Y-7171218D01*
X21633330Y-7158921D01*
X21614117Y-7144671D01*
X21596393Y-7128607D01*
X21580329Y-7110883D01*
X21566079Y-7091670D01*
X21553782Y-7071153D01*
X21543554Y-7049529D01*
X21535496Y-7027007D01*
X21529684Y-7003803D01*
X21526174Y-6980142D01*
X21525000Y-6956250D01*
X21525000Y-6043750D01*
X21526174Y-6019858D01*
X21529684Y-5996197D01*
X21535496Y-5972993D01*
X21543554Y-5950471D01*
X21553782Y-5928847D01*
X21566079Y-5908330D01*
X21580329Y-5889117D01*
X21596393Y-5871393D01*
X21614117Y-5855329D01*
X21633330Y-5841079D01*
X21653847Y-5828782D01*
X21675471Y-5818554D01*
X21697993Y-5810496D01*
X21721197Y-5804684D01*
X21744858Y-5801174D01*
X21768750Y-5800000D01*
X22256250Y-5800000D01*
X22280142Y-5801174D01*
G37*
G36*
X24155142Y-5801174D02*
G01*
X24178803Y-5804684D01*
X24202007Y-5810496D01*
X24224529Y-5818554D01*
X24246153Y-5828782D01*
X24266670Y-5841079D01*
X24285883Y-5855329D01*
X24303607Y-5871393D01*
X24319671Y-5889117D01*
X24333921Y-5908330D01*
X24346218Y-5928847D01*
X24356446Y-5950471D01*
X24364504Y-5972993D01*
X24370316Y-5996197D01*
X24373826Y-6019858D01*
X24375000Y-6043750D01*
X24375000Y-6956250D01*
X24373826Y-6980142D01*
X24370316Y-7003803D01*
X24364504Y-7027007D01*
X24356446Y-7049529D01*
X24346218Y-7071153D01*
X24333921Y-7091670D01*
X24319671Y-7110883D01*
X24303607Y-7128607D01*
X24285883Y-7144671D01*
X24266670Y-7158921D01*
X24246153Y-7171218D01*
X24224529Y-7181446D01*
X24202007Y-7189504D01*
X24178803Y-7195316D01*
X24155142Y-7198826D01*
X24131250Y-7200000D01*
X23643750Y-7200000D01*
X23619858Y-7198826D01*
X23596197Y-7195316D01*
X23572993Y-7189504D01*
X23550471Y-7181446D01*
X23528847Y-7171218D01*
X23508330Y-7158921D01*
X23489117Y-7144671D01*
X23471393Y-7128607D01*
X23455329Y-7110883D01*
X23441079Y-7091670D01*
X23428782Y-7071153D01*
X23418554Y-7049529D01*
X23410496Y-7027007D01*
X23404684Y-7003803D01*
X23401174Y-6980142D01*
X23400000Y-6956250D01*
X23400000Y-6043750D01*
X23401174Y-6019858D01*
X23404684Y-5996197D01*
X23410496Y-5972993D01*
X23418554Y-5950471D01*
X23428782Y-5928847D01*
X23441079Y-5908330D01*
X23455329Y-5889117D01*
X23471393Y-5871393D01*
X23489117Y-5855329D01*
X23508330Y-5841079D01*
X23528847Y-5828782D01*
X23550471Y-5818554D01*
X23572993Y-5810496D01*
X23596197Y-5804684D01*
X23619858Y-5801174D01*
X23643750Y-5800000D01*
X24131250Y-5800000D01*
X24155142Y-5801174D01*
G37*
G36*
X22280142Y-7801174D02*
G01*
X22303803Y-7804684D01*
X22327007Y-7810496D01*
X22349529Y-7818554D01*
X22371153Y-7828782D01*
X22391670Y-7841079D01*
X22410883Y-7855329D01*
X22428607Y-7871393D01*
X22444671Y-7889117D01*
X22458921Y-7908330D01*
X22471218Y-7928847D01*
X22481446Y-7950471D01*
X22489504Y-7972993D01*
X22495316Y-7996197D01*
X22498826Y-8019858D01*
X22500000Y-8043750D01*
X22500000Y-8956250D01*
X22498826Y-8980142D01*
X22495316Y-9003803D01*
X22489504Y-9027007D01*
X22481446Y-9049529D01*
X22471218Y-9071153D01*
X22458921Y-9091670D01*
X22444671Y-9110883D01*
X22428607Y-9128607D01*
X22410883Y-9144671D01*
X22391670Y-9158921D01*
X22371153Y-9171218D01*
X22349529Y-9181446D01*
X22327007Y-9189504D01*
X22303803Y-9195316D01*
X22280142Y-9198826D01*
X22256250Y-9200000D01*
X21768750Y-9200000D01*
X21744858Y-9198826D01*
X21721197Y-9195316D01*
X21697993Y-9189504D01*
X21675471Y-9181446D01*
X21653847Y-9171218D01*
X21633330Y-9158921D01*
X21614117Y-9144671D01*
X21596393Y-9128607D01*
X21580329Y-9110883D01*
X21566079Y-9091670D01*
X21553782Y-9071153D01*
X21543554Y-9049529D01*
X21535496Y-9027007D01*
X21529684Y-9003803D01*
X21526174Y-8980142D01*
X21525000Y-8956250D01*
X21525000Y-8043750D01*
X21526174Y-8019858D01*
X21529684Y-7996197D01*
X21535496Y-7972993D01*
X21543554Y-7950471D01*
X21553782Y-7928847D01*
X21566079Y-7908330D01*
X21580329Y-7889117D01*
X21596393Y-7871393D01*
X21614117Y-7855329D01*
X21633330Y-7841079D01*
X21653847Y-7828782D01*
X21675471Y-7818554D01*
X21697993Y-7810496D01*
X21721197Y-7804684D01*
X21744858Y-7801174D01*
X21768750Y-7800000D01*
X22256250Y-7800000D01*
X22280142Y-7801174D01*
G37*
G36*
X24155142Y-7801174D02*
G01*
X24178803Y-7804684D01*
X24202007Y-7810496D01*
X24224529Y-7818554D01*
X24246153Y-7828782D01*
X24266670Y-7841079D01*
X24285883Y-7855329D01*
X24303607Y-7871393D01*
X24319671Y-7889117D01*
X24333921Y-7908330D01*
X24346218Y-7928847D01*
X24356446Y-7950471D01*
X24364504Y-7972993D01*
X24370316Y-7996197D01*
X24373826Y-8019858D01*
X24375000Y-8043750D01*
X24375000Y-8956250D01*
X24373826Y-8980142D01*
X24370316Y-9003803D01*
X24364504Y-9027007D01*
X24356446Y-9049529D01*
X24346218Y-9071153D01*
X24333921Y-9091670D01*
X24319671Y-9110883D01*
X24303607Y-9128607D01*
X24285883Y-9144671D01*
X24266670Y-9158921D01*
X24246153Y-9171218D01*
X24224529Y-9181446D01*
X24202007Y-9189504D01*
X24178803Y-9195316D01*
X24155142Y-9198826D01*
X24131250Y-9200000D01*
X23643750Y-9200000D01*
X23619858Y-9198826D01*
X23596197Y-9195316D01*
X23572993Y-9189504D01*
X23550471Y-9181446D01*
X23528847Y-9171218D01*
X23508330Y-9158921D01*
X23489117Y-9144671D01*
X23471393Y-9128607D01*
X23455329Y-9110883D01*
X23441079Y-9091670D01*
X23428782Y-9071153D01*
X23418554Y-9049529D01*
X23410496Y-9027007D01*
X23404684Y-9003803D01*
X23401174Y-8980142D01*
X23400000Y-8956250D01*
X23400000Y-8043750D01*
X23401174Y-8019858D01*
X23404684Y-7996197D01*
X23410496Y-7972993D01*
X23418554Y-7950471D01*
X23428782Y-7928847D01*
X23441079Y-7908330D01*
X23455329Y-7889117D01*
X23471393Y-7871393D01*
X23489117Y-7855329D01*
X23508330Y-7841079D01*
X23528847Y-7828782D01*
X23550471Y-7818554D01*
X23572993Y-7810496D01*
X23596197Y-7804684D01*
X23619858Y-7801174D01*
X23643750Y-7800000D01*
X24131250Y-7800000D01*
X24155142Y-7801174D01*
G37*
G36*
X32677691Y-10351053D02*
G01*
X32698926Y-10354203D01*
X32719750Y-10359419D01*
X32739962Y-10366651D01*
X32759368Y-10375830D01*
X32777781Y-10386866D01*
X32795024Y-10399654D01*
X32810930Y-10414070D01*
X32825346Y-10429976D01*
X32838134Y-10447219D01*
X32849170Y-10465632D01*
X32858349Y-10485038D01*
X32865581Y-10505250D01*
X32870797Y-10526074D01*
X32873947Y-10547309D01*
X32875000Y-10568750D01*
X32875000Y-11006250D01*
X32873947Y-11027691D01*
X32870797Y-11048926D01*
X32865581Y-11069750D01*
X32858349Y-11089962D01*
X32849170Y-11109368D01*
X32838134Y-11127781D01*
X32825346Y-11145024D01*
X32810930Y-11160930D01*
X32795024Y-11175346D01*
X32777781Y-11188134D01*
X32759368Y-11199170D01*
X32739962Y-11208349D01*
X32719750Y-11215581D01*
X32698926Y-11220797D01*
X32677691Y-11223947D01*
X32656250Y-11225000D01*
X32143750Y-11225000D01*
X32122309Y-11223947D01*
X32101074Y-11220797D01*
X32080250Y-11215581D01*
X32060038Y-11208349D01*
X32040632Y-11199170D01*
X32022219Y-11188134D01*
X32004976Y-11175346D01*
X31989070Y-11160930D01*
X31974654Y-11145024D01*
X31961866Y-11127781D01*
X31950830Y-11109368D01*
X31941651Y-11089962D01*
X31934419Y-11069750D01*
X31929203Y-11048926D01*
X31926053Y-11027691D01*
X31925000Y-11006250D01*
X31925000Y-10568750D01*
X31926053Y-10547309D01*
X31929203Y-10526074D01*
X31934419Y-10505250D01*
X31941651Y-10485038D01*
X31950830Y-10465632D01*
X31961866Y-10447219D01*
X31974654Y-10429976D01*
X31989070Y-10414070D01*
X32004976Y-10399654D01*
X32022219Y-10386866D01*
X32040632Y-10375830D01*
X32060038Y-10366651D01*
X32080250Y-10359419D01*
X32101074Y-10354203D01*
X32122309Y-10351053D01*
X32143750Y-10350000D01*
X32656250Y-10350000D01*
X32677691Y-10351053D01*
G37*
G36*
X32677691Y-8776053D02*
G01*
X32698926Y-8779203D01*
X32719750Y-8784419D01*
X32739962Y-8791651D01*
X32759368Y-8800830D01*
X32777781Y-8811866D01*
X32795024Y-8824654D01*
X32810930Y-8839070D01*
X32825346Y-8854976D01*
X32838134Y-8872219D01*
X32849170Y-8890632D01*
X32858349Y-8910038D01*
X32865581Y-8930250D01*
X32870797Y-8951074D01*
X32873947Y-8972309D01*
X32875000Y-8993750D01*
X32875000Y-9431250D01*
X32873947Y-9452691D01*
X32870797Y-9473926D01*
X32865581Y-9494750D01*
X32858349Y-9514962D01*
X32849170Y-9534368D01*
X32838134Y-9552781D01*
X32825346Y-9570024D01*
X32810930Y-9585930D01*
X32795024Y-9600346D01*
X32777781Y-9613134D01*
X32759368Y-9624170D01*
X32739962Y-9633349D01*
X32719750Y-9640581D01*
X32698926Y-9645797D01*
X32677691Y-9648947D01*
X32656250Y-9650000D01*
X32143750Y-9650000D01*
X32122309Y-9648947D01*
X32101074Y-9645797D01*
X32080250Y-9640581D01*
X32060038Y-9633349D01*
X32040632Y-9624170D01*
X32022219Y-9613134D01*
X32004976Y-9600346D01*
X31989070Y-9585930D01*
X31974654Y-9570024D01*
X31961866Y-9552781D01*
X31950830Y-9534368D01*
X31941651Y-9514962D01*
X31934419Y-9494750D01*
X31929203Y-9473926D01*
X31926053Y-9452691D01*
X31925000Y-9431250D01*
X31925000Y-8993750D01*
X31926053Y-8972309D01*
X31929203Y-8951074D01*
X31934419Y-8930250D01*
X31941651Y-8910038D01*
X31950830Y-8890632D01*
X31961866Y-8872219D01*
X31974654Y-8854976D01*
X31989070Y-8839070D01*
X32004976Y-8824654D01*
X32022219Y-8811866D01*
X32040632Y-8800830D01*
X32060038Y-8791651D01*
X32080250Y-8784419D01*
X32101074Y-8779203D01*
X32122309Y-8776053D01*
X32143750Y-8775000D01*
X32656250Y-8775000D01*
X32677691Y-8776053D01*
G37*
G36*
X25577691Y-13351053D02*
G01*
X25598926Y-13354203D01*
X25619750Y-13359419D01*
X25639962Y-13366651D01*
X25659368Y-13375830D01*
X25677781Y-13386866D01*
X25695024Y-13399654D01*
X25710930Y-13414070D01*
X25725346Y-13429976D01*
X25738134Y-13447219D01*
X25749170Y-13465632D01*
X25758349Y-13485038D01*
X25765581Y-13505250D01*
X25770797Y-13526074D01*
X25773947Y-13547309D01*
X25775000Y-13568750D01*
X25775000Y-14006250D01*
X25773947Y-14027691D01*
X25770797Y-14048926D01*
X25765581Y-14069750D01*
X25758349Y-14089962D01*
X25749170Y-14109368D01*
X25738134Y-14127781D01*
X25725346Y-14145024D01*
X25710930Y-14160930D01*
X25695024Y-14175346D01*
X25677781Y-14188134D01*
X25659368Y-14199170D01*
X25639962Y-14208349D01*
X25619750Y-14215581D01*
X25598926Y-14220797D01*
X25577691Y-14223947D01*
X25556250Y-14225000D01*
X25043750Y-14225000D01*
X25022309Y-14223947D01*
X25001074Y-14220797D01*
X24980250Y-14215581D01*
X24960038Y-14208349D01*
X24940632Y-14199170D01*
X24922219Y-14188134D01*
X24904976Y-14175346D01*
X24889070Y-14160930D01*
X24874654Y-14145024D01*
X24861866Y-14127781D01*
X24850830Y-14109368D01*
X24841651Y-14089962D01*
X24834419Y-14069750D01*
X24829203Y-14048926D01*
X24826053Y-14027691D01*
X24825000Y-14006250D01*
X24825000Y-13568750D01*
X24826053Y-13547309D01*
X24829203Y-13526074D01*
X24834419Y-13505250D01*
X24841651Y-13485038D01*
X24850830Y-13465632D01*
X24861866Y-13447219D01*
X24874654Y-13429976D01*
X24889070Y-13414070D01*
X24904976Y-13399654D01*
X24922219Y-13386866D01*
X24940632Y-13375830D01*
X24960038Y-13366651D01*
X24980250Y-13359419D01*
X25001074Y-13354203D01*
X25022309Y-13351053D01*
X25043750Y-13350000D01*
X25556250Y-13350000D01*
X25577691Y-13351053D01*
G37*
G36*
X25577691Y-11776053D02*
G01*
X25598926Y-11779203D01*
X25619750Y-11784419D01*
X25639962Y-11791651D01*
X25659368Y-11800830D01*
X25677781Y-11811866D01*
X25695024Y-11824654D01*
X25710930Y-11839070D01*
X25725346Y-11854976D01*
X25738134Y-11872219D01*
X25749170Y-11890632D01*
X25758349Y-11910038D01*
X25765581Y-11930250D01*
X25770797Y-11951074D01*
X25773947Y-11972309D01*
X25775000Y-11993750D01*
X25775000Y-12431250D01*
X25773947Y-12452691D01*
X25770797Y-12473926D01*
X25765581Y-12494750D01*
X25758349Y-12514962D01*
X25749170Y-12534368D01*
X25738134Y-12552781D01*
X25725346Y-12570024D01*
X25710930Y-12585930D01*
X25695024Y-12600346D01*
X25677781Y-12613134D01*
X25659368Y-12624170D01*
X25639962Y-12633349D01*
X25619750Y-12640581D01*
X25598926Y-12645797D01*
X25577691Y-12648947D01*
X25556250Y-12650000D01*
X25043750Y-12650000D01*
X25022309Y-12648947D01*
X25001074Y-12645797D01*
X24980250Y-12640581D01*
X24960038Y-12633349D01*
X24940632Y-12624170D01*
X24922219Y-12613134D01*
X24904976Y-12600346D01*
X24889070Y-12585930D01*
X24874654Y-12570024D01*
X24861866Y-12552781D01*
X24850830Y-12534368D01*
X24841651Y-12514962D01*
X24834419Y-12494750D01*
X24829203Y-12473926D01*
X24826053Y-12452691D01*
X24825000Y-12431250D01*
X24825000Y-11993750D01*
X24826053Y-11972309D01*
X24829203Y-11951074D01*
X24834419Y-11930250D01*
X24841651Y-11910038D01*
X24850830Y-11890632D01*
X24861866Y-11872219D01*
X24874654Y-11854976D01*
X24889070Y-11839070D01*
X24904976Y-11824654D01*
X24922219Y-11811866D01*
X24940632Y-11800830D01*
X24960038Y-11791651D01*
X24980250Y-11784419D01*
X25001074Y-11779203D01*
X25022309Y-11776053D01*
X25043750Y-11775000D01*
X25556250Y-11775000D01*
X25577691Y-11776053D01*
G37*
G36*
X24080142Y-11576174D02*
G01*
X24103803Y-11579684D01*
X24127007Y-11585496D01*
X24149529Y-11593554D01*
X24171153Y-11603782D01*
X24191670Y-11616079D01*
X24210883Y-11630329D01*
X24228607Y-11646393D01*
X24244671Y-11664117D01*
X24258921Y-11683330D01*
X24271218Y-11703847D01*
X24281446Y-11725471D01*
X24289504Y-11747993D01*
X24295316Y-11771197D01*
X24298826Y-11794858D01*
X24300000Y-11818750D01*
X24300000Y-12306250D01*
X24298826Y-12330142D01*
X24295316Y-12353803D01*
X24289504Y-12377007D01*
X24281446Y-12399529D01*
X24271218Y-12421153D01*
X24258921Y-12441670D01*
X24244671Y-12460883D01*
X24228607Y-12478607D01*
X24210883Y-12494671D01*
X24191670Y-12508921D01*
X24171153Y-12521218D01*
X24149529Y-12531446D01*
X24127007Y-12539504D01*
X24103803Y-12545316D01*
X24080142Y-12548826D01*
X24056250Y-12550000D01*
X23143750Y-12550000D01*
X23119858Y-12548826D01*
X23096197Y-12545316D01*
X23072993Y-12539504D01*
X23050471Y-12531446D01*
X23028847Y-12521218D01*
X23008330Y-12508921D01*
X22989117Y-12494671D01*
X22971393Y-12478607D01*
X22955329Y-12460883D01*
X22941079Y-12441670D01*
X22928782Y-12421153D01*
X22918554Y-12399529D01*
X22910496Y-12377007D01*
X22904684Y-12353803D01*
X22901174Y-12330142D01*
X22900000Y-12306250D01*
X22900000Y-11818750D01*
X22901174Y-11794858D01*
X22904684Y-11771197D01*
X22910496Y-11747993D01*
X22918554Y-11725471D01*
X22928782Y-11703847D01*
X22941079Y-11683330D01*
X22955329Y-11664117D01*
X22971393Y-11646393D01*
X22989117Y-11630329D01*
X23008330Y-11616079D01*
X23028847Y-11603782D01*
X23050471Y-11593554D01*
X23072993Y-11585496D01*
X23096197Y-11579684D01*
X23119858Y-11576174D01*
X23143750Y-11575000D01*
X24056250Y-11575000D01*
X24080142Y-11576174D01*
G37*
G36*
X24080142Y-13451174D02*
G01*
X24103803Y-13454684D01*
X24127007Y-13460496D01*
X24149529Y-13468554D01*
X24171153Y-13478782D01*
X24191670Y-13491079D01*
X24210883Y-13505329D01*
X24228607Y-13521393D01*
X24244671Y-13539117D01*
X24258921Y-13558330D01*
X24271218Y-13578847D01*
X24281446Y-13600471D01*
X24289504Y-13622993D01*
X24295316Y-13646197D01*
X24298826Y-13669858D01*
X24300000Y-13693750D01*
X24300000Y-14181250D01*
X24298826Y-14205142D01*
X24295316Y-14228803D01*
X24289504Y-14252007D01*
X24281446Y-14274529D01*
X24271218Y-14296153D01*
X24258921Y-14316670D01*
X24244671Y-14335883D01*
X24228607Y-14353607D01*
X24210883Y-14369671D01*
X24191670Y-14383921D01*
X24171153Y-14396218D01*
X24149529Y-14406446D01*
X24127007Y-14414504D01*
X24103803Y-14420316D01*
X24080142Y-14423826D01*
X24056250Y-14425000D01*
X23143750Y-14425000D01*
X23119858Y-14423826D01*
X23096197Y-14420316D01*
X23072993Y-14414504D01*
X23050471Y-14406446D01*
X23028847Y-14396218D01*
X23008330Y-14383921D01*
X22989117Y-14369671D01*
X22971393Y-14353607D01*
X22955329Y-14335883D01*
X22941079Y-14316670D01*
X22928782Y-14296153D01*
X22918554Y-14274529D01*
X22910496Y-14252007D01*
X22904684Y-14228803D01*
X22901174Y-14205142D01*
X22900000Y-14181250D01*
X22900000Y-13693750D01*
X22901174Y-13669858D01*
X22904684Y-13646197D01*
X22910496Y-13622993D01*
X22918554Y-13600471D01*
X22928782Y-13578847D01*
X22941079Y-13558330D01*
X22955329Y-13539117D01*
X22971393Y-13521393D01*
X22989117Y-13505329D01*
X23008330Y-13491079D01*
X23028847Y-13478782D01*
X23050471Y-13468554D01*
X23072993Y-13460496D01*
X23096197Y-13454684D01*
X23119858Y-13451174D01*
X23143750Y-13450000D01*
X24056250Y-13450000D01*
X24080142Y-13451174D01*
G37*
G36*
X22180142Y-11576174D02*
G01*
X22203803Y-11579684D01*
X22227007Y-11585496D01*
X22249529Y-11593554D01*
X22271153Y-11603782D01*
X22291670Y-11616079D01*
X22310883Y-11630329D01*
X22328607Y-11646393D01*
X22344671Y-11664117D01*
X22358921Y-11683330D01*
X22371218Y-11703847D01*
X22381446Y-11725471D01*
X22389504Y-11747993D01*
X22395316Y-11771197D01*
X22398826Y-11794858D01*
X22400000Y-11818750D01*
X22400000Y-12306250D01*
X22398826Y-12330142D01*
X22395316Y-12353803D01*
X22389504Y-12377007D01*
X22381446Y-12399529D01*
X22371218Y-12421153D01*
X22358921Y-12441670D01*
X22344671Y-12460883D01*
X22328607Y-12478607D01*
X22310883Y-12494671D01*
X22291670Y-12508921D01*
X22271153Y-12521218D01*
X22249529Y-12531446D01*
X22227007Y-12539504D01*
X22203803Y-12545316D01*
X22180142Y-12548826D01*
X22156250Y-12550000D01*
X21243750Y-12550000D01*
X21219858Y-12548826D01*
X21196197Y-12545316D01*
X21172993Y-12539504D01*
X21150471Y-12531446D01*
X21128847Y-12521218D01*
X21108330Y-12508921D01*
X21089117Y-12494671D01*
X21071393Y-12478607D01*
X21055329Y-12460883D01*
X21041079Y-12441670D01*
X21028782Y-12421153D01*
X21018554Y-12399529D01*
X21010496Y-12377007D01*
X21004684Y-12353803D01*
X21001174Y-12330142D01*
X21000000Y-12306250D01*
X21000000Y-11818750D01*
X21001174Y-11794858D01*
X21004684Y-11771197D01*
X21010496Y-11747993D01*
X21018554Y-11725471D01*
X21028782Y-11703847D01*
X21041079Y-11683330D01*
X21055329Y-11664117D01*
X21071393Y-11646393D01*
X21089117Y-11630329D01*
X21108330Y-11616079D01*
X21128847Y-11603782D01*
X21150471Y-11593554D01*
X21172993Y-11585496D01*
X21196197Y-11579684D01*
X21219858Y-11576174D01*
X21243750Y-11575000D01*
X22156250Y-11575000D01*
X22180142Y-11576174D01*
G37*
G36*
X22180142Y-13451174D02*
G01*
X22203803Y-13454684D01*
X22227007Y-13460496D01*
X22249529Y-13468554D01*
X22271153Y-13478782D01*
X22291670Y-13491079D01*
X22310883Y-13505329D01*
X22328607Y-13521393D01*
X22344671Y-13539117D01*
X22358921Y-13558330D01*
X22371218Y-13578847D01*
X22381446Y-13600471D01*
X22389504Y-13622993D01*
X22395316Y-13646197D01*
X22398826Y-13669858D01*
X22400000Y-13693750D01*
X22400000Y-14181250D01*
X22398826Y-14205142D01*
X22395316Y-14228803D01*
X22389504Y-14252007D01*
X22381446Y-14274529D01*
X22371218Y-14296153D01*
X22358921Y-14316670D01*
X22344671Y-14335883D01*
X22328607Y-14353607D01*
X22310883Y-14369671D01*
X22291670Y-14383921D01*
X22271153Y-14396218D01*
X22249529Y-14406446D01*
X22227007Y-14414504D01*
X22203803Y-14420316D01*
X22180142Y-14423826D01*
X22156250Y-14425000D01*
X21243750Y-14425000D01*
X21219858Y-14423826D01*
X21196197Y-14420316D01*
X21172993Y-14414504D01*
X21150471Y-14406446D01*
X21128847Y-14396218D01*
X21108330Y-14383921D01*
X21089117Y-14369671D01*
X21071393Y-14353607D01*
X21055329Y-14335883D01*
X21041079Y-14316670D01*
X21028782Y-14296153D01*
X21018554Y-14274529D01*
X21010496Y-14252007D01*
X21004684Y-14228803D01*
X21001174Y-14205142D01*
X21000000Y-14181250D01*
X21000000Y-13693750D01*
X21001174Y-13669858D01*
X21004684Y-13646197D01*
X21010496Y-13622993D01*
X21018554Y-13600471D01*
X21028782Y-13578847D01*
X21041079Y-13558330D01*
X21055329Y-13539117D01*
X21071393Y-13521393D01*
X21089117Y-13505329D01*
X21108330Y-13491079D01*
X21128847Y-13478782D01*
X21150471Y-13468554D01*
X21172993Y-13460496D01*
X21196197Y-13454684D01*
X21219858Y-13451174D01*
X21243750Y-13450000D01*
X22156250Y-13450000D01*
X22180142Y-13451174D01*
G37*
G36*
X12177691Y-13351053D02*
G01*
X12198926Y-13354203D01*
X12219750Y-13359419D01*
X12239962Y-13366651D01*
X12259368Y-13375830D01*
X12277781Y-13386866D01*
X12295024Y-13399654D01*
X12310930Y-13414070D01*
X12325346Y-13429976D01*
X12338134Y-13447219D01*
X12349170Y-13465632D01*
X12358349Y-13485038D01*
X12365581Y-13505250D01*
X12370797Y-13526074D01*
X12373947Y-13547309D01*
X12375000Y-13568750D01*
X12375000Y-14006250D01*
X12373947Y-14027691D01*
X12370797Y-14048926D01*
X12365581Y-14069750D01*
X12358349Y-14089962D01*
X12349170Y-14109368D01*
X12338134Y-14127781D01*
X12325346Y-14145024D01*
X12310930Y-14160930D01*
X12295024Y-14175346D01*
X12277781Y-14188134D01*
X12259368Y-14199170D01*
X12239962Y-14208349D01*
X12219750Y-14215581D01*
X12198926Y-14220797D01*
X12177691Y-14223947D01*
X12156250Y-14225000D01*
X11643750Y-14225000D01*
X11622309Y-14223947D01*
X11601074Y-14220797D01*
X11580250Y-14215581D01*
X11560038Y-14208349D01*
X11540632Y-14199170D01*
X11522219Y-14188134D01*
X11504976Y-14175346D01*
X11489070Y-14160930D01*
X11474654Y-14145024D01*
X11461866Y-14127781D01*
X11450830Y-14109368D01*
X11441651Y-14089962D01*
X11434419Y-14069750D01*
X11429203Y-14048926D01*
X11426053Y-14027691D01*
X11425000Y-14006250D01*
X11425000Y-13568750D01*
X11426053Y-13547309D01*
X11429203Y-13526074D01*
X11434419Y-13505250D01*
X11441651Y-13485038D01*
X11450830Y-13465632D01*
X11461866Y-13447219D01*
X11474654Y-13429976D01*
X11489070Y-13414070D01*
X11504976Y-13399654D01*
X11522219Y-13386866D01*
X11540632Y-13375830D01*
X11560038Y-13366651D01*
X11580250Y-13359419D01*
X11601074Y-13354203D01*
X11622309Y-13351053D01*
X11643750Y-13350000D01*
X12156250Y-13350000D01*
X12177691Y-13351053D01*
G37*
G36*
X12177691Y-11776053D02*
G01*
X12198926Y-11779203D01*
X12219750Y-11784419D01*
X12239962Y-11791651D01*
X12259368Y-11800830D01*
X12277781Y-11811866D01*
X12295024Y-11824654D01*
X12310930Y-11839070D01*
X12325346Y-11854976D01*
X12338134Y-11872219D01*
X12349170Y-11890632D01*
X12358349Y-11910038D01*
X12365581Y-11930250D01*
X12370797Y-11951074D01*
X12373947Y-11972309D01*
X12375000Y-11993750D01*
X12375000Y-12431250D01*
X12373947Y-12452691D01*
X12370797Y-12473926D01*
X12365581Y-12494750D01*
X12358349Y-12514962D01*
X12349170Y-12534368D01*
X12338134Y-12552781D01*
X12325346Y-12570024D01*
X12310930Y-12585930D01*
X12295024Y-12600346D01*
X12277781Y-12613134D01*
X12259368Y-12624170D01*
X12239962Y-12633349D01*
X12219750Y-12640581D01*
X12198926Y-12645797D01*
X12177691Y-12648947D01*
X12156250Y-12650000D01*
X11643750Y-12650000D01*
X11622309Y-12648947D01*
X11601074Y-12645797D01*
X11580250Y-12640581D01*
X11560038Y-12633349D01*
X11540632Y-12624170D01*
X11522219Y-12613134D01*
X11504976Y-12600346D01*
X11489070Y-12585930D01*
X11474654Y-12570024D01*
X11461866Y-12552781D01*
X11450830Y-12534368D01*
X11441651Y-12514962D01*
X11434419Y-12494750D01*
X11429203Y-12473926D01*
X11426053Y-12452691D01*
X11425000Y-12431250D01*
X11425000Y-11993750D01*
X11426053Y-11972309D01*
X11429203Y-11951074D01*
X11434419Y-11930250D01*
X11441651Y-11910038D01*
X11450830Y-11890632D01*
X11461866Y-11872219D01*
X11474654Y-11854976D01*
X11489070Y-11839070D01*
X11504976Y-11824654D01*
X11522219Y-11811866D01*
X11540632Y-11800830D01*
X11560038Y-11791651D01*
X11580250Y-11784419D01*
X11601074Y-11779203D01*
X11622309Y-11776053D01*
X11643750Y-11775000D01*
X12156250Y-11775000D01*
X12177691Y-11776053D01*
G37*
D12*
X14700000Y-4150000D03*
X14700000Y-8850000D03*
D11*
G36*
X20227691Y-13326053D02*
G01*
X20248926Y-13329203D01*
X20269750Y-13334419D01*
X20289962Y-13341651D01*
X20309368Y-13350830D01*
X20327781Y-13361866D01*
X20345024Y-13374654D01*
X20360930Y-13389070D01*
X20375346Y-13404976D01*
X20388134Y-13422219D01*
X20399170Y-13440632D01*
X20408349Y-13460038D01*
X20415581Y-13480250D01*
X20420797Y-13501074D01*
X20423947Y-13522309D01*
X20425000Y-13543750D01*
X20425000Y-14056250D01*
X20423947Y-14077691D01*
X20420797Y-14098926D01*
X20415581Y-14119750D01*
X20408349Y-14139962D01*
X20399170Y-14159368D01*
X20388134Y-14177781D01*
X20375346Y-14195024D01*
X20360930Y-14210930D01*
X20345024Y-14225346D01*
X20327781Y-14238134D01*
X20309368Y-14249170D01*
X20289962Y-14258349D01*
X20269750Y-14265581D01*
X20248926Y-14270797D01*
X20227691Y-14273947D01*
X20206250Y-14275000D01*
X19768750Y-14275000D01*
X19747309Y-14273947D01*
X19726074Y-14270797D01*
X19705250Y-14265581D01*
X19685038Y-14258349D01*
X19665632Y-14249170D01*
X19647219Y-14238134D01*
X19629976Y-14225346D01*
X19614070Y-14210930D01*
X19599654Y-14195024D01*
X19586866Y-14177781D01*
X19575830Y-14159368D01*
X19566651Y-14139962D01*
X19559419Y-14119750D01*
X19554203Y-14098926D01*
X19551053Y-14077691D01*
X19550000Y-14056250D01*
X19550000Y-13543750D01*
X19551053Y-13522309D01*
X19554203Y-13501074D01*
X19559419Y-13480250D01*
X19566651Y-13460038D01*
X19575830Y-13440632D01*
X19586866Y-13422219D01*
X19599654Y-13404976D01*
X19614070Y-13389070D01*
X19629976Y-13374654D01*
X19647219Y-13361866D01*
X19665632Y-13350830D01*
X19685038Y-13341651D01*
X19705250Y-13334419D01*
X19726074Y-13329203D01*
X19747309Y-13326053D01*
X19768750Y-13325000D01*
X20206250Y-13325000D01*
X20227691Y-13326053D01*
G37*
G36*
X18652691Y-13326053D02*
G01*
X18673926Y-13329203D01*
X18694750Y-13334419D01*
X18714962Y-13341651D01*
X18734368Y-13350830D01*
X18752781Y-13361866D01*
X18770024Y-13374654D01*
X18785930Y-13389070D01*
X18800346Y-13404976D01*
X18813134Y-13422219D01*
X18824170Y-13440632D01*
X18833349Y-13460038D01*
X18840581Y-13480250D01*
X18845797Y-13501074D01*
X18848947Y-13522309D01*
X18850000Y-13543750D01*
X18850000Y-14056250D01*
X18848947Y-14077691D01*
X18845797Y-14098926D01*
X18840581Y-14119750D01*
X18833349Y-14139962D01*
X18824170Y-14159368D01*
X18813134Y-14177781D01*
X18800346Y-14195024D01*
X18785930Y-14210930D01*
X18770024Y-14225346D01*
X18752781Y-14238134D01*
X18734368Y-14249170D01*
X18714962Y-14258349D01*
X18694750Y-14265581D01*
X18673926Y-14270797D01*
X18652691Y-14273947D01*
X18631250Y-14275000D01*
X18193750Y-14275000D01*
X18172309Y-14273947D01*
X18151074Y-14270797D01*
X18130250Y-14265581D01*
X18110038Y-14258349D01*
X18090632Y-14249170D01*
X18072219Y-14238134D01*
X18054976Y-14225346D01*
X18039070Y-14210930D01*
X18024654Y-14195024D01*
X18011866Y-14177781D01*
X18000830Y-14159368D01*
X17991651Y-14139962D01*
X17984419Y-14119750D01*
X17979203Y-14098926D01*
X17976053Y-14077691D01*
X17975000Y-14056250D01*
X17975000Y-13543750D01*
X17976053Y-13522309D01*
X17979203Y-13501074D01*
X17984419Y-13480250D01*
X17991651Y-13460038D01*
X18000830Y-13440632D01*
X18011866Y-13422219D01*
X18024654Y-13404976D01*
X18039070Y-13389070D01*
X18054976Y-13374654D01*
X18072219Y-13361866D01*
X18090632Y-13350830D01*
X18110038Y-13341651D01*
X18130250Y-13334419D01*
X18151074Y-13329203D01*
X18172309Y-13326053D01*
X18193750Y-13325000D01*
X18631250Y-13325000D01*
X18652691Y-13326053D01*
G37*
G36*
X20227691Y-11826053D02*
G01*
X20248926Y-11829203D01*
X20269750Y-11834419D01*
X20289962Y-11841651D01*
X20309368Y-11850830D01*
X20327781Y-11861866D01*
X20345024Y-11874654D01*
X20360930Y-11889070D01*
X20375346Y-11904976D01*
X20388134Y-11922219D01*
X20399170Y-11940632D01*
X20408349Y-11960038D01*
X20415581Y-11980250D01*
X20420797Y-12001074D01*
X20423947Y-12022309D01*
X20425000Y-12043750D01*
X20425000Y-12556250D01*
X20423947Y-12577691D01*
X20420797Y-12598926D01*
X20415581Y-12619750D01*
X20408349Y-12639962D01*
X20399170Y-12659368D01*
X20388134Y-12677781D01*
X20375346Y-12695024D01*
X20360930Y-12710930D01*
X20345024Y-12725346D01*
X20327781Y-12738134D01*
X20309368Y-12749170D01*
X20289962Y-12758349D01*
X20269750Y-12765581D01*
X20248926Y-12770797D01*
X20227691Y-12773947D01*
X20206250Y-12775000D01*
X19768750Y-12775000D01*
X19747309Y-12773947D01*
X19726074Y-12770797D01*
X19705250Y-12765581D01*
X19685038Y-12758349D01*
X19665632Y-12749170D01*
X19647219Y-12738134D01*
X19629976Y-12725346D01*
X19614070Y-12710930D01*
X19599654Y-12695024D01*
X19586866Y-12677781D01*
X19575830Y-12659368D01*
X19566651Y-12639962D01*
X19559419Y-12619750D01*
X19554203Y-12598926D01*
X19551053Y-12577691D01*
X19550000Y-12556250D01*
X19550000Y-12043750D01*
X19551053Y-12022309D01*
X19554203Y-12001074D01*
X19559419Y-11980250D01*
X19566651Y-11960038D01*
X19575830Y-11940632D01*
X19586866Y-11922219D01*
X19599654Y-11904976D01*
X19614070Y-11889070D01*
X19629976Y-11874654D01*
X19647219Y-11861866D01*
X19665632Y-11850830D01*
X19685038Y-11841651D01*
X19705250Y-11834419D01*
X19726074Y-11829203D01*
X19747309Y-11826053D01*
X19768750Y-11825000D01*
X20206250Y-11825000D01*
X20227691Y-11826053D01*
G37*
G36*
X18652691Y-11826053D02*
G01*
X18673926Y-11829203D01*
X18694750Y-11834419D01*
X18714962Y-11841651D01*
X18734368Y-11850830D01*
X18752781Y-11861866D01*
X18770024Y-11874654D01*
X18785930Y-11889070D01*
X18800346Y-11904976D01*
X18813134Y-11922219D01*
X18824170Y-11940632D01*
X18833349Y-11960038D01*
X18840581Y-11980250D01*
X18845797Y-12001074D01*
X18848947Y-12022309D01*
X18850000Y-12043750D01*
X18850000Y-12556250D01*
X18848947Y-12577691D01*
X18845797Y-12598926D01*
X18840581Y-12619750D01*
X18833349Y-12639962D01*
X18824170Y-12659368D01*
X18813134Y-12677781D01*
X18800346Y-12695024D01*
X18785930Y-12710930D01*
X18770024Y-12725346D01*
X18752781Y-12738134D01*
X18734368Y-12749170D01*
X18714962Y-12758349D01*
X18694750Y-12765581D01*
X18673926Y-12770797D01*
X18652691Y-12773947D01*
X18631250Y-12775000D01*
X18193750Y-12775000D01*
X18172309Y-12773947D01*
X18151074Y-12770797D01*
X18130250Y-12765581D01*
X18110038Y-12758349D01*
X18090632Y-12749170D01*
X18072219Y-12738134D01*
X18054976Y-12725346D01*
X18039070Y-12710930D01*
X18024654Y-12695024D01*
X18011866Y-12677781D01*
X18000830Y-12659368D01*
X17991651Y-12639962D01*
X17984419Y-12619750D01*
X17979203Y-12598926D01*
X17976053Y-12577691D01*
X17975000Y-12556250D01*
X17975000Y-12043750D01*
X17976053Y-12022309D01*
X17979203Y-12001074D01*
X17984419Y-11980250D01*
X17991651Y-11960038D01*
X18000830Y-11940632D01*
X18011866Y-11922219D01*
X18024654Y-11904976D01*
X18039070Y-11889070D01*
X18054976Y-11874654D01*
X18072219Y-11861866D01*
X18090632Y-11850830D01*
X18110038Y-11841651D01*
X18130250Y-11834419D01*
X18151074Y-11829203D01*
X18172309Y-11826053D01*
X18193750Y-11825000D01*
X18631250Y-11825000D01*
X18652691Y-11826053D01*
G37*
G36*
X8880142Y-3801174D02*
G01*
X8903803Y-3804684D01*
X8927007Y-3810496D01*
X8949529Y-3818554D01*
X8971153Y-3828782D01*
X8991670Y-3841079D01*
X9010883Y-3855329D01*
X9028607Y-3871393D01*
X9044671Y-3889117D01*
X9058921Y-3908330D01*
X9071218Y-3928847D01*
X9081446Y-3950471D01*
X9089504Y-3972993D01*
X9095316Y-3996197D01*
X9098826Y-4019858D01*
X9100000Y-4043750D01*
X9100000Y-4956250D01*
X9098826Y-4980142D01*
X9095316Y-5003803D01*
X9089504Y-5027007D01*
X9081446Y-5049529D01*
X9071218Y-5071153D01*
X9058921Y-5091670D01*
X9044671Y-5110883D01*
X9028607Y-5128607D01*
X9010883Y-5144671D01*
X8991670Y-5158921D01*
X8971153Y-5171218D01*
X8949529Y-5181446D01*
X8927007Y-5189504D01*
X8903803Y-5195316D01*
X8880142Y-5198826D01*
X8856250Y-5200000D01*
X8368750Y-5200000D01*
X8344858Y-5198826D01*
X8321197Y-5195316D01*
X8297993Y-5189504D01*
X8275471Y-5181446D01*
X8253847Y-5171218D01*
X8233330Y-5158921D01*
X8214117Y-5144671D01*
X8196393Y-5128607D01*
X8180329Y-5110883D01*
X8166079Y-5091670D01*
X8153782Y-5071153D01*
X8143554Y-5049529D01*
X8135496Y-5027007D01*
X8129684Y-5003803D01*
X8126174Y-4980142D01*
X8125000Y-4956250D01*
X8125000Y-4043750D01*
X8126174Y-4019858D01*
X8129684Y-3996197D01*
X8135496Y-3972993D01*
X8143554Y-3950471D01*
X8153782Y-3928847D01*
X8166079Y-3908330D01*
X8180329Y-3889117D01*
X8196393Y-3871393D01*
X8214117Y-3855329D01*
X8233330Y-3841079D01*
X8253847Y-3828782D01*
X8275471Y-3818554D01*
X8297993Y-3810496D01*
X8321197Y-3804684D01*
X8344858Y-3801174D01*
X8368750Y-3800000D01*
X8856250Y-3800000D01*
X8880142Y-3801174D01*
G37*
G36*
X10755142Y-3801174D02*
G01*
X10778803Y-3804684D01*
X10802007Y-3810496D01*
X10824529Y-3818554D01*
X10846153Y-3828782D01*
X10866670Y-3841079D01*
X10885883Y-3855329D01*
X10903607Y-3871393D01*
X10919671Y-3889117D01*
X10933921Y-3908330D01*
X10946218Y-3928847D01*
X10956446Y-3950471D01*
X10964504Y-3972993D01*
X10970316Y-3996197D01*
X10973826Y-4019858D01*
X10975000Y-4043750D01*
X10975000Y-4956250D01*
X10973826Y-4980142D01*
X10970316Y-5003803D01*
X10964504Y-5027007D01*
X10956446Y-5049529D01*
X10946218Y-5071153D01*
X10933921Y-5091670D01*
X10919671Y-5110883D01*
X10903607Y-5128607D01*
X10885883Y-5144671D01*
X10866670Y-5158921D01*
X10846153Y-5171218D01*
X10824529Y-5181446D01*
X10802007Y-5189504D01*
X10778803Y-5195316D01*
X10755142Y-5198826D01*
X10731250Y-5200000D01*
X10243750Y-5200000D01*
X10219858Y-5198826D01*
X10196197Y-5195316D01*
X10172993Y-5189504D01*
X10150471Y-5181446D01*
X10128847Y-5171218D01*
X10108330Y-5158921D01*
X10089117Y-5144671D01*
X10071393Y-5128607D01*
X10055329Y-5110883D01*
X10041079Y-5091670D01*
X10028782Y-5071153D01*
X10018554Y-5049529D01*
X10010496Y-5027007D01*
X10004684Y-5003803D01*
X10001174Y-4980142D01*
X10000000Y-4956250D01*
X10000000Y-4043750D01*
X10001174Y-4019858D01*
X10004684Y-3996197D01*
X10010496Y-3972993D01*
X10018554Y-3950471D01*
X10028782Y-3928847D01*
X10041079Y-3908330D01*
X10055329Y-3889117D01*
X10071393Y-3871393D01*
X10089117Y-3855329D01*
X10108330Y-3841079D01*
X10128847Y-3828782D01*
X10150471Y-3818554D01*
X10172993Y-3810496D01*
X10196197Y-3804684D01*
X10219858Y-3801174D01*
X10243750Y-3800000D01*
X10731250Y-3800000D01*
X10755142Y-3801174D01*
G37*
G36*
X8880142Y-5801174D02*
G01*
X8903803Y-5804684D01*
X8927007Y-5810496D01*
X8949529Y-5818554D01*
X8971153Y-5828782D01*
X8991670Y-5841079D01*
X9010883Y-5855329D01*
X9028607Y-5871393D01*
X9044671Y-5889117D01*
X9058921Y-5908330D01*
X9071218Y-5928847D01*
X9081446Y-5950471D01*
X9089504Y-5972993D01*
X9095316Y-5996197D01*
X9098826Y-6019858D01*
X9100000Y-6043750D01*
X9100000Y-6956250D01*
X9098826Y-6980142D01*
X9095316Y-7003803D01*
X9089504Y-7027007D01*
X9081446Y-7049529D01*
X9071218Y-7071153D01*
X9058921Y-7091670D01*
X9044671Y-7110883D01*
X9028607Y-7128607D01*
X9010883Y-7144671D01*
X8991670Y-7158921D01*
X8971153Y-7171218D01*
X8949529Y-7181446D01*
X8927007Y-7189504D01*
X8903803Y-7195316D01*
X8880142Y-7198826D01*
X8856250Y-7200000D01*
X8368750Y-7200000D01*
X8344858Y-7198826D01*
X8321197Y-7195316D01*
X8297993Y-7189504D01*
X8275471Y-7181446D01*
X8253847Y-7171218D01*
X8233330Y-7158921D01*
X8214117Y-7144671D01*
X8196393Y-7128607D01*
X8180329Y-7110883D01*
X8166079Y-7091670D01*
X8153782Y-7071153D01*
X8143554Y-7049529D01*
X8135496Y-7027007D01*
X8129684Y-7003803D01*
X8126174Y-6980142D01*
X8125000Y-6956250D01*
X8125000Y-6043750D01*
X8126174Y-6019858D01*
X8129684Y-5996197D01*
X8135496Y-5972993D01*
X8143554Y-5950471D01*
X8153782Y-5928847D01*
X8166079Y-5908330D01*
X8180329Y-5889117D01*
X8196393Y-5871393D01*
X8214117Y-5855329D01*
X8233330Y-5841079D01*
X8253847Y-5828782D01*
X8275471Y-5818554D01*
X8297993Y-5810496D01*
X8321197Y-5804684D01*
X8344858Y-5801174D01*
X8368750Y-5800000D01*
X8856250Y-5800000D01*
X8880142Y-5801174D01*
G37*
G36*
X10755142Y-5801174D02*
G01*
X10778803Y-5804684D01*
X10802007Y-5810496D01*
X10824529Y-5818554D01*
X10846153Y-5828782D01*
X10866670Y-5841079D01*
X10885883Y-5855329D01*
X10903607Y-5871393D01*
X10919671Y-5889117D01*
X10933921Y-5908330D01*
X10946218Y-5928847D01*
X10956446Y-5950471D01*
X10964504Y-5972993D01*
X10970316Y-5996197D01*
X10973826Y-6019858D01*
X10975000Y-6043750D01*
X10975000Y-6956250D01*
X10973826Y-6980142D01*
X10970316Y-7003803D01*
X10964504Y-7027007D01*
X10956446Y-7049529D01*
X10946218Y-7071153D01*
X10933921Y-7091670D01*
X10919671Y-7110883D01*
X10903607Y-7128607D01*
X10885883Y-7144671D01*
X10866670Y-7158921D01*
X10846153Y-7171218D01*
X10824529Y-7181446D01*
X10802007Y-7189504D01*
X10778803Y-7195316D01*
X10755142Y-7198826D01*
X10731250Y-7200000D01*
X10243750Y-7200000D01*
X10219858Y-7198826D01*
X10196197Y-7195316D01*
X10172993Y-7189504D01*
X10150471Y-7181446D01*
X10128847Y-7171218D01*
X10108330Y-7158921D01*
X10089117Y-7144671D01*
X10071393Y-7128607D01*
X10055329Y-7110883D01*
X10041079Y-7091670D01*
X10028782Y-7071153D01*
X10018554Y-7049529D01*
X10010496Y-7027007D01*
X10004684Y-7003803D01*
X10001174Y-6980142D01*
X10000000Y-6956250D01*
X10000000Y-6043750D01*
X10001174Y-6019858D01*
X10004684Y-5996197D01*
X10010496Y-5972993D01*
X10018554Y-5950471D01*
X10028782Y-5928847D01*
X10041079Y-5908330D01*
X10055329Y-5889117D01*
X10071393Y-5871393D01*
X10089117Y-5855329D01*
X10108330Y-5841079D01*
X10128847Y-5828782D01*
X10150471Y-5818554D01*
X10172993Y-5810496D01*
X10196197Y-5804684D01*
X10219858Y-5801174D01*
X10243750Y-5800000D01*
X10731250Y-5800000D01*
X10755142Y-5801174D01*
G37*
G36*
X8880142Y-7801174D02*
G01*
X8903803Y-7804684D01*
X8927007Y-7810496D01*
X8949529Y-7818554D01*
X8971153Y-7828782D01*
X8991670Y-7841079D01*
X9010883Y-7855329D01*
X9028607Y-7871393D01*
X9044671Y-7889117D01*
X9058921Y-7908330D01*
X9071218Y-7928847D01*
X9081446Y-7950471D01*
X9089504Y-7972993D01*
X9095316Y-7996197D01*
X9098826Y-8019858D01*
X9100000Y-8043750D01*
X9100000Y-8956250D01*
X9098826Y-8980142D01*
X9095316Y-9003803D01*
X9089504Y-9027007D01*
X9081446Y-9049529D01*
X9071218Y-9071153D01*
X9058921Y-9091670D01*
X9044671Y-9110883D01*
X9028607Y-9128607D01*
X9010883Y-9144671D01*
X8991670Y-9158921D01*
X8971153Y-9171218D01*
X8949529Y-9181446D01*
X8927007Y-9189504D01*
X8903803Y-9195316D01*
X8880142Y-9198826D01*
X8856250Y-9200000D01*
X8368750Y-9200000D01*
X8344858Y-9198826D01*
X8321197Y-9195316D01*
X8297993Y-9189504D01*
X8275471Y-9181446D01*
X8253847Y-9171218D01*
X8233330Y-9158921D01*
X8214117Y-9144671D01*
X8196393Y-9128607D01*
X8180329Y-9110883D01*
X8166079Y-9091670D01*
X8153782Y-9071153D01*
X8143554Y-9049529D01*
X8135496Y-9027007D01*
X8129684Y-9003803D01*
X8126174Y-8980142D01*
X8125000Y-8956250D01*
X8125000Y-8043750D01*
X8126174Y-8019858D01*
X8129684Y-7996197D01*
X8135496Y-7972993D01*
X8143554Y-7950471D01*
X8153782Y-7928847D01*
X8166079Y-7908330D01*
X8180329Y-7889117D01*
X8196393Y-7871393D01*
X8214117Y-7855329D01*
X8233330Y-7841079D01*
X8253847Y-7828782D01*
X8275471Y-7818554D01*
X8297993Y-7810496D01*
X8321197Y-7804684D01*
X8344858Y-7801174D01*
X8368750Y-7800000D01*
X8856250Y-7800000D01*
X8880142Y-7801174D01*
G37*
G36*
X10755142Y-7801174D02*
G01*
X10778803Y-7804684D01*
X10802007Y-7810496D01*
X10824529Y-7818554D01*
X10846153Y-7828782D01*
X10866670Y-7841079D01*
X10885883Y-7855329D01*
X10903607Y-7871393D01*
X10919671Y-7889117D01*
X10933921Y-7908330D01*
X10946218Y-7928847D01*
X10956446Y-7950471D01*
X10964504Y-7972993D01*
X10970316Y-7996197D01*
X10973826Y-8019858D01*
X10975000Y-8043750D01*
X10975000Y-8956250D01*
X10973826Y-8980142D01*
X10970316Y-9003803D01*
X10964504Y-9027007D01*
X10956446Y-9049529D01*
X10946218Y-9071153D01*
X10933921Y-9091670D01*
X10919671Y-9110883D01*
X10903607Y-9128607D01*
X10885883Y-9144671D01*
X10866670Y-9158921D01*
X10846153Y-9171218D01*
X10824529Y-9181446D01*
X10802007Y-9189504D01*
X10778803Y-9195316D01*
X10755142Y-9198826D01*
X10731250Y-9200000D01*
X10243750Y-9200000D01*
X10219858Y-9198826D01*
X10196197Y-9195316D01*
X10172993Y-9189504D01*
X10150471Y-9181446D01*
X10128847Y-9171218D01*
X10108330Y-9158921D01*
X10089117Y-9144671D01*
X10071393Y-9128607D01*
X10055329Y-9110883D01*
X10041079Y-9091670D01*
X10028782Y-9071153D01*
X10018554Y-9049529D01*
X10010496Y-9027007D01*
X10004684Y-9003803D01*
X10001174Y-8980142D01*
X10000000Y-8956250D01*
X10000000Y-8043750D01*
X10001174Y-8019858D01*
X10004684Y-7996197D01*
X10010496Y-7972993D01*
X10018554Y-7950471D01*
X10028782Y-7928847D01*
X10041079Y-7908330D01*
X10055329Y-7889117D01*
X10071393Y-7871393D01*
X10089117Y-7855329D01*
X10108330Y-7841079D01*
X10128847Y-7828782D01*
X10150471Y-7818554D01*
X10172993Y-7810496D01*
X10196197Y-7804684D01*
X10219858Y-7801174D01*
X10243750Y-7800000D01*
X10731250Y-7800000D01*
X10755142Y-7801174D01*
G37*
G36*
X19277691Y-10351053D02*
G01*
X19298926Y-10354203D01*
X19319750Y-10359419D01*
X19339962Y-10366651D01*
X19359368Y-10375830D01*
X19377781Y-10386866D01*
X19395024Y-10399654D01*
X19410930Y-10414070D01*
X19425346Y-10429976D01*
X19438134Y-10447219D01*
X19449170Y-10465632D01*
X19458349Y-10485038D01*
X19465581Y-10505250D01*
X19470797Y-10526074D01*
X19473947Y-10547309D01*
X19475000Y-10568750D01*
X19475000Y-11006250D01*
X19473947Y-11027691D01*
X19470797Y-11048926D01*
X19465581Y-11069750D01*
X19458349Y-11089962D01*
X19449170Y-11109368D01*
X19438134Y-11127781D01*
X19425346Y-11145024D01*
X19410930Y-11160930D01*
X19395024Y-11175346D01*
X19377781Y-11188134D01*
X19359368Y-11199170D01*
X19339962Y-11208349D01*
X19319750Y-11215581D01*
X19298926Y-11220797D01*
X19277691Y-11223947D01*
X19256250Y-11225000D01*
X18743750Y-11225000D01*
X18722309Y-11223947D01*
X18701074Y-11220797D01*
X18680250Y-11215581D01*
X18660038Y-11208349D01*
X18640632Y-11199170D01*
X18622219Y-11188134D01*
X18604976Y-11175346D01*
X18589070Y-11160930D01*
X18574654Y-11145024D01*
X18561866Y-11127781D01*
X18550830Y-11109368D01*
X18541651Y-11089962D01*
X18534419Y-11069750D01*
X18529203Y-11048926D01*
X18526053Y-11027691D01*
X18525000Y-11006250D01*
X18525000Y-10568750D01*
X18526053Y-10547309D01*
X18529203Y-10526074D01*
X18534419Y-10505250D01*
X18541651Y-10485038D01*
X18550830Y-10465632D01*
X18561866Y-10447219D01*
X18574654Y-10429976D01*
X18589070Y-10414070D01*
X18604976Y-10399654D01*
X18622219Y-10386866D01*
X18640632Y-10375830D01*
X18660038Y-10366651D01*
X18680250Y-10359419D01*
X18701074Y-10354203D01*
X18722309Y-10351053D01*
X18743750Y-10350000D01*
X19256250Y-10350000D01*
X19277691Y-10351053D01*
G37*
G36*
X19277691Y-8776053D02*
G01*
X19298926Y-8779203D01*
X19319750Y-8784419D01*
X19339962Y-8791651D01*
X19359368Y-8800830D01*
X19377781Y-8811866D01*
X19395024Y-8824654D01*
X19410930Y-8839070D01*
X19425346Y-8854976D01*
X19438134Y-8872219D01*
X19449170Y-8890632D01*
X19458349Y-8910038D01*
X19465581Y-8930250D01*
X19470797Y-8951074D01*
X19473947Y-8972309D01*
X19475000Y-8993750D01*
X19475000Y-9431250D01*
X19473947Y-9452691D01*
X19470797Y-9473926D01*
X19465581Y-9494750D01*
X19458349Y-9514962D01*
X19449170Y-9534368D01*
X19438134Y-9552781D01*
X19425346Y-9570024D01*
X19410930Y-9585930D01*
X19395024Y-9600346D01*
X19377781Y-9613134D01*
X19359368Y-9624170D01*
X19339962Y-9633349D01*
X19319750Y-9640581D01*
X19298926Y-9645797D01*
X19277691Y-9648947D01*
X19256250Y-9650000D01*
X18743750Y-9650000D01*
X18722309Y-9648947D01*
X18701074Y-9645797D01*
X18680250Y-9640581D01*
X18660038Y-9633349D01*
X18640632Y-9624170D01*
X18622219Y-9613134D01*
X18604976Y-9600346D01*
X18589070Y-9585930D01*
X18574654Y-9570024D01*
X18561866Y-9552781D01*
X18550830Y-9534368D01*
X18541651Y-9514962D01*
X18534419Y-9494750D01*
X18529203Y-9473926D01*
X18526053Y-9452691D01*
X18525000Y-9431250D01*
X18525000Y-8993750D01*
X18526053Y-8972309D01*
X18529203Y-8951074D01*
X18534419Y-8930250D01*
X18541651Y-8910038D01*
X18550830Y-8890632D01*
X18561866Y-8872219D01*
X18574654Y-8854976D01*
X18589070Y-8839070D01*
X18604976Y-8824654D01*
X18622219Y-8811866D01*
X18640632Y-8800830D01*
X18660038Y-8791651D01*
X18680250Y-8784419D01*
X18701074Y-8779203D01*
X18722309Y-8776053D01*
X18743750Y-8775000D01*
X19256250Y-8775000D01*
X19277691Y-8776053D01*
G37*
G36*
X10680142Y-11576174D02*
G01*
X10703803Y-11579684D01*
X10727007Y-11585496D01*
X10749529Y-11593554D01*
X10771153Y-11603782D01*
X10791670Y-11616079D01*
X10810883Y-11630329D01*
X10828607Y-11646393D01*
X10844671Y-11664117D01*
X10858921Y-11683330D01*
X10871218Y-11703847D01*
X10881446Y-11725471D01*
X10889504Y-11747993D01*
X10895316Y-11771197D01*
X10898826Y-11794858D01*
X10900000Y-11818750D01*
X10900000Y-12306250D01*
X10898826Y-12330142D01*
X10895316Y-12353803D01*
X10889504Y-12377007D01*
X10881446Y-12399529D01*
X10871218Y-12421153D01*
X10858921Y-12441670D01*
X10844671Y-12460883D01*
X10828607Y-12478607D01*
X10810883Y-12494671D01*
X10791670Y-12508921D01*
X10771153Y-12521218D01*
X10749529Y-12531446D01*
X10727007Y-12539504D01*
X10703803Y-12545316D01*
X10680142Y-12548826D01*
X10656250Y-12550000D01*
X9743750Y-12550000D01*
X9719858Y-12548826D01*
X9696197Y-12545316D01*
X9672993Y-12539504D01*
X9650471Y-12531446D01*
X9628847Y-12521218D01*
X9608330Y-12508921D01*
X9589117Y-12494671D01*
X9571393Y-12478607D01*
X9555329Y-12460883D01*
X9541079Y-12441670D01*
X9528782Y-12421153D01*
X9518554Y-12399529D01*
X9510496Y-12377007D01*
X9504684Y-12353803D01*
X9501174Y-12330142D01*
X9500000Y-12306250D01*
X9500000Y-11818750D01*
X9501174Y-11794858D01*
X9504684Y-11771197D01*
X9510496Y-11747993D01*
X9518554Y-11725471D01*
X9528782Y-11703847D01*
X9541079Y-11683330D01*
X9555329Y-11664117D01*
X9571393Y-11646393D01*
X9589117Y-11630329D01*
X9608330Y-11616079D01*
X9628847Y-11603782D01*
X9650471Y-11593554D01*
X9672993Y-11585496D01*
X9696197Y-11579684D01*
X9719858Y-11576174D01*
X9743750Y-11575000D01*
X10656250Y-11575000D01*
X10680142Y-11576174D01*
G37*
G36*
X10680142Y-13451174D02*
G01*
X10703803Y-13454684D01*
X10727007Y-13460496D01*
X10749529Y-13468554D01*
X10771153Y-13478782D01*
X10791670Y-13491079D01*
X10810883Y-13505329D01*
X10828607Y-13521393D01*
X10844671Y-13539117D01*
X10858921Y-13558330D01*
X10871218Y-13578847D01*
X10881446Y-13600471D01*
X10889504Y-13622993D01*
X10895316Y-13646197D01*
X10898826Y-13669858D01*
X10900000Y-13693750D01*
X10900000Y-14181250D01*
X10898826Y-14205142D01*
X10895316Y-14228803D01*
X10889504Y-14252007D01*
X10881446Y-14274529D01*
X10871218Y-14296153D01*
X10858921Y-14316670D01*
X10844671Y-14335883D01*
X10828607Y-14353607D01*
X10810883Y-14369671D01*
X10791670Y-14383921D01*
X10771153Y-14396218D01*
X10749529Y-14406446D01*
X10727007Y-14414504D01*
X10703803Y-14420316D01*
X10680142Y-14423826D01*
X10656250Y-14425000D01*
X9743750Y-14425000D01*
X9719858Y-14423826D01*
X9696197Y-14420316D01*
X9672993Y-14414504D01*
X9650471Y-14406446D01*
X9628847Y-14396218D01*
X9608330Y-14383921D01*
X9589117Y-14369671D01*
X9571393Y-14353607D01*
X9555329Y-14335883D01*
X9541079Y-14316670D01*
X9528782Y-14296153D01*
X9518554Y-14274529D01*
X9510496Y-14252007D01*
X9504684Y-14228803D01*
X9501174Y-14205142D01*
X9500000Y-14181250D01*
X9500000Y-13693750D01*
X9501174Y-13669858D01*
X9504684Y-13646197D01*
X9510496Y-13622993D01*
X9518554Y-13600471D01*
X9528782Y-13578847D01*
X9541079Y-13558330D01*
X9555329Y-13539117D01*
X9571393Y-13521393D01*
X9589117Y-13505329D01*
X9608330Y-13491079D01*
X9628847Y-13478782D01*
X9650471Y-13468554D01*
X9672993Y-13460496D01*
X9696197Y-13454684D01*
X9719858Y-13451174D01*
X9743750Y-13450000D01*
X10656250Y-13450000D01*
X10680142Y-13451174D01*
G37*
G36*
X8780142Y-11576174D02*
G01*
X8803803Y-11579684D01*
X8827007Y-11585496D01*
X8849529Y-11593554D01*
X8871153Y-11603782D01*
X8891670Y-11616079D01*
X8910883Y-11630329D01*
X8928607Y-11646393D01*
X8944671Y-11664117D01*
X8958921Y-11683330D01*
X8971218Y-11703847D01*
X8981446Y-11725471D01*
X8989504Y-11747993D01*
X8995316Y-11771197D01*
X8998826Y-11794858D01*
X9000000Y-11818750D01*
X9000000Y-12306250D01*
X8998826Y-12330142D01*
X8995316Y-12353803D01*
X8989504Y-12377007D01*
X8981446Y-12399529D01*
X8971218Y-12421153D01*
X8958921Y-12441670D01*
X8944671Y-12460883D01*
X8928607Y-12478607D01*
X8910883Y-12494671D01*
X8891670Y-12508921D01*
X8871153Y-12521218D01*
X8849529Y-12531446D01*
X8827007Y-12539504D01*
X8803803Y-12545316D01*
X8780142Y-12548826D01*
X8756250Y-12550000D01*
X7843750Y-12550000D01*
X7819858Y-12548826D01*
X7796197Y-12545316D01*
X7772993Y-12539504D01*
X7750471Y-12531446D01*
X7728847Y-12521218D01*
X7708330Y-12508921D01*
X7689117Y-12494671D01*
X7671393Y-12478607D01*
X7655329Y-12460883D01*
X7641079Y-12441670D01*
X7628782Y-12421153D01*
X7618554Y-12399529D01*
X7610496Y-12377007D01*
X7604684Y-12353803D01*
X7601174Y-12330142D01*
X7600000Y-12306250D01*
X7600000Y-11818750D01*
X7601174Y-11794858D01*
X7604684Y-11771197D01*
X7610496Y-11747993D01*
X7618554Y-11725471D01*
X7628782Y-11703847D01*
X7641079Y-11683330D01*
X7655329Y-11664117D01*
X7671393Y-11646393D01*
X7689117Y-11630329D01*
X7708330Y-11616079D01*
X7728847Y-11603782D01*
X7750471Y-11593554D01*
X7772993Y-11585496D01*
X7796197Y-11579684D01*
X7819858Y-11576174D01*
X7843750Y-11575000D01*
X8756250Y-11575000D01*
X8780142Y-11576174D01*
G37*
G36*
X8780142Y-13451174D02*
G01*
X8803803Y-13454684D01*
X8827007Y-13460496D01*
X8849529Y-13468554D01*
X8871153Y-13478782D01*
X8891670Y-13491079D01*
X8910883Y-13505329D01*
X8928607Y-13521393D01*
X8944671Y-13539117D01*
X8958921Y-13558330D01*
X8971218Y-13578847D01*
X8981446Y-13600471D01*
X8989504Y-13622993D01*
X8995316Y-13646197D01*
X8998826Y-13669858D01*
X9000000Y-13693750D01*
X9000000Y-14181250D01*
X8998826Y-14205142D01*
X8995316Y-14228803D01*
X8989504Y-14252007D01*
X8981446Y-14274529D01*
X8971218Y-14296153D01*
X8958921Y-14316670D01*
X8944671Y-14335883D01*
X8928607Y-14353607D01*
X8910883Y-14369671D01*
X8891670Y-14383921D01*
X8871153Y-14396218D01*
X8849529Y-14406446D01*
X8827007Y-14414504D01*
X8803803Y-14420316D01*
X8780142Y-14423826D01*
X8756250Y-14425000D01*
X7843750Y-14425000D01*
X7819858Y-14423826D01*
X7796197Y-14420316D01*
X7772993Y-14414504D01*
X7750471Y-14406446D01*
X7728847Y-14396218D01*
X7708330Y-14383921D01*
X7689117Y-14369671D01*
X7671393Y-14353607D01*
X7655329Y-14335883D01*
X7641079Y-14316670D01*
X7628782Y-14296153D01*
X7618554Y-14274529D01*
X7610496Y-14252007D01*
X7604684Y-14228803D01*
X7601174Y-14205142D01*
X7600000Y-14181250D01*
X7600000Y-13693750D01*
X7601174Y-13669858D01*
X7604684Y-13646197D01*
X7610496Y-13622993D01*
X7618554Y-13600471D01*
X7628782Y-13578847D01*
X7641079Y-13558330D01*
X7655329Y-13539117D01*
X7671393Y-13521393D01*
X7689117Y-13505329D01*
X7708330Y-13491079D01*
X7728847Y-13478782D01*
X7750471Y-13468554D01*
X7772993Y-13460496D01*
X7796197Y-13454684D01*
X7819858Y-13451174D01*
X7843750Y-13450000D01*
X8756250Y-13450000D01*
X8780142Y-13451174D01*
G37*
M02*
