M48
; DRILL file {KiCad (5.1.5)-3} date 2/24/2020 7:27:33 PM
; FORMAT={-:-/ absolute / inch / decimal}
; #@! TF.CreationDate,2020-02-24T19:27:33-05:00
; #@! TF.GenerationSoftware,Kicad,Pcbnew,(5.1.5)-3
; #@! TF.FileFunction,Plated,1,2,PTH
FMAT,2
INCH
T1C0.0118
T2C0.0157
T3C0.0236
%
G90
G05
T1
X0.2835Y-0.0315
X0.2835Y-0.063
X0.315Y-0.0315
X0.315Y-0.063
X0.3465Y-0.0315
X0.3465Y-0.063
X0.378Y-0.4094
X0.4094Y-0.4094
X0.4409Y-0.4094
X0.4724Y-0.4094
X0.5118Y-0.2992
X0.5118Y-0.5118
X0.5433Y-0.2992
X0.5433Y-0.5118
X0.5827Y-0.4094
X0.6142Y-0.4094
X0.6457Y-0.4094
X0.6772Y-0.4094
X0.811Y-0.0315
X0.811Y-0.063
X0.8425Y-0.0315
X0.8425Y-0.063
X0.874Y-0.0315
X0.874Y-0.063
X0.9055Y-0.4094
X0.937Y-0.4094
X0.9685Y-0.4094
X1.0Y-0.4094
X1.0394Y-0.2992
X1.0394Y-0.5118
X1.0709Y-0.2992
X1.0709Y-0.5118
X1.1102Y-0.4094
X1.1417Y-0.4094
X1.1732Y-0.4094
X1.2047Y-0.4094
X1.3386Y-0.0315
X1.3386Y-0.063
X1.3701Y-0.0315
X1.3701Y-0.063
X1.4016Y-0.0315
X1.4016Y-0.063
X1.4331Y-0.4094
X1.4646Y-0.4094
X1.4961Y-0.4094
X1.5276Y-0.4094
X1.5669Y-0.2992
X1.5669Y-0.5118
X1.5984Y-0.2992
X1.5984Y-0.5118
X1.6378Y-0.4094
X1.6693Y-0.4094
X1.7008Y-0.4094
X1.7323Y-0.4094
X1.7835Y-0.0315
X1.7835Y-0.063
X1.815Y-0.0315
X1.815Y-0.063
X1.8465Y-0.0315
X1.8465Y-0.063
X1.8976Y-0.4803
X1.8976Y-0.5118
X1.8976Y-0.5433
X1.9291Y-0.4803
X1.9291Y-0.5118
X1.9291Y-0.5433
T2
X0.622Y-0.5118
X1.1496Y-0.5118
X1.6772Y-0.5118
X2.0118Y-0.4055
X0.1831Y-0.2362
X0.1831Y-0.2697
X0.1831Y-0.3031
X0.1831Y-0.3366
X0.1831Y-0.3701
X0.1831Y-0.4035
X0.1831Y-0.437
X0.1831Y-0.4705
X0.2362Y-0.2362
X0.2362Y-0.2697
X0.2362Y-0.3031
X0.2362Y-0.3366
X0.2362Y-0.3701
X0.2362Y-0.4035
X0.2362Y-0.437
X0.2362Y-0.4705
T3
G00X0.0803Y-0.1831
M15
G01X0.0488Y-0.1831
M16
G05
G00X0.0803Y-0.5236
M15
G01X0.0488Y-0.5236
M16
G05
G00X0.2272Y-0.1831
M15
G01X0.1681Y-0.1831
M16
G05
G00X0.2272Y-0.5236
M15
G01X0.1681Y-0.5236
M16
G05
T0
M30
